%TF.GenerationSoftware,KiCad,Pcbnew,(5.0.1)-3*%
%TF.CreationDate,2019-10-12T21:06:36-05:00*%
%TF.ProjectId,pet_feeder,7065745F6665656465722E6B69636164,rev?*%
%TF.SameCoordinates,Original*%
%TF.FileFunction,Legend,Bot*%
%TF.FilePolarity,Positive*%
%FSLAX46Y46*%
G04 Gerber Fmt 4.6, Leading zero omitted, Abs format (unit mm)*
G04 Created by KiCad (PCBNEW (5.0.1)-3) date 10/12/2019 9:06:36 PM*
%MOMM*%
%LPD*%
G01*
G04 APERTURE LIST*
%ADD10C,0.300000*%
G04 APERTURE END LIST*
D10*
X164276428Y-72272857D02*
X163776428Y-72272857D01*
X163562142Y-73058571D02*
X164276428Y-73058571D01*
X164276428Y-71558571D01*
X163562142Y-71558571D01*
X162990714Y-72987142D02*
X162776428Y-73058571D01*
X162419285Y-73058571D01*
X162276428Y-72987142D01*
X162205000Y-72915714D01*
X162133571Y-72772857D01*
X162133571Y-72630000D01*
X162205000Y-72487142D01*
X162276428Y-72415714D01*
X162419285Y-72344285D01*
X162705000Y-72272857D01*
X162847857Y-72201428D01*
X162919285Y-72130000D01*
X162990714Y-71987142D01*
X162990714Y-71844285D01*
X162919285Y-71701428D01*
X162847857Y-71630000D01*
X162705000Y-71558571D01*
X162347857Y-71558571D01*
X162133571Y-71630000D01*
X161490714Y-73058571D02*
X161490714Y-71558571D01*
X160919285Y-71558571D01*
X160776428Y-71630000D01*
X160705000Y-71701428D01*
X160633571Y-71844285D01*
X160633571Y-72058571D01*
X160705000Y-72201428D01*
X160776428Y-72272857D01*
X160919285Y-72344285D01*
X161490714Y-72344285D01*
X160133571Y-71558571D02*
X159205000Y-71558571D01*
X159705000Y-72130000D01*
X159490714Y-72130000D01*
X159347857Y-72201428D01*
X159276428Y-72272857D01*
X159205000Y-72415714D01*
X159205000Y-72772857D01*
X159276428Y-72915714D01*
X159347857Y-72987142D01*
X159490714Y-73058571D01*
X159919285Y-73058571D01*
X160062142Y-72987142D01*
X160133571Y-72915714D01*
X158633571Y-71701428D02*
X158562142Y-71630000D01*
X158419285Y-71558571D01*
X158062142Y-71558571D01*
X157919285Y-71630000D01*
X157847857Y-71701428D01*
X157776428Y-71844285D01*
X157776428Y-71987142D01*
X157847857Y-72201428D01*
X158705000Y-73058571D01*
X157776428Y-73058571D01*
X155990714Y-73058571D02*
X155990714Y-71558571D01*
X155419285Y-71558571D01*
X155276428Y-71630000D01*
X155205000Y-71701428D01*
X155133571Y-71844285D01*
X155133571Y-72058571D01*
X155205000Y-72201428D01*
X155276428Y-72272857D01*
X155419285Y-72344285D01*
X155990714Y-72344285D01*
X153919285Y-72987142D02*
X154062142Y-73058571D01*
X154347857Y-73058571D01*
X154490714Y-72987142D01*
X154562142Y-72844285D01*
X154562142Y-72272857D01*
X154490714Y-72130000D01*
X154347857Y-72058571D01*
X154062142Y-72058571D01*
X153919285Y-72130000D01*
X153847857Y-72272857D01*
X153847857Y-72415714D01*
X154562142Y-72558571D01*
X153419285Y-72058571D02*
X152847857Y-72058571D01*
X153205000Y-71558571D02*
X153205000Y-72844285D01*
X153133571Y-72987142D01*
X152990714Y-73058571D01*
X152847857Y-73058571D01*
X150705000Y-72272857D02*
X151205000Y-72272857D01*
X151205000Y-73058571D02*
X151205000Y-71558571D01*
X150490714Y-71558571D01*
X149347857Y-72987142D02*
X149490714Y-73058571D01*
X149776428Y-73058571D01*
X149919285Y-72987142D01*
X149990714Y-72844285D01*
X149990714Y-72272857D01*
X149919285Y-72130000D01*
X149776428Y-72058571D01*
X149490714Y-72058571D01*
X149347857Y-72130000D01*
X149276428Y-72272857D01*
X149276428Y-72415714D01*
X149990714Y-72558571D01*
X148062142Y-72987142D02*
X148205000Y-73058571D01*
X148490714Y-73058571D01*
X148633571Y-72987142D01*
X148705000Y-72844285D01*
X148705000Y-72272857D01*
X148633571Y-72130000D01*
X148490714Y-72058571D01*
X148205000Y-72058571D01*
X148062142Y-72130000D01*
X147990714Y-72272857D01*
X147990714Y-72415714D01*
X148705000Y-72558571D01*
X146705000Y-73058571D02*
X146705000Y-71558571D01*
X146705000Y-72987142D02*
X146847857Y-73058571D01*
X147133571Y-73058571D01*
X147276428Y-72987142D01*
X147347857Y-72915714D01*
X147419285Y-72772857D01*
X147419285Y-72344285D01*
X147347857Y-72201428D01*
X147276428Y-72130000D01*
X147133571Y-72058571D01*
X146847857Y-72058571D01*
X146705000Y-72130000D01*
X145419285Y-72987142D02*
X145562142Y-73058571D01*
X145847857Y-73058571D01*
X145990714Y-72987142D01*
X146062142Y-72844285D01*
X146062142Y-72272857D01*
X145990714Y-72130000D01*
X145847857Y-72058571D01*
X145562142Y-72058571D01*
X145419285Y-72130000D01*
X145347857Y-72272857D01*
X145347857Y-72415714D01*
X146062142Y-72558571D01*
X144705000Y-73058571D02*
X144705000Y-72058571D01*
X144705000Y-72344285D02*
X144633571Y-72201428D01*
X144562142Y-72130000D01*
X144419285Y-72058571D01*
X144276428Y-72058571D01*
X142633571Y-73058571D02*
X142633571Y-71558571D01*
X142133571Y-72630000D01*
X141633571Y-71558571D01*
X141633571Y-73058571D01*
X140705000Y-73058571D02*
X140847857Y-72987142D01*
X140919285Y-72915714D01*
X140990714Y-72772857D01*
X140990714Y-72344285D01*
X140919285Y-72201428D01*
X140847857Y-72130000D01*
X140705000Y-72058571D01*
X140490714Y-72058571D01*
X140347857Y-72130000D01*
X140276428Y-72201428D01*
X140205000Y-72344285D01*
X140205000Y-72772857D01*
X140276428Y-72915714D01*
X140347857Y-72987142D01*
X140490714Y-73058571D01*
X140705000Y-73058571D01*
X138919285Y-73058571D02*
X138919285Y-71558571D01*
X138919285Y-72987142D02*
X139062142Y-73058571D01*
X139347857Y-73058571D01*
X139490714Y-72987142D01*
X139562142Y-72915714D01*
X139633571Y-72772857D01*
X139633571Y-72344285D01*
X139562142Y-72201428D01*
X139490714Y-72130000D01*
X139347857Y-72058571D01*
X139062142Y-72058571D01*
X138919285Y-72130000D01*
X137562142Y-72058571D02*
X137562142Y-73058571D01*
X138205000Y-72058571D02*
X138205000Y-72844285D01*
X138133571Y-72987142D01*
X137990714Y-73058571D01*
X137776428Y-73058571D01*
X137633571Y-72987142D01*
X137562142Y-72915714D01*
X136633571Y-73058571D02*
X136776428Y-72987142D01*
X136847857Y-72844285D01*
X136847857Y-71558571D01*
X135490714Y-72987142D02*
X135633571Y-73058571D01*
X135919285Y-73058571D01*
X136062142Y-72987142D01*
X136133571Y-72844285D01*
X136133571Y-72272857D01*
X136062142Y-72130000D01*
X135919285Y-72058571D01*
X135633571Y-72058571D01*
X135490714Y-72130000D01*
X135419285Y-72272857D01*
X135419285Y-72415714D01*
X136133571Y-72558571D01*
X133847857Y-71558571D02*
X133347857Y-73058571D01*
X132847857Y-71558571D01*
X131562142Y-73058571D02*
X132419285Y-73058571D01*
X131990714Y-73058571D02*
X131990714Y-71558571D01*
X132133571Y-71772857D01*
X132276428Y-71915714D01*
X132419285Y-71987142D01*
X154955000Y-74822857D02*
X154740714Y-74894285D01*
X154669285Y-74965714D01*
X154597857Y-75108571D01*
X154597857Y-75322857D01*
X154669285Y-75465714D01*
X154740714Y-75537142D01*
X154883571Y-75608571D01*
X155455000Y-75608571D01*
X155455000Y-74108571D01*
X154955000Y-74108571D01*
X154812142Y-74180000D01*
X154740714Y-74251428D01*
X154669285Y-74394285D01*
X154669285Y-74537142D01*
X154740714Y-74680000D01*
X154812142Y-74751428D01*
X154955000Y-74822857D01*
X155455000Y-74822857D01*
X153955000Y-75608571D02*
X153955000Y-74608571D01*
X153955000Y-74894285D02*
X153883571Y-74751428D01*
X153812142Y-74680000D01*
X153669285Y-74608571D01*
X153526428Y-74608571D01*
X153169285Y-74608571D02*
X152812142Y-75608571D01*
X152455000Y-74608571D02*
X152812142Y-75608571D01*
X152955000Y-75965714D01*
X153026428Y-76037142D01*
X153169285Y-76108571D01*
X151240714Y-75608571D02*
X151240714Y-74822857D01*
X151312142Y-74680000D01*
X151455000Y-74608571D01*
X151740714Y-74608571D01*
X151883571Y-74680000D01*
X151240714Y-75537142D02*
X151383571Y-75608571D01*
X151740714Y-75608571D01*
X151883571Y-75537142D01*
X151955000Y-75394285D01*
X151955000Y-75251428D01*
X151883571Y-75108571D01*
X151740714Y-75037142D01*
X151383571Y-75037142D01*
X151240714Y-74965714D01*
X150526428Y-74608571D02*
X150526428Y-75608571D01*
X150526428Y-74751428D02*
X150455000Y-74680000D01*
X150312142Y-74608571D01*
X150097857Y-74608571D01*
X149955000Y-74680000D01*
X149883571Y-74822857D01*
X149883571Y-75608571D01*
X147740714Y-74108571D02*
X147455000Y-74108571D01*
X147312142Y-74180000D01*
X147169285Y-74322857D01*
X147097857Y-74608571D01*
X147097857Y-75108571D01*
X147169285Y-75394285D01*
X147312142Y-75537142D01*
X147455000Y-75608571D01*
X147740714Y-75608571D01*
X147883571Y-75537142D01*
X148026428Y-75394285D01*
X148097857Y-75108571D01*
X148097857Y-74608571D01*
X148026428Y-74322857D01*
X147883571Y-74180000D01*
X147740714Y-74108571D01*
X146455000Y-75608571D02*
X146455000Y-74608571D01*
X146455000Y-74894285D02*
X146383571Y-74751428D01*
X146312142Y-74680000D01*
X146169285Y-74608571D01*
X146026428Y-74608571D01*
X144883571Y-75608571D02*
X144883571Y-74822857D01*
X144955000Y-74680000D01*
X145097857Y-74608571D01*
X145383571Y-74608571D01*
X145526428Y-74680000D01*
X144883571Y-75537142D02*
X145026428Y-75608571D01*
X145383571Y-75608571D01*
X145526428Y-75537142D01*
X145597857Y-75394285D01*
X145597857Y-75251428D01*
X145526428Y-75108571D01*
X145383571Y-75037142D01*
X145026428Y-75037142D01*
X144883571Y-74965714D01*
X144169285Y-75608571D02*
X144169285Y-74108571D01*
X144169285Y-74680000D02*
X144026428Y-74608571D01*
X143740714Y-74608571D01*
X143597857Y-74680000D01*
X143526428Y-74751428D01*
X143455000Y-74894285D01*
X143455000Y-75322857D01*
X143526428Y-75465714D01*
X143597857Y-75537142D01*
X143740714Y-75608571D01*
X144026428Y-75608571D01*
X144169285Y-75537142D01*
X142169285Y-74608571D02*
X142169285Y-75608571D01*
X142812142Y-74608571D02*
X142812142Y-75394285D01*
X142740714Y-75537142D01*
X142597857Y-75608571D01*
X142383571Y-75608571D01*
X142240714Y-75537142D01*
X142169285Y-75465714D01*
X141669285Y-74608571D02*
X141097857Y-74608571D01*
X141455000Y-74108571D02*
X141455000Y-75394285D01*
X141383571Y-75537142D01*
X141240714Y-75608571D01*
X141097857Y-75608571D01*
X140812142Y-74608571D02*
X140240714Y-74608571D01*
X140597857Y-74108571D02*
X140597857Y-75394285D01*
X140526428Y-75537142D01*
X140383571Y-75608571D01*
X140240714Y-75608571D01*
X150526428Y-76801428D02*
X150455000Y-76730000D01*
X150312142Y-76658571D01*
X149955000Y-76658571D01*
X149812142Y-76730000D01*
X149740714Y-76801428D01*
X149669285Y-76944285D01*
X149669285Y-77087142D01*
X149740714Y-77301428D01*
X150597857Y-78158571D01*
X149669285Y-78158571D01*
X148740714Y-76658571D02*
X148597857Y-76658571D01*
X148455000Y-76730000D01*
X148383571Y-76801428D01*
X148312142Y-76944285D01*
X148240714Y-77230000D01*
X148240714Y-77587142D01*
X148312142Y-77872857D01*
X148383571Y-78015714D01*
X148455000Y-78087142D01*
X148597857Y-78158571D01*
X148740714Y-78158571D01*
X148883571Y-78087142D01*
X148955000Y-78015714D01*
X149026428Y-77872857D01*
X149097857Y-77587142D01*
X149097857Y-77230000D01*
X149026428Y-76944285D01*
X148955000Y-76801428D01*
X148883571Y-76730000D01*
X148740714Y-76658571D01*
X146812142Y-78158571D02*
X147669285Y-78158571D01*
X147240714Y-78158571D02*
X147240714Y-76658571D01*
X147383571Y-76872857D01*
X147526428Y-77015714D01*
X147669285Y-77087142D01*
X146097857Y-78158571D02*
X145812142Y-78158571D01*
X145669285Y-78087142D01*
X145597857Y-78015714D01*
X145455000Y-77801428D01*
X145383571Y-77515714D01*
X145383571Y-76944285D01*
X145455000Y-76801428D01*
X145526428Y-76730000D01*
X145669285Y-76658571D01*
X145955000Y-76658571D01*
X146097857Y-76730000D01*
X146169285Y-76801428D01*
X146240714Y-76944285D01*
X146240714Y-77301428D01*
X146169285Y-77444285D01*
X146097857Y-77515714D01*
X145955000Y-77587142D01*
X145669285Y-77587142D01*
X145526428Y-77515714D01*
X145455000Y-77444285D01*
X145383571Y-77301428D01*
M02*
