%TF.GenerationSoftware,KiCad,Pcbnew,(5.0.1)-3*%
%TF.CreationDate,2019-10-12T21:06:36-05:00*%
%TF.ProjectId,pet_feeder,7065745F6665656465722E6B69636164,rev?*%
%TF.SameCoordinates,Original*%
%TF.FileFunction,Soldermask,Top*%
%TF.FilePolarity,Negative*%
%FSLAX46Y46*%
G04 Gerber Fmt 4.6, Leading zero omitted, Abs format (unit mm)*
G04 Created by KiCad (PCBNEW (5.0.1)-3) date 10/12/2019 9:06:36 PM*
%MOMM*%
%LPD*%
G01*
G04 APERTURE LIST*
%ADD10C,0.100000*%
G04 APERTURE END LIST*
D10*
G36*
X129846565Y-98739389D02*
X130037834Y-98818615D01*
X130209976Y-98933637D01*
X130356363Y-99080024D01*
X130471385Y-99252166D01*
X130550611Y-99443435D01*
X130591000Y-99646484D01*
X130591000Y-99853516D01*
X130550611Y-100056565D01*
X130471385Y-100247834D01*
X130356363Y-100419976D01*
X130209976Y-100566363D01*
X130037834Y-100681385D01*
X129846565Y-100760611D01*
X129643516Y-100801000D01*
X129436484Y-100801000D01*
X129233435Y-100760611D01*
X129042166Y-100681385D01*
X128870024Y-100566363D01*
X128723637Y-100419976D01*
X128608615Y-100247834D01*
X128529389Y-100056565D01*
X128489000Y-99853516D01*
X128489000Y-99646484D01*
X128529389Y-99443435D01*
X128608615Y-99252166D01*
X128723637Y-99080024D01*
X128870024Y-98933637D01*
X129042166Y-98818615D01*
X129233435Y-98739389D01*
X129436484Y-98699000D01*
X129643516Y-98699000D01*
X129846565Y-98739389D01*
X129846565Y-98739389D01*
G37*
G36*
X136346565Y-98739389D02*
X136537834Y-98818615D01*
X136709976Y-98933637D01*
X136856363Y-99080024D01*
X136971385Y-99252166D01*
X137050611Y-99443435D01*
X137091000Y-99646484D01*
X137091000Y-99853516D01*
X137050611Y-100056565D01*
X136971385Y-100247834D01*
X136856363Y-100419976D01*
X136709976Y-100566363D01*
X136537834Y-100681385D01*
X136346565Y-100760611D01*
X136143516Y-100801000D01*
X135936484Y-100801000D01*
X135733435Y-100760611D01*
X135542166Y-100681385D01*
X135370024Y-100566363D01*
X135223637Y-100419976D01*
X135108615Y-100247834D01*
X135029389Y-100056565D01*
X134989000Y-99853516D01*
X134989000Y-99646484D01*
X135029389Y-99443435D01*
X135108615Y-99252166D01*
X135223637Y-99080024D01*
X135370024Y-98933637D01*
X135542166Y-98818615D01*
X135733435Y-98739389D01*
X135936484Y-98699000D01*
X136143516Y-98699000D01*
X136346565Y-98739389D01*
X136346565Y-98739389D01*
G37*
G36*
X142506000Y-96786000D02*
X140704000Y-96786000D01*
X140704000Y-94984000D01*
X142506000Y-94984000D01*
X142506000Y-96786000D01*
X142506000Y-96786000D01*
G37*
G36*
X146795443Y-94990519D02*
X146861627Y-94997037D01*
X146974853Y-95031384D01*
X147031467Y-95048557D01*
X147170087Y-95122652D01*
X147187991Y-95132222D01*
X147223729Y-95161552D01*
X147325186Y-95244814D01*
X147408448Y-95346271D01*
X147437778Y-95382009D01*
X147437779Y-95382011D01*
X147521443Y-95538533D01*
X147521443Y-95538534D01*
X147572963Y-95708373D01*
X147590359Y-95885000D01*
X147572963Y-96061627D01*
X147538616Y-96174853D01*
X147521443Y-96231467D01*
X147505865Y-96260611D01*
X147437778Y-96387991D01*
X147408448Y-96423729D01*
X147325186Y-96525186D01*
X147223729Y-96608448D01*
X147187991Y-96637778D01*
X147187989Y-96637779D01*
X147031467Y-96721443D01*
X146974853Y-96738616D01*
X146861627Y-96772963D01*
X146795442Y-96779482D01*
X146729260Y-96786000D01*
X146640740Y-96786000D01*
X146574558Y-96779482D01*
X146508373Y-96772963D01*
X146395147Y-96738616D01*
X146338533Y-96721443D01*
X146182011Y-96637779D01*
X146182009Y-96637778D01*
X146146271Y-96608448D01*
X146044814Y-96525186D01*
X145961552Y-96423729D01*
X145932222Y-96387991D01*
X145864135Y-96260611D01*
X145848557Y-96231467D01*
X145831384Y-96174853D01*
X145797037Y-96061627D01*
X145779641Y-95885000D01*
X145797037Y-95708373D01*
X145848557Y-95538534D01*
X145848557Y-95538533D01*
X145932221Y-95382011D01*
X145932222Y-95382009D01*
X145961552Y-95346271D01*
X146044814Y-95244814D01*
X146146271Y-95161552D01*
X146182009Y-95132222D01*
X146199913Y-95122652D01*
X146338533Y-95048557D01*
X146395147Y-95031384D01*
X146508373Y-94997037D01*
X146574557Y-94990519D01*
X146640740Y-94984000D01*
X146729260Y-94984000D01*
X146795443Y-94990519D01*
X146795443Y-94990519D01*
G37*
G36*
X149335443Y-94990519D02*
X149401627Y-94997037D01*
X149514853Y-95031384D01*
X149571467Y-95048557D01*
X149710087Y-95122652D01*
X149727991Y-95132222D01*
X149763729Y-95161552D01*
X149865186Y-95244814D01*
X149948448Y-95346271D01*
X149977778Y-95382009D01*
X149977779Y-95382011D01*
X150061443Y-95538533D01*
X150061443Y-95538534D01*
X150112963Y-95708373D01*
X150130359Y-95885000D01*
X150112963Y-96061627D01*
X150078616Y-96174853D01*
X150061443Y-96231467D01*
X150045865Y-96260611D01*
X149977778Y-96387991D01*
X149948448Y-96423729D01*
X149865186Y-96525186D01*
X149763729Y-96608448D01*
X149727991Y-96637778D01*
X149727989Y-96637779D01*
X149571467Y-96721443D01*
X149514853Y-96738616D01*
X149401627Y-96772963D01*
X149335442Y-96779482D01*
X149269260Y-96786000D01*
X149180740Y-96786000D01*
X149114558Y-96779482D01*
X149048373Y-96772963D01*
X148935147Y-96738616D01*
X148878533Y-96721443D01*
X148722011Y-96637779D01*
X148722009Y-96637778D01*
X148686271Y-96608448D01*
X148584814Y-96525186D01*
X148501552Y-96423729D01*
X148472222Y-96387991D01*
X148404135Y-96260611D01*
X148388557Y-96231467D01*
X148371384Y-96174853D01*
X148337037Y-96061627D01*
X148319641Y-95885000D01*
X148337037Y-95708373D01*
X148388557Y-95538534D01*
X148388557Y-95538533D01*
X148472221Y-95382011D01*
X148472222Y-95382009D01*
X148501552Y-95346271D01*
X148584814Y-95244814D01*
X148686271Y-95161552D01*
X148722009Y-95132222D01*
X148739913Y-95122652D01*
X148878533Y-95048557D01*
X148935147Y-95031384D01*
X149048373Y-94997037D01*
X149114557Y-94990519D01*
X149180740Y-94984000D01*
X149269260Y-94984000D01*
X149335443Y-94990519D01*
X149335443Y-94990519D01*
G37*
G36*
X144255443Y-94990519D02*
X144321627Y-94997037D01*
X144434853Y-95031384D01*
X144491467Y-95048557D01*
X144630087Y-95122652D01*
X144647991Y-95132222D01*
X144683729Y-95161552D01*
X144785186Y-95244814D01*
X144868448Y-95346271D01*
X144897778Y-95382009D01*
X144897779Y-95382011D01*
X144981443Y-95538533D01*
X144981443Y-95538534D01*
X145032963Y-95708373D01*
X145050359Y-95885000D01*
X145032963Y-96061627D01*
X144998616Y-96174853D01*
X144981443Y-96231467D01*
X144965865Y-96260611D01*
X144897778Y-96387991D01*
X144868448Y-96423729D01*
X144785186Y-96525186D01*
X144683729Y-96608448D01*
X144647991Y-96637778D01*
X144647989Y-96637779D01*
X144491467Y-96721443D01*
X144434853Y-96738616D01*
X144321627Y-96772963D01*
X144255442Y-96779482D01*
X144189260Y-96786000D01*
X144100740Y-96786000D01*
X144034558Y-96779482D01*
X143968373Y-96772963D01*
X143855147Y-96738616D01*
X143798533Y-96721443D01*
X143642011Y-96637779D01*
X143642009Y-96637778D01*
X143606271Y-96608448D01*
X143504814Y-96525186D01*
X143421552Y-96423729D01*
X143392222Y-96387991D01*
X143324135Y-96260611D01*
X143308557Y-96231467D01*
X143291384Y-96174853D01*
X143257037Y-96061627D01*
X143239641Y-95885000D01*
X143257037Y-95708373D01*
X143308557Y-95538534D01*
X143308557Y-95538533D01*
X143392221Y-95382011D01*
X143392222Y-95382009D01*
X143421552Y-95346271D01*
X143504814Y-95244814D01*
X143606271Y-95161552D01*
X143642009Y-95132222D01*
X143659913Y-95122652D01*
X143798533Y-95048557D01*
X143855147Y-95031384D01*
X143968373Y-94997037D01*
X144034557Y-94990519D01*
X144100740Y-94984000D01*
X144189260Y-94984000D01*
X144255443Y-94990519D01*
X144255443Y-94990519D01*
G37*
G36*
X136346565Y-94239389D02*
X136537834Y-94318615D01*
X136709976Y-94433637D01*
X136856363Y-94580024D01*
X136971385Y-94752166D01*
X137050611Y-94943435D01*
X137091000Y-95146484D01*
X137091000Y-95353516D01*
X137050611Y-95556565D01*
X136971385Y-95747834D01*
X136856363Y-95919976D01*
X136709976Y-96066363D01*
X136537834Y-96181385D01*
X136346565Y-96260611D01*
X136143516Y-96301000D01*
X135936484Y-96301000D01*
X135733435Y-96260611D01*
X135542166Y-96181385D01*
X135370024Y-96066363D01*
X135223637Y-95919976D01*
X135108615Y-95747834D01*
X135029389Y-95556565D01*
X134989000Y-95353516D01*
X134989000Y-95146484D01*
X135029389Y-94943435D01*
X135108615Y-94752166D01*
X135223637Y-94580024D01*
X135370024Y-94433637D01*
X135542166Y-94318615D01*
X135733435Y-94239389D01*
X135936484Y-94199000D01*
X136143516Y-94199000D01*
X136346565Y-94239389D01*
X136346565Y-94239389D01*
G37*
G36*
X129846565Y-94239389D02*
X130037834Y-94318615D01*
X130209976Y-94433637D01*
X130356363Y-94580024D01*
X130471385Y-94752166D01*
X130550611Y-94943435D01*
X130591000Y-95146484D01*
X130591000Y-95353516D01*
X130550611Y-95556565D01*
X130471385Y-95747834D01*
X130356363Y-95919976D01*
X130209976Y-96066363D01*
X130037834Y-96181385D01*
X129846565Y-96260611D01*
X129643516Y-96301000D01*
X129436484Y-96301000D01*
X129233435Y-96260611D01*
X129042166Y-96181385D01*
X128870024Y-96066363D01*
X128723637Y-95919976D01*
X128608615Y-95747834D01*
X128529389Y-95556565D01*
X128489000Y-95353516D01*
X128489000Y-95146484D01*
X128529389Y-94943435D01*
X128608615Y-94752166D01*
X128723637Y-94580024D01*
X128870024Y-94433637D01*
X129042166Y-94318615D01*
X129233435Y-94239389D01*
X129436484Y-94199000D01*
X129643516Y-94199000D01*
X129846565Y-94239389D01*
X129846565Y-94239389D01*
G37*
G36*
X157082442Y-93593518D02*
X157148627Y-93600037D01*
X157261853Y-93634384D01*
X157318467Y-93651557D01*
X157457087Y-93725652D01*
X157474991Y-93735222D01*
X157510729Y-93764552D01*
X157612186Y-93847814D01*
X157695448Y-93949271D01*
X157724778Y-93985009D01*
X157724779Y-93985011D01*
X157808443Y-94141533D01*
X157808443Y-94141534D01*
X157859963Y-94311373D01*
X157877359Y-94488000D01*
X157859963Y-94664627D01*
X157833409Y-94752165D01*
X157808443Y-94834467D01*
X157734348Y-94973087D01*
X157724778Y-94990991D01*
X157719816Y-94997037D01*
X157612186Y-95128186D01*
X157510729Y-95211448D01*
X157474991Y-95240778D01*
X157474989Y-95240779D01*
X157318467Y-95324443D01*
X157261853Y-95341616D01*
X157148627Y-95375963D01*
X157082443Y-95382481D01*
X157016260Y-95389000D01*
X156927740Y-95389000D01*
X156861557Y-95382481D01*
X156795373Y-95375963D01*
X156682147Y-95341616D01*
X156625533Y-95324443D01*
X156469011Y-95240779D01*
X156469009Y-95240778D01*
X156433271Y-95211448D01*
X156331814Y-95128186D01*
X156224184Y-94997037D01*
X156219222Y-94990991D01*
X156209652Y-94973087D01*
X156135557Y-94834467D01*
X156110591Y-94752165D01*
X156084037Y-94664627D01*
X156066641Y-94488000D01*
X156084037Y-94311373D01*
X156135557Y-94141534D01*
X156135557Y-94141533D01*
X156219221Y-93985011D01*
X156219222Y-93985009D01*
X156248552Y-93949271D01*
X156331814Y-93847814D01*
X156433271Y-93764552D01*
X156469009Y-93735222D01*
X156486913Y-93725652D01*
X156625533Y-93651557D01*
X156682147Y-93634384D01*
X156795373Y-93600037D01*
X156861557Y-93593519D01*
X156927740Y-93587000D01*
X157016260Y-93587000D01*
X157082442Y-93593518D01*
X157082442Y-93593518D01*
G37*
G36*
X154542442Y-93593518D02*
X154608627Y-93600037D01*
X154721853Y-93634384D01*
X154778467Y-93651557D01*
X154917087Y-93725652D01*
X154934991Y-93735222D01*
X154970729Y-93764552D01*
X155072186Y-93847814D01*
X155155448Y-93949271D01*
X155184778Y-93985009D01*
X155184779Y-93985011D01*
X155268443Y-94141533D01*
X155268443Y-94141534D01*
X155319963Y-94311373D01*
X155337359Y-94488000D01*
X155319963Y-94664627D01*
X155293409Y-94752165D01*
X155268443Y-94834467D01*
X155194348Y-94973087D01*
X155184778Y-94990991D01*
X155179816Y-94997037D01*
X155072186Y-95128186D01*
X154970729Y-95211448D01*
X154934991Y-95240778D01*
X154934989Y-95240779D01*
X154778467Y-95324443D01*
X154721853Y-95341616D01*
X154608627Y-95375963D01*
X154542443Y-95382481D01*
X154476260Y-95389000D01*
X154387740Y-95389000D01*
X154321557Y-95382481D01*
X154255373Y-95375963D01*
X154142147Y-95341616D01*
X154085533Y-95324443D01*
X153929011Y-95240779D01*
X153929009Y-95240778D01*
X153893271Y-95211448D01*
X153791814Y-95128186D01*
X153684184Y-94997037D01*
X153679222Y-94990991D01*
X153669652Y-94973087D01*
X153595557Y-94834467D01*
X153570591Y-94752165D01*
X153544037Y-94664627D01*
X153526641Y-94488000D01*
X153544037Y-94311373D01*
X153595557Y-94141534D01*
X153595557Y-94141533D01*
X153679221Y-93985011D01*
X153679222Y-93985009D01*
X153708552Y-93949271D01*
X153791814Y-93847814D01*
X153893271Y-93764552D01*
X153929009Y-93735222D01*
X153946913Y-93725652D01*
X154085533Y-93651557D01*
X154142147Y-93634384D01*
X154255373Y-93600037D01*
X154321557Y-93593519D01*
X154387740Y-93587000D01*
X154476260Y-93587000D01*
X154542442Y-93593518D01*
X154542442Y-93593518D01*
G37*
G36*
X159622442Y-93593518D02*
X159688627Y-93600037D01*
X159801853Y-93634384D01*
X159858467Y-93651557D01*
X159997087Y-93725652D01*
X160014991Y-93735222D01*
X160050729Y-93764552D01*
X160152186Y-93847814D01*
X160235448Y-93949271D01*
X160264778Y-93985009D01*
X160264779Y-93985011D01*
X160348443Y-94141533D01*
X160348443Y-94141534D01*
X160399963Y-94311373D01*
X160417359Y-94488000D01*
X160399963Y-94664627D01*
X160373409Y-94752165D01*
X160348443Y-94834467D01*
X160274348Y-94973087D01*
X160264778Y-94990991D01*
X160259816Y-94997037D01*
X160152186Y-95128186D01*
X160050729Y-95211448D01*
X160014991Y-95240778D01*
X160014989Y-95240779D01*
X159858467Y-95324443D01*
X159801853Y-95341616D01*
X159688627Y-95375963D01*
X159622443Y-95382481D01*
X159556260Y-95389000D01*
X159467740Y-95389000D01*
X159401557Y-95382481D01*
X159335373Y-95375963D01*
X159222147Y-95341616D01*
X159165533Y-95324443D01*
X159009011Y-95240779D01*
X159009009Y-95240778D01*
X158973271Y-95211448D01*
X158871814Y-95128186D01*
X158764184Y-94997037D01*
X158759222Y-94990991D01*
X158749652Y-94973087D01*
X158675557Y-94834467D01*
X158650591Y-94752165D01*
X158624037Y-94664627D01*
X158606641Y-94488000D01*
X158624037Y-94311373D01*
X158675557Y-94141534D01*
X158675557Y-94141533D01*
X158759221Y-93985011D01*
X158759222Y-93985009D01*
X158788552Y-93949271D01*
X158871814Y-93847814D01*
X158973271Y-93764552D01*
X159009009Y-93735222D01*
X159026913Y-93725652D01*
X159165533Y-93651557D01*
X159222147Y-93634384D01*
X159335373Y-93600037D01*
X159401557Y-93593519D01*
X159467740Y-93587000D01*
X159556260Y-93587000D01*
X159622442Y-93593518D01*
X159622442Y-93593518D01*
G37*
G36*
X162953000Y-95389000D02*
X161151000Y-95389000D01*
X161151000Y-93587000D01*
X162953000Y-93587000D01*
X162953000Y-95389000D01*
X162953000Y-95389000D01*
G37*
G36*
X132647000Y-93132000D02*
X131045000Y-93132000D01*
X131045000Y-91780000D01*
X132647000Y-91780000D01*
X132647000Y-93132000D01*
X132647000Y-93132000D01*
G37*
G36*
X135147000Y-93132000D02*
X133545000Y-93132000D01*
X133545000Y-91780000D01*
X135147000Y-91780000D01*
X135147000Y-93132000D01*
X135147000Y-93132000D01*
G37*
G36*
X159611000Y-91833000D02*
X158009000Y-91833000D01*
X158009000Y-90031000D01*
X159611000Y-90031000D01*
X159611000Y-91833000D01*
X159611000Y-91833000D01*
G37*
G36*
X156951000Y-91833000D02*
X155349000Y-91833000D01*
X155349000Y-90031000D01*
X156951000Y-90031000D01*
X156951000Y-91833000D01*
X156951000Y-91833000D01*
G37*
G36*
X127110443Y-89275519D02*
X127176627Y-89282037D01*
X127289853Y-89316384D01*
X127346467Y-89333557D01*
X127485087Y-89407652D01*
X127502991Y-89417222D01*
X127538729Y-89446552D01*
X127640186Y-89529814D01*
X127723448Y-89631271D01*
X127752778Y-89667009D01*
X127752779Y-89667011D01*
X127836443Y-89823533D01*
X127836443Y-89823534D01*
X127887963Y-89993373D01*
X127905359Y-90170000D01*
X127887963Y-90346627D01*
X127853616Y-90459853D01*
X127836443Y-90516467D01*
X127762348Y-90655087D01*
X127752778Y-90672991D01*
X127746205Y-90681000D01*
X127640186Y-90810186D01*
X127538729Y-90893448D01*
X127502991Y-90922778D01*
X127502989Y-90922779D01*
X127346467Y-91006443D01*
X127289853Y-91023616D01*
X127176627Y-91057963D01*
X127110442Y-91064482D01*
X127044260Y-91071000D01*
X126955740Y-91071000D01*
X126889558Y-91064482D01*
X126823373Y-91057963D01*
X126710147Y-91023616D01*
X126653533Y-91006443D01*
X126497011Y-90922779D01*
X126497009Y-90922778D01*
X126461271Y-90893448D01*
X126359814Y-90810186D01*
X126253795Y-90681000D01*
X126247222Y-90672991D01*
X126237652Y-90655087D01*
X126163557Y-90516467D01*
X126146384Y-90459853D01*
X126112037Y-90346627D01*
X126094641Y-90170000D01*
X126112037Y-89993373D01*
X126163557Y-89823534D01*
X126163557Y-89823533D01*
X126247221Y-89667011D01*
X126247222Y-89667009D01*
X126276552Y-89631271D01*
X126359814Y-89529814D01*
X126461271Y-89446552D01*
X126497009Y-89417222D01*
X126514913Y-89407652D01*
X126653533Y-89333557D01*
X126710147Y-89316384D01*
X126823373Y-89282037D01*
X126889557Y-89275519D01*
X126955740Y-89269000D01*
X127044260Y-89269000D01*
X127110443Y-89275519D01*
X127110443Y-89275519D01*
G37*
G36*
X138931000Y-90316000D02*
X137929000Y-90316000D01*
X137929000Y-88214000D01*
X138931000Y-88214000D01*
X138931000Y-90316000D01*
X138931000Y-90316000D01*
G37*
G36*
X141471000Y-90316000D02*
X140469000Y-90316000D01*
X140469000Y-88214000D01*
X141471000Y-88214000D01*
X141471000Y-90316000D01*
X141471000Y-90316000D01*
G37*
G36*
X142741000Y-90316000D02*
X141739000Y-90316000D01*
X141739000Y-88214000D01*
X142741000Y-88214000D01*
X142741000Y-90316000D01*
X142741000Y-90316000D01*
G37*
G36*
X147821000Y-90316000D02*
X146819000Y-90316000D01*
X146819000Y-88214000D01*
X147821000Y-88214000D01*
X147821000Y-90316000D01*
X147821000Y-90316000D01*
G37*
G36*
X144011000Y-90316000D02*
X143009000Y-90316000D01*
X143009000Y-88214000D01*
X144011000Y-88214000D01*
X144011000Y-90316000D01*
X144011000Y-90316000D01*
G37*
G36*
X146551000Y-90316000D02*
X145549000Y-90316000D01*
X145549000Y-88214000D01*
X146551000Y-88214000D01*
X146551000Y-90316000D01*
X146551000Y-90316000D01*
G37*
G36*
X149091000Y-90316000D02*
X148089000Y-90316000D01*
X148089000Y-88214000D01*
X149091000Y-88214000D01*
X149091000Y-90316000D01*
X149091000Y-90316000D01*
G37*
G36*
X140201000Y-90316000D02*
X139199000Y-90316000D01*
X139199000Y-88214000D01*
X140201000Y-88214000D01*
X140201000Y-90316000D01*
X140201000Y-90316000D01*
G37*
G36*
X150361000Y-90316000D02*
X149359000Y-90316000D01*
X149359000Y-88214000D01*
X150361000Y-88214000D01*
X150361000Y-90316000D01*
X150361000Y-90316000D01*
G37*
G36*
X145281000Y-90316000D02*
X144279000Y-90316000D01*
X144279000Y-88214000D01*
X145281000Y-88214000D01*
X145281000Y-90316000D01*
X145281000Y-90316000D01*
G37*
G36*
X136696000Y-88766000D02*
X134594000Y-88766000D01*
X134594000Y-87764000D01*
X136696000Y-87764000D01*
X136696000Y-88766000D01*
X136696000Y-88766000D01*
G37*
G36*
X153696000Y-88766000D02*
X151594000Y-88766000D01*
X151594000Y-87764000D01*
X153696000Y-87764000D01*
X153696000Y-88766000D01*
X153696000Y-88766000D01*
G37*
G36*
X131143000Y-88560000D02*
X129541000Y-88560000D01*
X129541000Y-87208000D01*
X131143000Y-87208000D01*
X131143000Y-88560000D01*
X131143000Y-88560000D01*
G37*
G36*
X133643000Y-88560000D02*
X132041000Y-88560000D01*
X132041000Y-87208000D01*
X133643000Y-87208000D01*
X133643000Y-88560000D01*
X133643000Y-88560000D01*
G37*
G36*
X127901000Y-88531000D02*
X126099000Y-88531000D01*
X126099000Y-86729000D01*
X127901000Y-86729000D01*
X127901000Y-88531000D01*
X127901000Y-88531000D01*
G37*
G36*
X153696000Y-87496000D02*
X151594000Y-87496000D01*
X151594000Y-86494000D01*
X153696000Y-86494000D01*
X153696000Y-87496000D01*
X153696000Y-87496000D01*
G37*
G36*
X136696000Y-87496000D02*
X134594000Y-87496000D01*
X134594000Y-86494000D01*
X136696000Y-86494000D01*
X136696000Y-87496000D01*
X136696000Y-87496000D01*
G37*
G36*
X133623000Y-86528000D02*
X132021000Y-86528000D01*
X132021000Y-85176000D01*
X133623000Y-85176000D01*
X133623000Y-86528000D01*
X133623000Y-86528000D01*
G37*
G36*
X131123000Y-86528000D02*
X129521000Y-86528000D01*
X129521000Y-85176000D01*
X131123000Y-85176000D01*
X131123000Y-86528000D01*
X131123000Y-86528000D01*
G37*
G36*
X163178443Y-84576519D02*
X163244627Y-84583037D01*
X163357853Y-84617384D01*
X163414467Y-84634557D01*
X163553087Y-84708652D01*
X163570991Y-84718222D01*
X163606729Y-84747552D01*
X163708186Y-84830814D01*
X163791448Y-84932271D01*
X163820778Y-84968009D01*
X163820779Y-84968011D01*
X163904443Y-85124533D01*
X163904443Y-85124534D01*
X163955963Y-85294373D01*
X163973359Y-85471000D01*
X163955963Y-85647627D01*
X163921616Y-85760853D01*
X163904443Y-85817467D01*
X163830348Y-85956087D01*
X163820778Y-85973991D01*
X163791448Y-86009729D01*
X163708186Y-86111186D01*
X163606729Y-86194448D01*
X163570991Y-86223778D01*
X163570989Y-86223779D01*
X163414467Y-86307443D01*
X163357853Y-86324616D01*
X163244627Y-86358963D01*
X163178443Y-86365481D01*
X163112260Y-86372000D01*
X163023740Y-86372000D01*
X162957557Y-86365481D01*
X162891373Y-86358963D01*
X162778147Y-86324616D01*
X162721533Y-86307443D01*
X162565011Y-86223779D01*
X162565009Y-86223778D01*
X162529271Y-86194448D01*
X162427814Y-86111186D01*
X162344552Y-86009729D01*
X162315222Y-85973991D01*
X162305652Y-85956087D01*
X162231557Y-85817467D01*
X162214384Y-85760853D01*
X162180037Y-85647627D01*
X162162641Y-85471000D01*
X162180037Y-85294373D01*
X162231557Y-85124534D01*
X162231557Y-85124533D01*
X162315221Y-84968011D01*
X162315222Y-84968009D01*
X162344552Y-84932271D01*
X162427814Y-84830814D01*
X162529271Y-84747552D01*
X162565009Y-84718222D01*
X162582913Y-84708652D01*
X162721533Y-84634557D01*
X162778147Y-84617384D01*
X162891373Y-84583037D01*
X162957557Y-84576519D01*
X163023740Y-84570000D01*
X163112260Y-84570000D01*
X163178443Y-84576519D01*
X163178443Y-84576519D01*
G37*
G36*
X158733443Y-84576519D02*
X158799627Y-84583037D01*
X158912853Y-84617384D01*
X158969467Y-84634557D01*
X159108087Y-84708652D01*
X159125991Y-84718222D01*
X159161729Y-84747552D01*
X159263186Y-84830814D01*
X159346448Y-84932271D01*
X159375778Y-84968009D01*
X159375779Y-84968011D01*
X159459443Y-85124533D01*
X159459443Y-85124534D01*
X159510963Y-85294373D01*
X159528359Y-85471000D01*
X159510963Y-85647627D01*
X159476616Y-85760853D01*
X159459443Y-85817467D01*
X159385348Y-85956087D01*
X159375778Y-85973991D01*
X159346448Y-86009729D01*
X159263186Y-86111186D01*
X159161729Y-86194448D01*
X159125991Y-86223778D01*
X159125989Y-86223779D01*
X158969467Y-86307443D01*
X158912853Y-86324616D01*
X158799627Y-86358963D01*
X158733443Y-86365481D01*
X158667260Y-86372000D01*
X158578740Y-86372000D01*
X158512557Y-86365481D01*
X158446373Y-86358963D01*
X158333147Y-86324616D01*
X158276533Y-86307443D01*
X158120011Y-86223779D01*
X158120009Y-86223778D01*
X158084271Y-86194448D01*
X157982814Y-86111186D01*
X157899552Y-86009729D01*
X157870222Y-85973991D01*
X157860652Y-85956087D01*
X157786557Y-85817467D01*
X157769384Y-85760853D01*
X157735037Y-85647627D01*
X157717641Y-85471000D01*
X157735037Y-85294373D01*
X157786557Y-85124534D01*
X157786557Y-85124533D01*
X157870221Y-84968011D01*
X157870222Y-84968009D01*
X157899552Y-84932271D01*
X157982814Y-84830814D01*
X158084271Y-84747552D01*
X158120009Y-84718222D01*
X158137913Y-84708652D01*
X158276533Y-84634557D01*
X158333147Y-84617384D01*
X158446373Y-84583037D01*
X158512557Y-84576519D01*
X158578740Y-84570000D01*
X158667260Y-84570000D01*
X158733443Y-84576519D01*
X158733443Y-84576519D01*
G37*
G36*
X136696000Y-86226000D02*
X134594000Y-86226000D01*
X134594000Y-85224000D01*
X136696000Y-85224000D01*
X136696000Y-86226000D01*
X136696000Y-86226000D01*
G37*
G36*
X153696000Y-86226000D02*
X151594000Y-86226000D01*
X151594000Y-85224000D01*
X153696000Y-85224000D01*
X153696000Y-86226000D01*
X153696000Y-86226000D01*
G37*
G36*
X153696000Y-84956000D02*
X151594000Y-84956000D01*
X151594000Y-83954000D01*
X153696000Y-83954000D01*
X153696000Y-84956000D01*
X153696000Y-84956000D01*
G37*
G36*
X136696000Y-84956000D02*
X134594000Y-84956000D01*
X134594000Y-83954000D01*
X136696000Y-83954000D01*
X136696000Y-84956000D01*
X136696000Y-84956000D01*
G37*
G36*
X127406000Y-84211000D02*
X125804000Y-84211000D01*
X125804000Y-82109000D01*
X127406000Y-82109000D01*
X127406000Y-84211000D01*
X127406000Y-84211000D01*
G37*
G36*
X129706000Y-84211000D02*
X128104000Y-84211000D01*
X128104000Y-82109000D01*
X129706000Y-82109000D01*
X129706000Y-84211000D01*
X129706000Y-84211000D01*
G37*
G36*
X132006000Y-84211000D02*
X130404000Y-84211000D01*
X130404000Y-82109000D01*
X132006000Y-82109000D01*
X132006000Y-84211000D01*
X132006000Y-84211000D01*
G37*
G36*
X158733442Y-82036518D02*
X158799627Y-82043037D01*
X158912853Y-82077384D01*
X158969467Y-82094557D01*
X159108087Y-82168652D01*
X159125991Y-82178222D01*
X159161729Y-82207552D01*
X159263186Y-82290814D01*
X159346448Y-82392271D01*
X159375778Y-82428009D01*
X159375779Y-82428011D01*
X159459443Y-82584533D01*
X159459443Y-82584534D01*
X159510963Y-82754373D01*
X159528359Y-82931000D01*
X159510963Y-83107627D01*
X159476616Y-83220853D01*
X159459443Y-83277467D01*
X159385348Y-83416087D01*
X159375778Y-83433991D01*
X159346448Y-83469729D01*
X159263186Y-83571186D01*
X159161729Y-83654448D01*
X159125991Y-83683778D01*
X159125989Y-83683779D01*
X158969467Y-83767443D01*
X158912853Y-83784616D01*
X158799627Y-83818963D01*
X158733442Y-83825482D01*
X158667260Y-83832000D01*
X158578740Y-83832000D01*
X158512558Y-83825482D01*
X158446373Y-83818963D01*
X158333147Y-83784616D01*
X158276533Y-83767443D01*
X158120011Y-83683779D01*
X158120009Y-83683778D01*
X158084271Y-83654448D01*
X157982814Y-83571186D01*
X157899552Y-83469729D01*
X157870222Y-83433991D01*
X157860652Y-83416087D01*
X157786557Y-83277467D01*
X157769384Y-83220853D01*
X157735037Y-83107627D01*
X157717641Y-82931000D01*
X157735037Y-82754373D01*
X157786557Y-82584534D01*
X157786557Y-82584533D01*
X157870221Y-82428011D01*
X157870222Y-82428009D01*
X157899552Y-82392271D01*
X157982814Y-82290814D01*
X158084271Y-82207552D01*
X158120009Y-82178222D01*
X158137913Y-82168652D01*
X158276533Y-82094557D01*
X158333147Y-82077384D01*
X158446373Y-82043037D01*
X158512558Y-82036518D01*
X158578740Y-82030000D01*
X158667260Y-82030000D01*
X158733442Y-82036518D01*
X158733442Y-82036518D01*
G37*
G36*
X163178442Y-82036518D02*
X163244627Y-82043037D01*
X163357853Y-82077384D01*
X163414467Y-82094557D01*
X163553087Y-82168652D01*
X163570991Y-82178222D01*
X163606729Y-82207552D01*
X163708186Y-82290814D01*
X163791448Y-82392271D01*
X163820778Y-82428009D01*
X163820779Y-82428011D01*
X163904443Y-82584533D01*
X163904443Y-82584534D01*
X163955963Y-82754373D01*
X163973359Y-82931000D01*
X163955963Y-83107627D01*
X163921616Y-83220853D01*
X163904443Y-83277467D01*
X163830348Y-83416087D01*
X163820778Y-83433991D01*
X163791448Y-83469729D01*
X163708186Y-83571186D01*
X163606729Y-83654448D01*
X163570991Y-83683778D01*
X163570989Y-83683779D01*
X163414467Y-83767443D01*
X163357853Y-83784616D01*
X163244627Y-83818963D01*
X163178442Y-83825482D01*
X163112260Y-83832000D01*
X163023740Y-83832000D01*
X162957558Y-83825482D01*
X162891373Y-83818963D01*
X162778147Y-83784616D01*
X162721533Y-83767443D01*
X162565011Y-83683779D01*
X162565009Y-83683778D01*
X162529271Y-83654448D01*
X162427814Y-83571186D01*
X162344552Y-83469729D01*
X162315222Y-83433991D01*
X162305652Y-83416087D01*
X162231557Y-83277467D01*
X162214384Y-83220853D01*
X162180037Y-83107627D01*
X162162641Y-82931000D01*
X162180037Y-82754373D01*
X162231557Y-82584534D01*
X162231557Y-82584533D01*
X162315221Y-82428011D01*
X162315222Y-82428009D01*
X162344552Y-82392271D01*
X162427814Y-82290814D01*
X162529271Y-82207552D01*
X162565009Y-82178222D01*
X162582913Y-82168652D01*
X162721533Y-82094557D01*
X162778147Y-82077384D01*
X162891373Y-82043037D01*
X162957558Y-82036518D01*
X163023740Y-82030000D01*
X163112260Y-82030000D01*
X163178442Y-82036518D01*
X163178442Y-82036518D01*
G37*
G36*
X136696000Y-83686000D02*
X134594000Y-83686000D01*
X134594000Y-82684000D01*
X136696000Y-82684000D01*
X136696000Y-83686000D01*
X136696000Y-83686000D01*
G37*
G36*
X153696000Y-83686000D02*
X151594000Y-83686000D01*
X151594000Y-82684000D01*
X153696000Y-82684000D01*
X153696000Y-83686000D01*
X153696000Y-83686000D01*
G37*
G36*
X153696000Y-82416000D02*
X151594000Y-82416000D01*
X151594000Y-81414000D01*
X153696000Y-81414000D01*
X153696000Y-82416000D01*
X153696000Y-82416000D01*
G37*
G36*
X136696000Y-82416000D02*
X134594000Y-82416000D01*
X134594000Y-81414000D01*
X136696000Y-81414000D01*
X136696000Y-82416000D01*
X136696000Y-82416000D01*
G37*
G36*
X145696000Y-81806000D02*
X140594000Y-81806000D01*
X140594000Y-76704000D01*
X145696000Y-76704000D01*
X145696000Y-81806000D01*
X145696000Y-81806000D01*
G37*
G36*
X159524000Y-81292000D02*
X157722000Y-81292000D01*
X157722000Y-79490000D01*
X159524000Y-79490000D01*
X159524000Y-81292000D01*
X159524000Y-81292000D01*
G37*
G36*
X163969000Y-81292000D02*
X162167000Y-81292000D01*
X162167000Y-79490000D01*
X163969000Y-79490000D01*
X163969000Y-81292000D01*
X163969000Y-81292000D01*
G37*
G36*
X153696000Y-81146000D02*
X151594000Y-81146000D01*
X151594000Y-80144000D01*
X153696000Y-80144000D01*
X153696000Y-81146000D01*
X153696000Y-81146000D01*
G37*
G36*
X136696000Y-81146000D02*
X134594000Y-81146000D01*
X134594000Y-80144000D01*
X136696000Y-80144000D01*
X136696000Y-81146000D01*
X136696000Y-81146000D01*
G37*
G36*
X153696000Y-79876000D02*
X151594000Y-79876000D01*
X151594000Y-78874000D01*
X153696000Y-78874000D01*
X153696000Y-79876000D01*
X153696000Y-79876000D01*
G37*
G36*
X136696000Y-79876000D02*
X134594000Y-79876000D01*
X134594000Y-78874000D01*
X136696000Y-78874000D01*
X136696000Y-79876000D01*
X136696000Y-79876000D01*
G37*
G36*
X136696000Y-78606000D02*
X134594000Y-78606000D01*
X134594000Y-77604000D01*
X136696000Y-77604000D01*
X136696000Y-78606000D01*
X136696000Y-78606000D01*
G37*
G36*
X153696000Y-78606000D02*
X151594000Y-78606000D01*
X151594000Y-77604000D01*
X153696000Y-77604000D01*
X153696000Y-78606000D01*
X153696000Y-78606000D01*
G37*
G36*
X130856000Y-77911000D02*
X126954000Y-77911000D01*
X126954000Y-75809000D01*
X130856000Y-75809000D01*
X130856000Y-77911000D01*
X130856000Y-77911000D01*
G37*
G36*
X153696000Y-77336000D02*
X151594000Y-77336000D01*
X151594000Y-76334000D01*
X153696000Y-76334000D01*
X153696000Y-77336000D01*
X153696000Y-77336000D01*
G37*
G36*
X136696000Y-77336000D02*
X134594000Y-77336000D01*
X134594000Y-76334000D01*
X136696000Y-76334000D01*
X136696000Y-77336000D01*
X136696000Y-77336000D01*
G37*
G36*
X136696000Y-76066000D02*
X134594000Y-76066000D01*
X134594000Y-75064000D01*
X136696000Y-75064000D01*
X136696000Y-76066000D01*
X136696000Y-76066000D01*
G37*
G36*
X153696000Y-76066000D02*
X151594000Y-76066000D01*
X151594000Y-75064000D01*
X153696000Y-75064000D01*
X153696000Y-76066000D01*
X153696000Y-76066000D01*
G37*
G36*
X162405000Y-75831000D02*
X160803000Y-75831000D01*
X160803000Y-74029000D01*
X162405000Y-74029000D01*
X162405000Y-75831000D01*
X162405000Y-75831000D01*
G37*
G36*
X159745000Y-75831000D02*
X158143000Y-75831000D01*
X158143000Y-74029000D01*
X159745000Y-74029000D01*
X159745000Y-75831000D01*
X159745000Y-75831000D01*
G37*
G36*
X131232000Y-75203000D02*
X129880000Y-75203000D01*
X129880000Y-73601000D01*
X131232000Y-73601000D01*
X131232000Y-75203000D01*
X131232000Y-75203000D01*
G37*
G36*
X133264000Y-75203000D02*
X131912000Y-75203000D01*
X131912000Y-73601000D01*
X133264000Y-73601000D01*
X133264000Y-75203000D01*
X133264000Y-75203000D01*
G37*
G36*
X136696000Y-74796000D02*
X134594000Y-74796000D01*
X134594000Y-73794000D01*
X136696000Y-73794000D01*
X136696000Y-74796000D01*
X136696000Y-74796000D01*
G37*
G36*
X153696000Y-74796000D02*
X151594000Y-74796000D01*
X151594000Y-73794000D01*
X153696000Y-73794000D01*
X153696000Y-74796000D01*
X153696000Y-74796000D01*
G37*
G36*
X136696000Y-73526000D02*
X134594000Y-73526000D01*
X134594000Y-72524000D01*
X136696000Y-72524000D01*
X136696000Y-73526000D01*
X136696000Y-73526000D01*
G37*
G36*
X153696000Y-73526000D02*
X151594000Y-73526000D01*
X151594000Y-72524000D01*
X153696000Y-72524000D01*
X153696000Y-73526000D01*
X153696000Y-73526000D01*
G37*
G36*
X131232000Y-72703000D02*
X129880000Y-72703000D01*
X129880000Y-71101000D01*
X131232000Y-71101000D01*
X131232000Y-72703000D01*
X131232000Y-72703000D01*
G37*
G36*
X133264000Y-72703000D02*
X131912000Y-72703000D01*
X131912000Y-71101000D01*
X133264000Y-71101000D01*
X133264000Y-72703000D01*
X133264000Y-72703000D01*
G37*
G36*
X153696000Y-72256000D02*
X151594000Y-72256000D01*
X151594000Y-71254000D01*
X153696000Y-71254000D01*
X153696000Y-72256000D01*
X153696000Y-72256000D01*
G37*
G36*
X136696000Y-72256000D02*
X134594000Y-72256000D01*
X134594000Y-71254000D01*
X136696000Y-71254000D01*
X136696000Y-72256000D01*
X136696000Y-72256000D01*
G37*
M02*
