%TF.GenerationSoftware,KiCad,Pcbnew,5.1.4*%
%TF.CreationDate,2019-10-29T20:04:43-05:00*%
%TF.ProjectId,pet_feeder,7065745f-6665-4656-9465-722e6b696361,rev?*%
%TF.SameCoordinates,Original*%
%TF.FileFunction,Soldermask,Top*%
%TF.FilePolarity,Negative*%
%FSLAX46Y46*%
G04 Gerber Fmt 4.6, Leading zero omitted, Abs format (unit mm)*
G04 Created by KiCad (PCBNEW 5.1.4) date 2019-10-29 20:04:43*
%MOMM*%
%LPD*%
G04 APERTURE LIST*
%ADD10C,0.100000*%
G04 APERTURE END LIST*
D10*
G36*
X136346564Y-106994389D02*
G01*
X136537833Y-107073615D01*
X136537835Y-107073616D01*
X136709973Y-107188635D01*
X136856365Y-107335027D01*
X136971385Y-107507167D01*
X137050611Y-107698436D01*
X137091000Y-107901484D01*
X137091000Y-108108516D01*
X137050611Y-108311564D01*
X136971385Y-108502833D01*
X136971384Y-108502835D01*
X136856365Y-108674973D01*
X136709973Y-108821365D01*
X136537835Y-108936384D01*
X136537834Y-108936385D01*
X136537833Y-108936385D01*
X136346564Y-109015611D01*
X136143516Y-109056000D01*
X135936484Y-109056000D01*
X135733436Y-109015611D01*
X135542167Y-108936385D01*
X135542166Y-108936385D01*
X135542165Y-108936384D01*
X135370027Y-108821365D01*
X135223635Y-108674973D01*
X135108616Y-108502835D01*
X135108615Y-108502833D01*
X135029389Y-108311564D01*
X134989000Y-108108516D01*
X134989000Y-107901484D01*
X135029389Y-107698436D01*
X135108615Y-107507167D01*
X135223635Y-107335027D01*
X135370027Y-107188635D01*
X135542165Y-107073616D01*
X135542167Y-107073615D01*
X135733436Y-106994389D01*
X135936484Y-106954000D01*
X136143516Y-106954000D01*
X136346564Y-106994389D01*
X136346564Y-106994389D01*
G37*
G36*
X129846564Y-106994389D02*
G01*
X130037833Y-107073615D01*
X130037835Y-107073616D01*
X130209973Y-107188635D01*
X130356365Y-107335027D01*
X130471385Y-107507167D01*
X130550611Y-107698436D01*
X130591000Y-107901484D01*
X130591000Y-108108516D01*
X130550611Y-108311564D01*
X130471385Y-108502833D01*
X130471384Y-108502835D01*
X130356365Y-108674973D01*
X130209973Y-108821365D01*
X130037835Y-108936384D01*
X130037834Y-108936385D01*
X130037833Y-108936385D01*
X129846564Y-109015611D01*
X129643516Y-109056000D01*
X129436484Y-109056000D01*
X129233436Y-109015611D01*
X129042167Y-108936385D01*
X129042166Y-108936385D01*
X129042165Y-108936384D01*
X128870027Y-108821365D01*
X128723635Y-108674973D01*
X128608616Y-108502835D01*
X128608615Y-108502833D01*
X128529389Y-108311564D01*
X128489000Y-108108516D01*
X128489000Y-107901484D01*
X128529389Y-107698436D01*
X128608615Y-107507167D01*
X128723635Y-107335027D01*
X128870027Y-107188635D01*
X129042165Y-107073616D01*
X129042167Y-107073615D01*
X129233436Y-106994389D01*
X129436484Y-106954000D01*
X129643516Y-106954000D01*
X129846564Y-106994389D01*
X129846564Y-106994389D01*
G37*
G36*
X125796000Y-107561000D02*
G01*
X124394000Y-107561000D01*
X124394000Y-105959000D01*
X125796000Y-105959000D01*
X125796000Y-107561000D01*
X125796000Y-107561000D01*
G37*
G36*
X141721000Y-104891000D02*
G01*
X140219000Y-104891000D01*
X140219000Y-103389000D01*
X141721000Y-103389000D01*
X141721000Y-104891000D01*
X141721000Y-104891000D01*
G37*
G36*
X146186730Y-103401484D02*
G01*
X146269059Y-103417860D01*
X146405732Y-103474472D01*
X146528735Y-103556660D01*
X146633340Y-103661265D01*
X146715528Y-103784268D01*
X146715529Y-103784270D01*
X146772140Y-103920941D01*
X146801000Y-104066032D01*
X146801000Y-104213968D01*
X146772140Y-104359059D01*
X146740111Y-104436385D01*
X146715528Y-104495732D01*
X146633340Y-104618735D01*
X146528735Y-104723340D01*
X146405732Y-104805528D01*
X146405731Y-104805529D01*
X146405730Y-104805529D01*
X146269059Y-104862140D01*
X146123968Y-104891000D01*
X145976032Y-104891000D01*
X145830941Y-104862140D01*
X145694270Y-104805529D01*
X145694269Y-104805529D01*
X145694268Y-104805528D01*
X145571265Y-104723340D01*
X145466660Y-104618735D01*
X145384472Y-104495732D01*
X145359890Y-104436385D01*
X145327860Y-104359059D01*
X145299000Y-104213968D01*
X145299000Y-104066032D01*
X145327860Y-103920941D01*
X145384471Y-103784270D01*
X145384472Y-103784268D01*
X145466660Y-103661265D01*
X145571265Y-103556660D01*
X145694268Y-103474472D01*
X145830941Y-103417860D01*
X145913270Y-103401484D01*
X145976032Y-103389000D01*
X146123968Y-103389000D01*
X146186730Y-103401484D01*
X146186730Y-103401484D01*
G37*
G36*
X154441730Y-103401484D02*
G01*
X154524059Y-103417860D01*
X154660732Y-103474472D01*
X154783735Y-103556660D01*
X154888340Y-103661265D01*
X154970528Y-103784268D01*
X154970529Y-103784270D01*
X155027140Y-103920941D01*
X155056000Y-104066032D01*
X155056000Y-104213968D01*
X155027140Y-104359059D01*
X154995111Y-104436385D01*
X154970528Y-104495732D01*
X154888340Y-104618735D01*
X154783735Y-104723340D01*
X154660732Y-104805528D01*
X154660731Y-104805529D01*
X154660730Y-104805529D01*
X154524059Y-104862140D01*
X154378968Y-104891000D01*
X154231032Y-104891000D01*
X154085941Y-104862140D01*
X153949270Y-104805529D01*
X153949269Y-104805529D01*
X153949268Y-104805528D01*
X153826265Y-104723340D01*
X153721660Y-104618735D01*
X153639472Y-104495732D01*
X153614890Y-104436385D01*
X153582860Y-104359059D01*
X153554000Y-104213968D01*
X153554000Y-104066032D01*
X153582860Y-103920941D01*
X153639471Y-103784270D01*
X153639472Y-103784268D01*
X153721660Y-103661265D01*
X153826265Y-103556660D01*
X153949268Y-103474472D01*
X154085941Y-103417860D01*
X154168270Y-103401484D01*
X154231032Y-103389000D01*
X154378968Y-103389000D01*
X154441730Y-103401484D01*
X154441730Y-103401484D01*
G37*
G36*
X149976000Y-104891000D02*
G01*
X148474000Y-104891000D01*
X148474000Y-103389000D01*
X149976000Y-103389000D01*
X149976000Y-104891000D01*
X149976000Y-104891000D01*
G37*
G36*
X158596000Y-104883000D02*
G01*
X157044000Y-104883000D01*
X157044000Y-102381000D01*
X158596000Y-102381000D01*
X158596000Y-104883000D01*
X158596000Y-104883000D01*
G37*
G36*
X162996000Y-104883000D02*
G01*
X161444000Y-104883000D01*
X161444000Y-102381000D01*
X162996000Y-102381000D01*
X162996000Y-104883000D01*
X162996000Y-104883000D01*
G37*
G36*
X125796000Y-104861000D02*
G01*
X124394000Y-104861000D01*
X124394000Y-103259000D01*
X125796000Y-103259000D01*
X125796000Y-104861000D01*
X125796000Y-104861000D01*
G37*
G36*
X129846564Y-102494389D02*
G01*
X130037833Y-102573615D01*
X130037835Y-102573616D01*
X130209973Y-102688635D01*
X130356365Y-102835027D01*
X130421829Y-102933000D01*
X130471385Y-103007167D01*
X130550611Y-103198436D01*
X130591000Y-103401484D01*
X130591000Y-103608516D01*
X130550611Y-103811564D01*
X130471385Y-104002833D01*
X130471384Y-104002835D01*
X130356365Y-104174973D01*
X130209973Y-104321365D01*
X130037835Y-104436384D01*
X130037834Y-104436385D01*
X130037833Y-104436385D01*
X129846564Y-104515611D01*
X129643516Y-104556000D01*
X129436484Y-104556000D01*
X129233436Y-104515611D01*
X129042167Y-104436385D01*
X129042166Y-104436385D01*
X129042165Y-104436384D01*
X128870027Y-104321365D01*
X128723635Y-104174973D01*
X128608616Y-104002835D01*
X128608615Y-104002833D01*
X128529389Y-103811564D01*
X128489000Y-103608516D01*
X128489000Y-103401484D01*
X128529389Y-103198436D01*
X128608615Y-103007167D01*
X128658172Y-102933000D01*
X128723635Y-102835027D01*
X128870027Y-102688635D01*
X129042165Y-102573616D01*
X129042167Y-102573615D01*
X129233436Y-102494389D01*
X129436484Y-102454000D01*
X129643516Y-102454000D01*
X129846564Y-102494389D01*
X129846564Y-102494389D01*
G37*
G36*
X136346564Y-102494389D02*
G01*
X136537833Y-102573615D01*
X136537835Y-102573616D01*
X136709973Y-102688635D01*
X136856365Y-102835027D01*
X136921829Y-102933000D01*
X136971385Y-103007167D01*
X137050611Y-103198436D01*
X137091000Y-103401484D01*
X137091000Y-103608516D01*
X137050611Y-103811564D01*
X136971385Y-104002833D01*
X136971384Y-104002835D01*
X136856365Y-104174973D01*
X136709973Y-104321365D01*
X136537835Y-104436384D01*
X136537834Y-104436385D01*
X136537833Y-104436385D01*
X136346564Y-104515611D01*
X136143516Y-104556000D01*
X135936484Y-104556000D01*
X135733436Y-104515611D01*
X135542167Y-104436385D01*
X135542166Y-104436385D01*
X135542165Y-104436384D01*
X135370027Y-104321365D01*
X135223635Y-104174973D01*
X135108616Y-104002835D01*
X135108615Y-104002833D01*
X135029389Y-103811564D01*
X134989000Y-103608516D01*
X134989000Y-103401484D01*
X135029389Y-103198436D01*
X135108615Y-103007167D01*
X135158172Y-102933000D01*
X135223635Y-102835027D01*
X135370027Y-102688635D01*
X135542165Y-102573616D01*
X135542167Y-102573615D01*
X135733436Y-102494389D01*
X135936484Y-102454000D01*
X136143516Y-102454000D01*
X136346564Y-102494389D01*
X136346564Y-102494389D01*
G37*
G36*
X151984059Y-100877860D02*
G01*
X152120732Y-100934472D01*
X152243735Y-101016660D01*
X152348340Y-101121265D01*
X152430528Y-101244268D01*
X152487140Y-101380941D01*
X152516000Y-101526033D01*
X152516000Y-101673967D01*
X152487140Y-101819059D01*
X152430528Y-101955732D01*
X152348340Y-102078735D01*
X152243735Y-102183340D01*
X152120732Y-102265528D01*
X152120731Y-102265529D01*
X152120730Y-102265529D01*
X151984059Y-102322140D01*
X151838968Y-102351000D01*
X151691032Y-102351000D01*
X151545941Y-102322140D01*
X151409270Y-102265529D01*
X151409269Y-102265529D01*
X151409268Y-102265528D01*
X151286265Y-102183340D01*
X151181660Y-102078735D01*
X151099472Y-101955732D01*
X151042860Y-101819059D01*
X151014000Y-101673967D01*
X151014000Y-101526033D01*
X151042860Y-101380941D01*
X151099472Y-101244268D01*
X151181660Y-101121265D01*
X151286265Y-101016660D01*
X151409268Y-100934472D01*
X151545941Y-100877860D01*
X151691032Y-100849000D01*
X151838968Y-100849000D01*
X151984059Y-100877860D01*
X151984059Y-100877860D01*
G37*
G36*
X143729059Y-100877860D02*
G01*
X143865732Y-100934472D01*
X143988735Y-101016660D01*
X144093340Y-101121265D01*
X144175528Y-101244268D01*
X144232140Y-101380941D01*
X144261000Y-101526033D01*
X144261000Y-101673967D01*
X144232140Y-101819059D01*
X144175528Y-101955732D01*
X144093340Y-102078735D01*
X143988735Y-102183340D01*
X143865732Y-102265528D01*
X143865731Y-102265529D01*
X143865730Y-102265529D01*
X143729059Y-102322140D01*
X143583968Y-102351000D01*
X143436032Y-102351000D01*
X143290941Y-102322140D01*
X143154270Y-102265529D01*
X143154269Y-102265529D01*
X143154268Y-102265528D01*
X143031265Y-102183340D01*
X142926660Y-102078735D01*
X142844472Y-101955732D01*
X142787860Y-101819059D01*
X142759000Y-101673967D01*
X142759000Y-101526033D01*
X142787860Y-101380941D01*
X142844472Y-101244268D01*
X142926660Y-101121265D01*
X143031265Y-101016660D01*
X143154268Y-100934472D01*
X143290941Y-100877860D01*
X143436032Y-100849000D01*
X143583968Y-100849000D01*
X143729059Y-100877860D01*
X143729059Y-100877860D01*
G37*
G36*
X125644000Y-101111000D02*
G01*
X124292000Y-101111000D01*
X124292000Y-99509000D01*
X125644000Y-99509000D01*
X125644000Y-101111000D01*
X125644000Y-101111000D01*
G37*
G36*
X136346564Y-98739389D02*
G01*
X136537833Y-98818615D01*
X136537835Y-98818616D01*
X136701523Y-98927989D01*
X136709973Y-98933635D01*
X136856365Y-99080027D01*
X136971385Y-99252167D01*
X137050611Y-99443436D01*
X137091000Y-99646484D01*
X137091000Y-99853516D01*
X137050611Y-100056564D01*
X136971385Y-100247833D01*
X136971384Y-100247835D01*
X136856365Y-100419973D01*
X136709973Y-100566365D01*
X136537835Y-100681384D01*
X136537834Y-100681385D01*
X136537833Y-100681385D01*
X136346564Y-100760611D01*
X136143516Y-100801000D01*
X135936484Y-100801000D01*
X135733436Y-100760611D01*
X135542167Y-100681385D01*
X135542166Y-100681385D01*
X135542165Y-100681384D01*
X135370027Y-100566365D01*
X135223635Y-100419973D01*
X135108616Y-100247835D01*
X135108615Y-100247833D01*
X135029389Y-100056564D01*
X134989000Y-99853516D01*
X134989000Y-99646484D01*
X135029389Y-99443436D01*
X135108615Y-99252167D01*
X135223635Y-99080027D01*
X135370027Y-98933635D01*
X135378477Y-98927989D01*
X135542165Y-98818616D01*
X135542167Y-98818615D01*
X135733436Y-98739389D01*
X135936484Y-98699000D01*
X136143516Y-98699000D01*
X136346564Y-98739389D01*
X136346564Y-98739389D01*
G37*
G36*
X129846564Y-98739389D02*
G01*
X130037833Y-98818615D01*
X130037835Y-98818616D01*
X130201523Y-98927989D01*
X130209973Y-98933635D01*
X130356365Y-99080027D01*
X130471385Y-99252167D01*
X130550611Y-99443436D01*
X130591000Y-99646484D01*
X130591000Y-99853516D01*
X130550611Y-100056564D01*
X130471385Y-100247833D01*
X130471384Y-100247835D01*
X130356365Y-100419973D01*
X130209973Y-100566365D01*
X130037835Y-100681384D01*
X130037834Y-100681385D01*
X130037833Y-100681385D01*
X129846564Y-100760611D01*
X129643516Y-100801000D01*
X129436484Y-100801000D01*
X129233436Y-100760611D01*
X129042167Y-100681385D01*
X129042166Y-100681385D01*
X129042165Y-100681384D01*
X128870027Y-100566365D01*
X128723635Y-100419973D01*
X128608616Y-100247835D01*
X128608615Y-100247833D01*
X128529389Y-100056564D01*
X128489000Y-99853516D01*
X128489000Y-99646484D01*
X128529389Y-99443436D01*
X128608615Y-99252167D01*
X128723635Y-99080027D01*
X128870027Y-98933635D01*
X128878477Y-98927989D01*
X129042165Y-98818616D01*
X129042167Y-98818615D01*
X129233436Y-98739389D01*
X129436484Y-98699000D01*
X129643516Y-98699000D01*
X129846564Y-98739389D01*
X129846564Y-98739389D01*
G37*
G36*
X163940442Y-97530518D02*
G01*
X164006627Y-97537037D01*
X164176466Y-97588557D01*
X164332991Y-97672222D01*
X164368729Y-97701552D01*
X164470186Y-97784814D01*
X164553448Y-97886271D01*
X164582778Y-97922009D01*
X164666443Y-98078534D01*
X164717963Y-98248373D01*
X164735359Y-98425000D01*
X164717963Y-98601627D01*
X164666443Y-98771466D01*
X164582778Y-98927991D01*
X164578146Y-98933635D01*
X164470186Y-99065186D01*
X164368729Y-99148448D01*
X164332991Y-99177778D01*
X164176466Y-99261443D01*
X164006627Y-99312963D01*
X163940442Y-99319482D01*
X163874260Y-99326000D01*
X163785740Y-99326000D01*
X163719557Y-99319481D01*
X163653373Y-99312963D01*
X163483534Y-99261443D01*
X163327009Y-99177778D01*
X163291271Y-99148448D01*
X163189814Y-99065186D01*
X163081854Y-98933635D01*
X163077222Y-98927991D01*
X162993557Y-98771466D01*
X162942037Y-98601627D01*
X162924641Y-98425000D01*
X162942037Y-98248373D01*
X162993557Y-98078534D01*
X163077222Y-97922009D01*
X163106552Y-97886271D01*
X163189814Y-97784814D01*
X163291271Y-97701552D01*
X163327009Y-97672222D01*
X163483534Y-97588557D01*
X163653373Y-97537037D01*
X163719558Y-97530518D01*
X163785740Y-97524000D01*
X163874260Y-97524000D01*
X163940442Y-97530518D01*
X163940442Y-97530518D01*
G37*
G36*
X125644000Y-98611000D02*
G01*
X124292000Y-98611000D01*
X124292000Y-97009000D01*
X125644000Y-97009000D01*
X125644000Y-98611000D01*
X125644000Y-98611000D01*
G37*
G36*
X163940443Y-94990519D02*
G01*
X164006627Y-94997037D01*
X164176466Y-95048557D01*
X164332991Y-95132222D01*
X164368729Y-95161552D01*
X164470186Y-95244814D01*
X164553448Y-95346271D01*
X164582778Y-95382009D01*
X164666443Y-95538534D01*
X164717963Y-95708373D01*
X164735359Y-95885000D01*
X164717963Y-96061627D01*
X164666443Y-96231466D01*
X164582778Y-96387991D01*
X164553448Y-96423729D01*
X164470186Y-96525186D01*
X164368729Y-96608448D01*
X164332991Y-96637778D01*
X164176466Y-96721443D01*
X164006627Y-96772963D01*
X163940442Y-96779482D01*
X163874260Y-96786000D01*
X163785740Y-96786000D01*
X163719558Y-96779482D01*
X163653373Y-96772963D01*
X163483534Y-96721443D01*
X163327009Y-96637778D01*
X163291271Y-96608448D01*
X163189814Y-96525186D01*
X163106552Y-96423729D01*
X163077222Y-96387991D01*
X162993557Y-96231466D01*
X162942037Y-96061627D01*
X162924641Y-95885000D01*
X162942037Y-95708373D01*
X162993557Y-95538534D01*
X163077222Y-95382009D01*
X163106552Y-95346271D01*
X163189814Y-95244814D01*
X163291271Y-95161552D01*
X163327009Y-95132222D01*
X163483534Y-95048557D01*
X163653373Y-94997037D01*
X163719557Y-94990519D01*
X163785740Y-94984000D01*
X163874260Y-94984000D01*
X163940443Y-94990519D01*
X163940443Y-94990519D01*
G37*
G36*
X142506000Y-96786000D02*
G01*
X140704000Y-96786000D01*
X140704000Y-94984000D01*
X142506000Y-94984000D01*
X142506000Y-96786000D01*
X142506000Y-96786000D01*
G37*
G36*
X144255443Y-94990519D02*
G01*
X144321627Y-94997037D01*
X144491466Y-95048557D01*
X144647991Y-95132222D01*
X144683729Y-95161552D01*
X144785186Y-95244814D01*
X144868448Y-95346271D01*
X144897778Y-95382009D01*
X144981443Y-95538534D01*
X145032963Y-95708373D01*
X145050359Y-95885000D01*
X145032963Y-96061627D01*
X144981443Y-96231466D01*
X144897778Y-96387991D01*
X144868448Y-96423729D01*
X144785186Y-96525186D01*
X144683729Y-96608448D01*
X144647991Y-96637778D01*
X144491466Y-96721443D01*
X144321627Y-96772963D01*
X144255442Y-96779482D01*
X144189260Y-96786000D01*
X144100740Y-96786000D01*
X144034558Y-96779482D01*
X143968373Y-96772963D01*
X143798534Y-96721443D01*
X143642009Y-96637778D01*
X143606271Y-96608448D01*
X143504814Y-96525186D01*
X143421552Y-96423729D01*
X143392222Y-96387991D01*
X143308557Y-96231466D01*
X143257037Y-96061627D01*
X143239641Y-95885000D01*
X143257037Y-95708373D01*
X143308557Y-95538534D01*
X143392222Y-95382009D01*
X143421552Y-95346271D01*
X143504814Y-95244814D01*
X143606271Y-95161552D01*
X143642009Y-95132222D01*
X143798534Y-95048557D01*
X143968373Y-94997037D01*
X144034557Y-94990519D01*
X144100740Y-94984000D01*
X144189260Y-94984000D01*
X144255443Y-94990519D01*
X144255443Y-94990519D01*
G37*
G36*
X146795443Y-94990519D02*
G01*
X146861627Y-94997037D01*
X147031466Y-95048557D01*
X147187991Y-95132222D01*
X147223729Y-95161552D01*
X147325186Y-95244814D01*
X147408448Y-95346271D01*
X147437778Y-95382009D01*
X147521443Y-95538534D01*
X147572963Y-95708373D01*
X147590359Y-95885000D01*
X147572963Y-96061627D01*
X147521443Y-96231466D01*
X147437778Y-96387991D01*
X147408448Y-96423729D01*
X147325186Y-96525186D01*
X147223729Y-96608448D01*
X147187991Y-96637778D01*
X147031466Y-96721443D01*
X146861627Y-96772963D01*
X146795442Y-96779482D01*
X146729260Y-96786000D01*
X146640740Y-96786000D01*
X146574558Y-96779482D01*
X146508373Y-96772963D01*
X146338534Y-96721443D01*
X146182009Y-96637778D01*
X146146271Y-96608448D01*
X146044814Y-96525186D01*
X145961552Y-96423729D01*
X145932222Y-96387991D01*
X145848557Y-96231466D01*
X145797037Y-96061627D01*
X145779641Y-95885000D01*
X145797037Y-95708373D01*
X145848557Y-95538534D01*
X145932222Y-95382009D01*
X145961552Y-95346271D01*
X146044814Y-95244814D01*
X146146271Y-95161552D01*
X146182009Y-95132222D01*
X146338534Y-95048557D01*
X146508373Y-94997037D01*
X146574557Y-94990519D01*
X146640740Y-94984000D01*
X146729260Y-94984000D01*
X146795443Y-94990519D01*
X146795443Y-94990519D01*
G37*
G36*
X149335443Y-94990519D02*
G01*
X149401627Y-94997037D01*
X149571466Y-95048557D01*
X149727991Y-95132222D01*
X149763729Y-95161552D01*
X149865186Y-95244814D01*
X149948448Y-95346271D01*
X149977778Y-95382009D01*
X150061443Y-95538534D01*
X150112963Y-95708373D01*
X150130359Y-95885000D01*
X150112963Y-96061627D01*
X150061443Y-96231466D01*
X149977778Y-96387991D01*
X149948448Y-96423729D01*
X149865186Y-96525186D01*
X149763729Y-96608448D01*
X149727991Y-96637778D01*
X149571466Y-96721443D01*
X149401627Y-96772963D01*
X149335442Y-96779482D01*
X149269260Y-96786000D01*
X149180740Y-96786000D01*
X149114558Y-96779482D01*
X149048373Y-96772963D01*
X148878534Y-96721443D01*
X148722009Y-96637778D01*
X148686271Y-96608448D01*
X148584814Y-96525186D01*
X148501552Y-96423729D01*
X148472222Y-96387991D01*
X148388557Y-96231466D01*
X148337037Y-96061627D01*
X148319641Y-95885000D01*
X148337037Y-95708373D01*
X148388557Y-95538534D01*
X148472222Y-95382009D01*
X148501552Y-95346271D01*
X148584814Y-95244814D01*
X148686271Y-95161552D01*
X148722009Y-95132222D01*
X148878534Y-95048557D01*
X149048373Y-94997037D01*
X149114557Y-94990519D01*
X149180740Y-94984000D01*
X149269260Y-94984000D01*
X149335443Y-94990519D01*
X149335443Y-94990519D01*
G37*
G36*
X136346564Y-94239389D02*
G01*
X136537833Y-94318615D01*
X136537835Y-94318616D01*
X136709973Y-94433635D01*
X136856365Y-94580027D01*
X136971385Y-94752167D01*
X137050611Y-94943436D01*
X137091000Y-95146484D01*
X137091000Y-95353516D01*
X137050611Y-95556564D01*
X136987730Y-95708373D01*
X136971384Y-95747835D01*
X136856365Y-95919973D01*
X136709973Y-96066365D01*
X136537835Y-96181384D01*
X136537834Y-96181385D01*
X136537833Y-96181385D01*
X136346564Y-96260611D01*
X136143516Y-96301000D01*
X135936484Y-96301000D01*
X135733436Y-96260611D01*
X135542167Y-96181385D01*
X135542166Y-96181385D01*
X135542165Y-96181384D01*
X135370027Y-96066365D01*
X135223635Y-95919973D01*
X135108616Y-95747835D01*
X135092270Y-95708373D01*
X135029389Y-95556564D01*
X134989000Y-95353516D01*
X134989000Y-95146484D01*
X135029389Y-94943436D01*
X135108615Y-94752167D01*
X135223635Y-94580027D01*
X135370027Y-94433635D01*
X135542165Y-94318616D01*
X135542167Y-94318615D01*
X135733436Y-94239389D01*
X135936484Y-94199000D01*
X136143516Y-94199000D01*
X136346564Y-94239389D01*
X136346564Y-94239389D01*
G37*
G36*
X129846564Y-94239389D02*
G01*
X130037833Y-94318615D01*
X130037835Y-94318616D01*
X130209973Y-94433635D01*
X130356365Y-94580027D01*
X130471385Y-94752167D01*
X130550611Y-94943436D01*
X130591000Y-95146484D01*
X130591000Y-95353516D01*
X130550611Y-95556564D01*
X130487730Y-95708373D01*
X130471384Y-95747835D01*
X130356365Y-95919973D01*
X130209973Y-96066365D01*
X130037835Y-96181384D01*
X130037834Y-96181385D01*
X130037833Y-96181385D01*
X129846564Y-96260611D01*
X129643516Y-96301000D01*
X129436484Y-96301000D01*
X129233436Y-96260611D01*
X129042167Y-96181385D01*
X129042166Y-96181385D01*
X129042165Y-96181384D01*
X128870027Y-96066365D01*
X128723635Y-95919973D01*
X128608616Y-95747835D01*
X128592270Y-95708373D01*
X128529389Y-95556564D01*
X128489000Y-95353516D01*
X128489000Y-95146484D01*
X128529389Y-94943436D01*
X128608615Y-94752167D01*
X128723635Y-94580027D01*
X128870027Y-94433635D01*
X129042165Y-94318616D01*
X129042167Y-94318615D01*
X129233436Y-94239389D01*
X129436484Y-94199000D01*
X129643516Y-94199000D01*
X129846564Y-94239389D01*
X129846564Y-94239389D01*
G37*
G36*
X163940443Y-92450519D02*
G01*
X164006627Y-92457037D01*
X164176466Y-92508557D01*
X164332991Y-92592222D01*
X164368729Y-92621552D01*
X164470186Y-92704814D01*
X164553448Y-92806271D01*
X164582778Y-92842009D01*
X164666443Y-92998534D01*
X164717963Y-93168373D01*
X164735359Y-93345000D01*
X164717963Y-93521627D01*
X164666443Y-93691466D01*
X164582778Y-93847991D01*
X164553448Y-93883729D01*
X164470186Y-93985186D01*
X164368729Y-94068448D01*
X164332991Y-94097778D01*
X164176466Y-94181443D01*
X164006627Y-94232963D01*
X163941382Y-94239389D01*
X163874260Y-94246000D01*
X163785740Y-94246000D01*
X163718618Y-94239389D01*
X163653373Y-94232963D01*
X163483534Y-94181443D01*
X163327009Y-94097778D01*
X163291271Y-94068448D01*
X163189814Y-93985186D01*
X163106552Y-93883729D01*
X163077222Y-93847991D01*
X162993557Y-93691466D01*
X162942037Y-93521627D01*
X162924641Y-93345000D01*
X162942037Y-93168373D01*
X162993557Y-92998534D01*
X163077222Y-92842009D01*
X163106552Y-92806271D01*
X163189814Y-92704814D01*
X163291271Y-92621552D01*
X163327009Y-92592222D01*
X163483534Y-92508557D01*
X163653373Y-92457037D01*
X163719557Y-92450519D01*
X163785740Y-92444000D01*
X163874260Y-92444000D01*
X163940443Y-92450519D01*
X163940443Y-92450519D01*
G37*
G36*
X132647000Y-93132000D02*
G01*
X131045000Y-93132000D01*
X131045000Y-91780000D01*
X132647000Y-91780000D01*
X132647000Y-93132000D01*
X132647000Y-93132000D01*
G37*
G36*
X135147000Y-93132000D02*
G01*
X133545000Y-93132000D01*
X133545000Y-91780000D01*
X135147000Y-91780000D01*
X135147000Y-93132000D01*
X135147000Y-93132000D01*
G37*
G36*
X156951000Y-91833000D02*
G01*
X155349000Y-91833000D01*
X155349000Y-90031000D01*
X156951000Y-90031000D01*
X156951000Y-91833000D01*
X156951000Y-91833000D01*
G37*
G36*
X159611000Y-91833000D02*
G01*
X158009000Y-91833000D01*
X158009000Y-90031000D01*
X159611000Y-90031000D01*
X159611000Y-91833000D01*
X159611000Y-91833000D01*
G37*
G36*
X164731000Y-91706000D02*
G01*
X162929000Y-91706000D01*
X162929000Y-89904000D01*
X164731000Y-89904000D01*
X164731000Y-91706000D01*
X164731000Y-91706000D01*
G37*
G36*
X127110443Y-89275519D02*
G01*
X127176627Y-89282037D01*
X127346466Y-89333557D01*
X127502991Y-89417222D01*
X127538729Y-89446552D01*
X127640186Y-89529814D01*
X127723448Y-89631271D01*
X127752778Y-89667009D01*
X127836443Y-89823534D01*
X127887963Y-89993373D01*
X127905359Y-90170000D01*
X127887963Y-90346627D01*
X127836443Y-90516466D01*
X127752778Y-90672991D01*
X127746205Y-90681000D01*
X127640186Y-90810186D01*
X127538729Y-90893448D01*
X127502991Y-90922778D01*
X127346466Y-91006443D01*
X127176627Y-91057963D01*
X127110442Y-91064482D01*
X127044260Y-91071000D01*
X126955740Y-91071000D01*
X126889558Y-91064482D01*
X126823373Y-91057963D01*
X126653534Y-91006443D01*
X126497009Y-90922778D01*
X126461271Y-90893448D01*
X126359814Y-90810186D01*
X126253795Y-90681000D01*
X126247222Y-90672991D01*
X126163557Y-90516466D01*
X126112037Y-90346627D01*
X126094641Y-90170000D01*
X126112037Y-89993373D01*
X126163557Y-89823534D01*
X126247222Y-89667009D01*
X126276552Y-89631271D01*
X126359814Y-89529814D01*
X126461271Y-89446552D01*
X126497009Y-89417222D01*
X126653534Y-89333557D01*
X126823373Y-89282037D01*
X126889557Y-89275519D01*
X126955740Y-89269000D01*
X127044260Y-89269000D01*
X127110443Y-89275519D01*
X127110443Y-89275519D01*
G37*
G36*
X140201000Y-90316000D02*
G01*
X139199000Y-90316000D01*
X139199000Y-88214000D01*
X140201000Y-88214000D01*
X140201000Y-90316000D01*
X140201000Y-90316000D01*
G37*
G36*
X150361000Y-90316000D02*
G01*
X149359000Y-90316000D01*
X149359000Y-88214000D01*
X150361000Y-88214000D01*
X150361000Y-90316000D01*
X150361000Y-90316000D01*
G37*
G36*
X149091000Y-90316000D02*
G01*
X148089000Y-90316000D01*
X148089000Y-88214000D01*
X149091000Y-88214000D01*
X149091000Y-90316000D01*
X149091000Y-90316000D01*
G37*
G36*
X146551000Y-90316000D02*
G01*
X145549000Y-90316000D01*
X145549000Y-88214000D01*
X146551000Y-88214000D01*
X146551000Y-90316000D01*
X146551000Y-90316000D01*
G37*
G36*
X145281000Y-90316000D02*
G01*
X144279000Y-90316000D01*
X144279000Y-88214000D01*
X145281000Y-88214000D01*
X145281000Y-90316000D01*
X145281000Y-90316000D01*
G37*
G36*
X144011000Y-90316000D02*
G01*
X143009000Y-90316000D01*
X143009000Y-88214000D01*
X144011000Y-88214000D01*
X144011000Y-90316000D01*
X144011000Y-90316000D01*
G37*
G36*
X142741000Y-90316000D02*
G01*
X141739000Y-90316000D01*
X141739000Y-88214000D01*
X142741000Y-88214000D01*
X142741000Y-90316000D01*
X142741000Y-90316000D01*
G37*
G36*
X141471000Y-90316000D02*
G01*
X140469000Y-90316000D01*
X140469000Y-88214000D01*
X141471000Y-88214000D01*
X141471000Y-90316000D01*
X141471000Y-90316000D01*
G37*
G36*
X138931000Y-90316000D02*
G01*
X137929000Y-90316000D01*
X137929000Y-88214000D01*
X138931000Y-88214000D01*
X138931000Y-90316000D01*
X138931000Y-90316000D01*
G37*
G36*
X147821000Y-90316000D02*
G01*
X146819000Y-90316000D01*
X146819000Y-88214000D01*
X147821000Y-88214000D01*
X147821000Y-90316000D01*
X147821000Y-90316000D01*
G37*
G36*
X153696000Y-88766000D02*
G01*
X151594000Y-88766000D01*
X151594000Y-87764000D01*
X153696000Y-87764000D01*
X153696000Y-88766000D01*
X153696000Y-88766000D01*
G37*
G36*
X136696000Y-88766000D02*
G01*
X134594000Y-88766000D01*
X134594000Y-87764000D01*
X136696000Y-87764000D01*
X136696000Y-88766000D01*
X136696000Y-88766000D01*
G37*
G36*
X131143000Y-88560000D02*
G01*
X129541000Y-88560000D01*
X129541000Y-87208000D01*
X131143000Y-87208000D01*
X131143000Y-88560000D01*
X131143000Y-88560000D01*
G37*
G36*
X133643000Y-88560000D02*
G01*
X132041000Y-88560000D01*
X132041000Y-87208000D01*
X133643000Y-87208000D01*
X133643000Y-88560000D01*
X133643000Y-88560000D01*
G37*
G36*
X127901000Y-88531000D02*
G01*
X126099000Y-88531000D01*
X126099000Y-86729000D01*
X127901000Y-86729000D01*
X127901000Y-88531000D01*
X127901000Y-88531000D01*
G37*
G36*
X153696000Y-87496000D02*
G01*
X151594000Y-87496000D01*
X151594000Y-86494000D01*
X153696000Y-86494000D01*
X153696000Y-87496000D01*
X153696000Y-87496000D01*
G37*
G36*
X136696000Y-87496000D02*
G01*
X134594000Y-87496000D01*
X134594000Y-86494000D01*
X136696000Y-86494000D01*
X136696000Y-87496000D01*
X136696000Y-87496000D01*
G37*
G36*
X131123000Y-86528000D02*
G01*
X129521000Y-86528000D01*
X129521000Y-85176000D01*
X131123000Y-85176000D01*
X131123000Y-86528000D01*
X131123000Y-86528000D01*
G37*
G36*
X133623000Y-86528000D02*
G01*
X132021000Y-86528000D01*
X132021000Y-85176000D01*
X133623000Y-85176000D01*
X133623000Y-86528000D01*
X133623000Y-86528000D01*
G37*
G36*
X163178443Y-84576519D02*
G01*
X163244627Y-84583037D01*
X163414466Y-84634557D01*
X163570991Y-84718222D01*
X163606729Y-84747552D01*
X163708186Y-84830814D01*
X163791448Y-84932271D01*
X163820778Y-84968009D01*
X163904443Y-85124534D01*
X163955963Y-85294373D01*
X163973359Y-85471000D01*
X163955963Y-85647627D01*
X163904443Y-85817466D01*
X163820778Y-85973991D01*
X163791448Y-86009729D01*
X163708186Y-86111186D01*
X163606729Y-86194448D01*
X163570991Y-86223778D01*
X163414466Y-86307443D01*
X163244627Y-86358963D01*
X163178443Y-86365481D01*
X163112260Y-86372000D01*
X163023740Y-86372000D01*
X162957557Y-86365481D01*
X162891373Y-86358963D01*
X162721534Y-86307443D01*
X162565009Y-86223778D01*
X162529271Y-86194448D01*
X162427814Y-86111186D01*
X162344552Y-86009729D01*
X162315222Y-85973991D01*
X162231557Y-85817466D01*
X162180037Y-85647627D01*
X162162641Y-85471000D01*
X162180037Y-85294373D01*
X162231557Y-85124534D01*
X162315222Y-84968009D01*
X162344552Y-84932271D01*
X162427814Y-84830814D01*
X162529271Y-84747552D01*
X162565009Y-84718222D01*
X162721534Y-84634557D01*
X162891373Y-84583037D01*
X162957557Y-84576519D01*
X163023740Y-84570000D01*
X163112260Y-84570000D01*
X163178443Y-84576519D01*
X163178443Y-84576519D01*
G37*
G36*
X158733443Y-84576519D02*
G01*
X158799627Y-84583037D01*
X158969466Y-84634557D01*
X159125991Y-84718222D01*
X159161729Y-84747552D01*
X159263186Y-84830814D01*
X159346448Y-84932271D01*
X159375778Y-84968009D01*
X159459443Y-85124534D01*
X159510963Y-85294373D01*
X159528359Y-85471000D01*
X159510963Y-85647627D01*
X159459443Y-85817466D01*
X159375778Y-85973991D01*
X159346448Y-86009729D01*
X159263186Y-86111186D01*
X159161729Y-86194448D01*
X159125991Y-86223778D01*
X158969466Y-86307443D01*
X158799627Y-86358963D01*
X158733443Y-86365481D01*
X158667260Y-86372000D01*
X158578740Y-86372000D01*
X158512557Y-86365481D01*
X158446373Y-86358963D01*
X158276534Y-86307443D01*
X158120009Y-86223778D01*
X158084271Y-86194448D01*
X157982814Y-86111186D01*
X157899552Y-86009729D01*
X157870222Y-85973991D01*
X157786557Y-85817466D01*
X157735037Y-85647627D01*
X157717641Y-85471000D01*
X157735037Y-85294373D01*
X157786557Y-85124534D01*
X157870222Y-84968009D01*
X157899552Y-84932271D01*
X157982814Y-84830814D01*
X158084271Y-84747552D01*
X158120009Y-84718222D01*
X158276534Y-84634557D01*
X158446373Y-84583037D01*
X158512557Y-84576519D01*
X158578740Y-84570000D01*
X158667260Y-84570000D01*
X158733443Y-84576519D01*
X158733443Y-84576519D01*
G37*
G36*
X153696000Y-86226000D02*
G01*
X151594000Y-86226000D01*
X151594000Y-85224000D01*
X153696000Y-85224000D01*
X153696000Y-86226000D01*
X153696000Y-86226000D01*
G37*
G36*
X136696000Y-86226000D02*
G01*
X134594000Y-86226000D01*
X134594000Y-85224000D01*
X136696000Y-85224000D01*
X136696000Y-86226000D01*
X136696000Y-86226000D01*
G37*
G36*
X136696000Y-84956000D02*
G01*
X134594000Y-84956000D01*
X134594000Y-83954000D01*
X136696000Y-83954000D01*
X136696000Y-84956000D01*
X136696000Y-84956000D01*
G37*
G36*
X153696000Y-84956000D02*
G01*
X151594000Y-84956000D01*
X151594000Y-83954000D01*
X153696000Y-83954000D01*
X153696000Y-84956000D01*
X153696000Y-84956000D01*
G37*
G36*
X132006000Y-84211000D02*
G01*
X130404000Y-84211000D01*
X130404000Y-82109000D01*
X132006000Y-82109000D01*
X132006000Y-84211000D01*
X132006000Y-84211000D01*
G37*
G36*
X129706000Y-84211000D02*
G01*
X128104000Y-84211000D01*
X128104000Y-82109000D01*
X129706000Y-82109000D01*
X129706000Y-84211000D01*
X129706000Y-84211000D01*
G37*
G36*
X127406000Y-84211000D02*
G01*
X125804000Y-84211000D01*
X125804000Y-82109000D01*
X127406000Y-82109000D01*
X127406000Y-84211000D01*
X127406000Y-84211000D01*
G37*
G36*
X163178442Y-82036518D02*
G01*
X163244627Y-82043037D01*
X163414466Y-82094557D01*
X163570991Y-82178222D01*
X163606729Y-82207552D01*
X163708186Y-82290814D01*
X163791448Y-82392271D01*
X163820778Y-82428009D01*
X163904443Y-82584534D01*
X163955963Y-82754373D01*
X163973359Y-82931000D01*
X163955963Y-83107627D01*
X163904443Y-83277466D01*
X163820778Y-83433991D01*
X163791448Y-83469729D01*
X163708186Y-83571186D01*
X163606729Y-83654448D01*
X163570991Y-83683778D01*
X163414466Y-83767443D01*
X163244627Y-83818963D01*
X163178442Y-83825482D01*
X163112260Y-83832000D01*
X163023740Y-83832000D01*
X162957558Y-83825482D01*
X162891373Y-83818963D01*
X162721534Y-83767443D01*
X162565009Y-83683778D01*
X162529271Y-83654448D01*
X162427814Y-83571186D01*
X162344552Y-83469729D01*
X162315222Y-83433991D01*
X162231557Y-83277466D01*
X162180037Y-83107627D01*
X162162641Y-82931000D01*
X162180037Y-82754373D01*
X162231557Y-82584534D01*
X162315222Y-82428009D01*
X162344552Y-82392271D01*
X162427814Y-82290814D01*
X162529271Y-82207552D01*
X162565009Y-82178222D01*
X162721534Y-82094557D01*
X162891373Y-82043037D01*
X162957558Y-82036518D01*
X163023740Y-82030000D01*
X163112260Y-82030000D01*
X163178442Y-82036518D01*
X163178442Y-82036518D01*
G37*
G36*
X158733442Y-82036518D02*
G01*
X158799627Y-82043037D01*
X158969466Y-82094557D01*
X159125991Y-82178222D01*
X159161729Y-82207552D01*
X159263186Y-82290814D01*
X159346448Y-82392271D01*
X159375778Y-82428009D01*
X159459443Y-82584534D01*
X159510963Y-82754373D01*
X159528359Y-82931000D01*
X159510963Y-83107627D01*
X159459443Y-83277466D01*
X159375778Y-83433991D01*
X159346448Y-83469729D01*
X159263186Y-83571186D01*
X159161729Y-83654448D01*
X159125991Y-83683778D01*
X158969466Y-83767443D01*
X158799627Y-83818963D01*
X158733442Y-83825482D01*
X158667260Y-83832000D01*
X158578740Y-83832000D01*
X158512558Y-83825482D01*
X158446373Y-83818963D01*
X158276534Y-83767443D01*
X158120009Y-83683778D01*
X158084271Y-83654448D01*
X157982814Y-83571186D01*
X157899552Y-83469729D01*
X157870222Y-83433991D01*
X157786557Y-83277466D01*
X157735037Y-83107627D01*
X157717641Y-82931000D01*
X157735037Y-82754373D01*
X157786557Y-82584534D01*
X157870222Y-82428009D01*
X157899552Y-82392271D01*
X157982814Y-82290814D01*
X158084271Y-82207552D01*
X158120009Y-82178222D01*
X158276534Y-82094557D01*
X158446373Y-82043037D01*
X158512558Y-82036518D01*
X158578740Y-82030000D01*
X158667260Y-82030000D01*
X158733442Y-82036518D01*
X158733442Y-82036518D01*
G37*
G36*
X153696000Y-83686000D02*
G01*
X151594000Y-83686000D01*
X151594000Y-82684000D01*
X153696000Y-82684000D01*
X153696000Y-83686000D01*
X153696000Y-83686000D01*
G37*
G36*
X136696000Y-83686000D02*
G01*
X134594000Y-83686000D01*
X134594000Y-82684000D01*
X136696000Y-82684000D01*
X136696000Y-83686000D01*
X136696000Y-83686000D01*
G37*
G36*
X153696000Y-82416000D02*
G01*
X151594000Y-82416000D01*
X151594000Y-81414000D01*
X153696000Y-81414000D01*
X153696000Y-82416000D01*
X153696000Y-82416000D01*
G37*
G36*
X136696000Y-82416000D02*
G01*
X134594000Y-82416000D01*
X134594000Y-81414000D01*
X136696000Y-81414000D01*
X136696000Y-82416000D01*
X136696000Y-82416000D01*
G37*
G36*
X145696000Y-81806000D02*
G01*
X140594000Y-81806000D01*
X140594000Y-76704000D01*
X145696000Y-76704000D01*
X145696000Y-81806000D01*
X145696000Y-81806000D01*
G37*
G36*
X159524000Y-81292000D02*
G01*
X157722000Y-81292000D01*
X157722000Y-79490000D01*
X159524000Y-79490000D01*
X159524000Y-81292000D01*
X159524000Y-81292000D01*
G37*
G36*
X163969000Y-81292000D02*
G01*
X162167000Y-81292000D01*
X162167000Y-79490000D01*
X163969000Y-79490000D01*
X163969000Y-81292000D01*
X163969000Y-81292000D01*
G37*
G36*
X136696000Y-81146000D02*
G01*
X134594000Y-81146000D01*
X134594000Y-80144000D01*
X136696000Y-80144000D01*
X136696000Y-81146000D01*
X136696000Y-81146000D01*
G37*
G36*
X153696000Y-81146000D02*
G01*
X151594000Y-81146000D01*
X151594000Y-80144000D01*
X153696000Y-80144000D01*
X153696000Y-81146000D01*
X153696000Y-81146000D01*
G37*
G36*
X153696000Y-79876000D02*
G01*
X151594000Y-79876000D01*
X151594000Y-78874000D01*
X153696000Y-78874000D01*
X153696000Y-79876000D01*
X153696000Y-79876000D01*
G37*
G36*
X136696000Y-79876000D02*
G01*
X134594000Y-79876000D01*
X134594000Y-78874000D01*
X136696000Y-78874000D01*
X136696000Y-79876000D01*
X136696000Y-79876000D01*
G37*
G36*
X136696000Y-78606000D02*
G01*
X134594000Y-78606000D01*
X134594000Y-77604000D01*
X136696000Y-77604000D01*
X136696000Y-78606000D01*
X136696000Y-78606000D01*
G37*
G36*
X153696000Y-78606000D02*
G01*
X151594000Y-78606000D01*
X151594000Y-77604000D01*
X153696000Y-77604000D01*
X153696000Y-78606000D01*
X153696000Y-78606000D01*
G37*
G36*
X130856000Y-77911000D02*
G01*
X126954000Y-77911000D01*
X126954000Y-75809000D01*
X130856000Y-75809000D01*
X130856000Y-77911000D01*
X130856000Y-77911000D01*
G37*
G36*
X153696000Y-77336000D02*
G01*
X151594000Y-77336000D01*
X151594000Y-76334000D01*
X153696000Y-76334000D01*
X153696000Y-77336000D01*
X153696000Y-77336000D01*
G37*
G36*
X136696000Y-77336000D02*
G01*
X134594000Y-77336000D01*
X134594000Y-76334000D01*
X136696000Y-76334000D01*
X136696000Y-77336000D01*
X136696000Y-77336000D01*
G37*
G36*
X153696000Y-76066000D02*
G01*
X151594000Y-76066000D01*
X151594000Y-75064000D01*
X153696000Y-75064000D01*
X153696000Y-76066000D01*
X153696000Y-76066000D01*
G37*
G36*
X136696000Y-76066000D02*
G01*
X134594000Y-76066000D01*
X134594000Y-75064000D01*
X136696000Y-75064000D01*
X136696000Y-76066000D01*
X136696000Y-76066000D01*
G37*
G36*
X162405000Y-75831000D02*
G01*
X160803000Y-75831000D01*
X160803000Y-74029000D01*
X162405000Y-74029000D01*
X162405000Y-75831000D01*
X162405000Y-75831000D01*
G37*
G36*
X159745000Y-75831000D02*
G01*
X158143000Y-75831000D01*
X158143000Y-74029000D01*
X159745000Y-74029000D01*
X159745000Y-75831000D01*
X159745000Y-75831000D01*
G37*
G36*
X133264000Y-75203000D02*
G01*
X131912000Y-75203000D01*
X131912000Y-73601000D01*
X133264000Y-73601000D01*
X133264000Y-75203000D01*
X133264000Y-75203000D01*
G37*
G36*
X131232000Y-75203000D02*
G01*
X129880000Y-75203000D01*
X129880000Y-73601000D01*
X131232000Y-73601000D01*
X131232000Y-75203000D01*
X131232000Y-75203000D01*
G37*
G36*
X136696000Y-74796000D02*
G01*
X134594000Y-74796000D01*
X134594000Y-73794000D01*
X136696000Y-73794000D01*
X136696000Y-74796000D01*
X136696000Y-74796000D01*
G37*
G36*
X153696000Y-74796000D02*
G01*
X151594000Y-74796000D01*
X151594000Y-73794000D01*
X153696000Y-73794000D01*
X153696000Y-74796000D01*
X153696000Y-74796000D01*
G37*
G36*
X136696000Y-73526000D02*
G01*
X134594000Y-73526000D01*
X134594000Y-72524000D01*
X136696000Y-72524000D01*
X136696000Y-73526000D01*
X136696000Y-73526000D01*
G37*
G36*
X153696000Y-73526000D02*
G01*
X151594000Y-73526000D01*
X151594000Y-72524000D01*
X153696000Y-72524000D01*
X153696000Y-73526000D01*
X153696000Y-73526000D01*
G37*
G36*
X133264000Y-72703000D02*
G01*
X131912000Y-72703000D01*
X131912000Y-71101000D01*
X133264000Y-71101000D01*
X133264000Y-72703000D01*
X133264000Y-72703000D01*
G37*
G36*
X131232000Y-72703000D02*
G01*
X129880000Y-72703000D01*
X129880000Y-71101000D01*
X131232000Y-71101000D01*
X131232000Y-72703000D01*
X131232000Y-72703000D01*
G37*
G36*
X136696000Y-72256000D02*
G01*
X134594000Y-72256000D01*
X134594000Y-71254000D01*
X136696000Y-71254000D01*
X136696000Y-72256000D01*
X136696000Y-72256000D01*
G37*
G36*
X153696000Y-72256000D02*
G01*
X151594000Y-72256000D01*
X151594000Y-71254000D01*
X153696000Y-71254000D01*
X153696000Y-72256000D01*
X153696000Y-72256000D01*
G37*
M02*
