M48
;DRILL file {KiCad (5.0.1)-3} date 10/12/2019 9:07:42 PM
;FORMAT={-:-/ absolute / inch / decimal}
FMAT,2
INCH,TZ
T1C0.0080
T2C0.0130
T3C0.0394
T4C0.0433
%
G90
G05
M72
T1
X5.25Y-3.3
X5.3997Y-3.5177
X5.475Y-3.425
X5.75Y-3.4
X5.775Y-3.425
X5.825Y-3.6
X5.875Y-3.2
X5.875Y-3.6
X6.1Y-3.1
X6.1Y-3.35
X6.1Y-3.425
X6.1431Y-2.875
X6.325Y-3.6
X6.35Y-3.05
T2
X5.585Y-3.2
X5.025Y-2.82
X5.685Y-3.15
X4.955Y-3.02
X4.955Y-3.12
X4.975Y-2.87
X4.925Y-2.82
X5.685Y-3.1
X5.025Y-2.92
X5.635Y-3.2
X4.925Y-2.92
X5.585Y-3.1
X5.685Y-3.2
X5.585Y-3.15
X4.955Y-2.97
X5.585Y-3.05
X5.635Y-3.05
X5.025Y-2.87
X4.955Y-3.07
X4.975Y-2.92
X5.635Y-3.1
X4.925Y-2.87
X4.905Y-3.07
X4.905Y-2.97
X5.635Y-3.15
X4.975Y-2.82
X5.685Y-3.05
X4.905Y-3.12
X4.905Y-3.02
T3
X6.245Y-3.165
X6.245Y-3.265
X6.245Y-3.365
X5.575Y-3.775
X5.675Y-3.775
X5.775Y-3.775
X5.875Y-3.775
X6.08Y-3.72
X6.18Y-3.72
X6.28Y-3.72
X6.38Y-3.72
X6.42Y-3.165
X6.42Y-3.265
X6.42Y-3.365
X5.Y-3.45
X5.Y-3.55
T4
X5.1Y-3.75
X5.1Y-3.9272
X5.3559Y-3.75
X5.3559Y-3.9272
T0
M30
