%TF.GenerationSoftware,KiCad,Pcbnew,5.1.4*%
%TF.CreationDate,2019-10-29T20:04:43-05:00*%
%TF.ProjectId,pet_feeder,7065745f-6665-4656-9465-722e6b696361,rev?*%
%TF.SameCoordinates,Original*%
%TF.FileFunction,Copper,L1,Top*%
%TF.FilePolarity,Positive*%
%FSLAX46Y46*%
G04 Gerber Fmt 4.6, Leading zero omitted, Abs format (unit mm)*
G04 Created by KiCad (PCBNEW 5.1.4) date 2019-10-29 20:04:43*
%MOMM*%
%LPD*%
G04 APERTURE LIST*
%ADD10R,5.000000X5.000000*%
%ADD11R,2.000000X0.900000*%
%ADD12R,0.900000X2.000000*%
%ADD13R,1.500000X1.250000*%
%ADD14R,1.250000X1.500000*%
%ADD15R,1.700000X1.700000*%
%ADD16O,1.700000X1.700000*%
%ADD17R,1.500000X0.400000*%
%ADD18R,3.800000X2.000000*%
%ADD19R,1.500000X2.000000*%
%ADD20C,2.000000*%
%ADD21R,1.300000X1.500000*%
%ADD22C,1.400000*%
%ADD23R,1.400000X1.400000*%
%ADD24R,1.450000X0.450000*%
%ADD25C,0.457200*%
%ADD26C,0.762000*%
%ADD27C,0.254000*%
%ADD28C,0.635000*%
G04 APERTURE END LIST*
D10*
X143145000Y-79255000D03*
D11*
X135645000Y-71755000D03*
X135645000Y-73025000D03*
X135645000Y-74295000D03*
X135645000Y-75565000D03*
X135645000Y-76835000D03*
X135645000Y-78105000D03*
X135645000Y-79375000D03*
X135645000Y-80645000D03*
X135645000Y-81915000D03*
X135645000Y-83185000D03*
X135645000Y-84455000D03*
X135645000Y-85725000D03*
X135645000Y-86995000D03*
X135645000Y-88265000D03*
D12*
X138430000Y-89265000D03*
X139700000Y-89265000D03*
X140970000Y-89265000D03*
X142240000Y-89265000D03*
X143510000Y-89265000D03*
X144780000Y-89265000D03*
X146050000Y-89265000D03*
X147320000Y-89265000D03*
X148590000Y-89265000D03*
X149860000Y-89265000D03*
D11*
X152645000Y-88265000D03*
X152645000Y-86995000D03*
X152645000Y-85725000D03*
X152645000Y-84455000D03*
X152645000Y-83185000D03*
X152645000Y-81915000D03*
X152645000Y-80645000D03*
X152645000Y-79375000D03*
X152645000Y-78105000D03*
X152645000Y-76835000D03*
X152645000Y-75565000D03*
X152645000Y-74295000D03*
X152645000Y-73025000D03*
X152645000Y-71755000D03*
D13*
X130322000Y-85852000D03*
X132822000Y-85852000D03*
X132842000Y-87884000D03*
X130342000Y-87884000D03*
X131846000Y-92456000D03*
X134346000Y-92456000D03*
D14*
X132588000Y-71902000D03*
X132588000Y-74402000D03*
X130556000Y-71902000D03*
X130556000Y-74402000D03*
D15*
X163068000Y-80391000D03*
D16*
X163068000Y-82931000D03*
X163068000Y-85471000D03*
X158623000Y-85471000D03*
X158623000Y-82931000D03*
D15*
X158623000Y-80391000D03*
D17*
X158944000Y-74280000D03*
X158944000Y-74930000D03*
X158944000Y-75580000D03*
X161604000Y-75580000D03*
X161604000Y-74930000D03*
X161604000Y-74280000D03*
X158810000Y-90282000D03*
X158810000Y-90932000D03*
X158810000Y-91582000D03*
X156150000Y-91582000D03*
X156150000Y-90932000D03*
X156150000Y-90282000D03*
D18*
X128905000Y-76860000D03*
D19*
X128905000Y-83160000D03*
X131205000Y-83160000D03*
X126605000Y-83160000D03*
D15*
X127000000Y-87630000D03*
D16*
X127000000Y-90170000D03*
D20*
X129540000Y-99750000D03*
X129540000Y-95250000D03*
X136040000Y-99750000D03*
X136040000Y-95250000D03*
D14*
X124968000Y-100310000D03*
X124968000Y-97810000D03*
D15*
X141605000Y-95885000D03*
D16*
X144145000Y-95885000D03*
X146685000Y-95885000D03*
X149225000Y-95885000D03*
D21*
X125095000Y-106760000D03*
X125095000Y-104060000D03*
D22*
X143510000Y-101600000D03*
X146050000Y-104140000D03*
D23*
X140970000Y-104140000D03*
X149225000Y-104140000D03*
D22*
X154305000Y-104140000D03*
X151765000Y-101600000D03*
D20*
X136040000Y-103505000D03*
X136040000Y-108005000D03*
X129540000Y-103505000D03*
X129540000Y-108005000D03*
D24*
X157820000Y-102657000D03*
X157820000Y-103307000D03*
X157820000Y-103957000D03*
X157820000Y-104607000D03*
X162220000Y-104607000D03*
X162220000Y-103957000D03*
X162220000Y-103307000D03*
X162220000Y-102657000D03*
D16*
X163830000Y-98425000D03*
X163830000Y-95885000D03*
X163830000Y-93345000D03*
D15*
X163830000Y-90805000D03*
D25*
X156035000Y-73025000D03*
X139192000Y-86868000D03*
X125984000Y-71120000D03*
X127000000Y-71120000D03*
X128016000Y-71120000D03*
X129032000Y-71120000D03*
X144272000Y-79248000D03*
X143256000Y-79248000D03*
X145288000Y-79248000D03*
X141224000Y-79248000D03*
X142240000Y-79248000D03*
X144272000Y-77216000D03*
X141224000Y-77216000D03*
X142240000Y-77216000D03*
X143256000Y-77216000D03*
X145288000Y-77216000D03*
X144272000Y-78232000D03*
X145288000Y-80264000D03*
X144272000Y-80264000D03*
X142240000Y-80264000D03*
X144272000Y-81280000D03*
X143256000Y-78232000D03*
X142240000Y-78232000D03*
X145288000Y-78232000D03*
X142240000Y-81280000D03*
X145288000Y-81280000D03*
X143256000Y-80264000D03*
X141224000Y-80264000D03*
X143256000Y-81280000D03*
X141224000Y-78232000D03*
X141224000Y-81280000D03*
X124968000Y-71120000D03*
X159385000Y-104140000D03*
X124460000Y-71628000D03*
X127508000Y-71628000D03*
X128524000Y-71628000D03*
X126492000Y-71628000D03*
X125476000Y-71628000D03*
X129032000Y-72136000D03*
X124968000Y-72136000D03*
X125984000Y-72136000D03*
X127000000Y-72136000D03*
X128016000Y-72136000D03*
X124460000Y-72644000D03*
X127508000Y-72644000D03*
X128524000Y-72644000D03*
X126492000Y-72644000D03*
X125476000Y-72644000D03*
X125984000Y-73152000D03*
X129032000Y-73152000D03*
X127000000Y-73152000D03*
X124968000Y-73152000D03*
X128016000Y-73152000D03*
X125476000Y-73660000D03*
X124460000Y-73660000D03*
X126492000Y-73660000D03*
X127508000Y-73660000D03*
X128524000Y-73660000D03*
X127000000Y-74168000D03*
X129032000Y-74168000D03*
X124968000Y-74168000D03*
X125984000Y-74168000D03*
X128016000Y-74168000D03*
X125476000Y-74676000D03*
X127508000Y-74676000D03*
X126492000Y-74676000D03*
X124460000Y-74676000D03*
X128524000Y-74676000D03*
X124968000Y-77216000D03*
X124460000Y-75692000D03*
X125476000Y-76708000D03*
X125476000Y-75692000D03*
X124968000Y-76200000D03*
X124460000Y-78740000D03*
X124968000Y-75184000D03*
X124460000Y-76708000D03*
X124460000Y-77724000D03*
X125476000Y-78740000D03*
X124968000Y-78232000D03*
X125476000Y-77724000D03*
X124460000Y-80772000D03*
X124460000Y-79756000D03*
X124460000Y-81788000D03*
X124968000Y-81280000D03*
X125476000Y-79756000D03*
X124968000Y-82296000D03*
X125476000Y-80772000D03*
X124968000Y-79248000D03*
X124968000Y-80264000D03*
X124460000Y-82804000D03*
X130048000Y-79248000D03*
X125984000Y-79248000D03*
X127000000Y-80264000D03*
X127000000Y-79248000D03*
X130048000Y-80264000D03*
X126492000Y-79756000D03*
X128016000Y-80264000D03*
X126492000Y-78740000D03*
X129540000Y-78740000D03*
X130556000Y-78740000D03*
X129540000Y-79756000D03*
X128016000Y-79248000D03*
X130556000Y-79756000D03*
X125984000Y-80264000D03*
X129032000Y-80264000D03*
X128524000Y-78740000D03*
X127508000Y-78740000D03*
X128524000Y-79756000D03*
X127508000Y-79756000D03*
X129032000Y-79248000D03*
X131572000Y-78740000D03*
X132588000Y-78740000D03*
X131064000Y-79248000D03*
X132080000Y-79248000D03*
X131572000Y-79756000D03*
X132588000Y-79756000D03*
X132080000Y-80264000D03*
X131064000Y-80264000D03*
X126492000Y-80772000D03*
X127508000Y-80772000D03*
X128524000Y-80772000D03*
X129540000Y-80772000D03*
X130556000Y-80772000D03*
X131572000Y-80772000D03*
X132588000Y-80772000D03*
X132080000Y-81280000D03*
X131064000Y-81280000D03*
X130048000Y-81280000D03*
X129032000Y-81280000D03*
X128016000Y-81280000D03*
X127000000Y-81280000D03*
X125984000Y-81280000D03*
X133350000Y-83820000D03*
X161290000Y-77470000D03*
X161036000Y-91948000D03*
X137153001Y-89350001D03*
X146050000Y-86360000D03*
X146685000Y-86995000D03*
X154940000Y-85090000D03*
X154940000Y-78740000D03*
X159512000Y-72644000D03*
X140335000Y-92710000D03*
X140335000Y-85725000D03*
X138430000Y-74930000D03*
X133350000Y-76835000D03*
X162560000Y-101600000D03*
X153035000Y-92710000D03*
X133350000Y-77470000D03*
X138430000Y-82550000D03*
X142240000Y-86360000D03*
X142875000Y-93345000D03*
D26*
X130342000Y-85872000D02*
X130322000Y-85852000D01*
X130342000Y-87884000D02*
X130342000Y-85872000D01*
X128056000Y-90170000D02*
X127000000Y-90170000D01*
X130342000Y-87884000D02*
X128056000Y-90170000D01*
X134346000Y-94944000D02*
X129540000Y-99750000D01*
X134346000Y-92456000D02*
X134346000Y-94944000D01*
D27*
X157480000Y-90932000D02*
X158810000Y-90932000D01*
X156150000Y-90932000D02*
X157480000Y-90932000D01*
X158944000Y-74930000D02*
X161604000Y-74930000D01*
X163068000Y-79287000D02*
X163068000Y-80391000D01*
X163068000Y-75390000D02*
X163068000Y-79287000D01*
X162608000Y-74930000D02*
X163068000Y-75390000D01*
X161604000Y-74930000D02*
X162608000Y-74930000D01*
X153899000Y-71755000D02*
X152645000Y-71755000D01*
X154765000Y-71755000D02*
X153899000Y-71755000D01*
X158944000Y-74930000D02*
X157940000Y-74930000D01*
X155575000Y-72565000D02*
X156035000Y-73025000D01*
X155575000Y-72565000D02*
X154765000Y-71755000D01*
X157940000Y-74930000D02*
X155575000Y-72565000D01*
X135498000Y-71902000D02*
X135645000Y-71755000D01*
D26*
X132588000Y-71902000D02*
X135498000Y-71902000D01*
D27*
X138430000Y-89265000D02*
X138430000Y-87630000D01*
X138430000Y-87630000D02*
X139065000Y-86995000D01*
X163703000Y-90932000D02*
X163830000Y-90805000D01*
X158810000Y-90932000D02*
X163703000Y-90932000D01*
X139065000Y-86995000D02*
X139192000Y-86868000D01*
X127600000Y-97810000D02*
X129540000Y-99750000D01*
X124968000Y-97810000D02*
X127600000Y-97810000D01*
X157820000Y-104607000D02*
X158918000Y-104607000D01*
X158918000Y-104607000D02*
X159385000Y-104140000D01*
X161604000Y-75580000D02*
X161604000Y-77156000D01*
X161604000Y-77156000D02*
X161290000Y-77470000D01*
X158810000Y-91582000D02*
X160513000Y-91582000D01*
X160513000Y-91582000D02*
X160670000Y-91582000D01*
X160670000Y-91582000D02*
X161036000Y-91948000D01*
D26*
X131865000Y-83820000D02*
X131205000Y-83160000D01*
X133350000Y-83820000D02*
X131865000Y-83820000D01*
X132822000Y-84348000D02*
X133350000Y-83820000D01*
X132822000Y-85852000D02*
X132822000Y-84348000D01*
X132921001Y-89350001D02*
X137153001Y-89350001D01*
X132842000Y-89271000D02*
X132921001Y-89350001D01*
X132842000Y-87884000D02*
X132842000Y-89271000D01*
X132695000Y-74295000D02*
X132588000Y-74402000D01*
X130556000Y-74402000D02*
X132588000Y-74402000D01*
X133965000Y-73025000D02*
X135645000Y-73025000D01*
X132588000Y-74402000D02*
X133965000Y-73025000D01*
X136739402Y-73025000D02*
X135645000Y-73025000D01*
X137280001Y-73565599D02*
X136739402Y-73025000D01*
X137280001Y-89223001D02*
X137280001Y-73565599D01*
X137153001Y-89350001D02*
X137280001Y-89223001D01*
X130584999Y-91528001D02*
X132842000Y-89271000D01*
X126348159Y-91528001D02*
X130584999Y-91528001D01*
X125641999Y-90821841D02*
X126348159Y-91528001D01*
X125743599Y-86271999D02*
X125641999Y-86373599D01*
X125641999Y-86373599D02*
X125641999Y-90821841D01*
X126157403Y-86271999D02*
X125743599Y-86271999D01*
X128905000Y-83524402D02*
X126157403Y-86271999D01*
X128905000Y-83160000D02*
X128905000Y-83524402D01*
D27*
X124088999Y-98763201D02*
X124088999Y-92374841D01*
X124139799Y-98814001D02*
X124088999Y-98763201D01*
X125847001Y-99356799D02*
X125304203Y-98814001D01*
X125847001Y-101263201D02*
X125847001Y-99356799D01*
X125304203Y-98814001D02*
X124139799Y-98814001D01*
X125095000Y-102015202D02*
X125847001Y-101263201D01*
X124088999Y-92374841D02*
X125641999Y-90821841D01*
X125095000Y-104060000D02*
X125095000Y-102015202D01*
X149225000Y-100965000D02*
X146050000Y-104140000D01*
X149225000Y-95885000D02*
X149225000Y-100965000D01*
X161290000Y-95885000D02*
X163830000Y-93345000D01*
X149225000Y-95885000D02*
X161290000Y-95885000D01*
X164679999Y-94194999D02*
X163830000Y-93345000D01*
X164934001Y-94449001D02*
X164679999Y-94194999D01*
X164934001Y-101571999D02*
X164934001Y-94449001D01*
X163199000Y-103307000D02*
X164934001Y-101571999D01*
X162220000Y-103307000D02*
X163199000Y-103307000D01*
X136040000Y-92089198D02*
X135400801Y-91449999D01*
X136040000Y-95250000D02*
X136040000Y-92089198D01*
X152645000Y-88969000D02*
X152645000Y-88265000D01*
X149524802Y-92089198D02*
X152645000Y-88969000D01*
X136040000Y-92089198D02*
X149524802Y-92089198D01*
X131846000Y-92944000D02*
X131846000Y-92456000D01*
X129540000Y-95250000D02*
X131846000Y-92944000D01*
X131971000Y-92456000D02*
X131846000Y-92456000D01*
X132977001Y-91449999D02*
X131971000Y-92456000D01*
X135400801Y-91449999D02*
X132977001Y-91449999D01*
X153195000Y-81915000D02*
X152645000Y-81915000D01*
X158275000Y-86995000D02*
X153195000Y-81915000D01*
X161544000Y-86995000D02*
X158275000Y-86995000D01*
X163068000Y-85471000D02*
X161544000Y-86995000D01*
X146050000Y-81610000D02*
X146050000Y-86360000D01*
X152645000Y-75565000D02*
X152095000Y-75565000D01*
X152095000Y-75565000D02*
X146050000Y-81610000D01*
X146685000Y-82245000D02*
X146685000Y-86995000D01*
X152645000Y-76835000D02*
X152095000Y-76835000D01*
X152095000Y-76835000D02*
X146685000Y-82245000D01*
X153797000Y-80645000D02*
X152645000Y-80645000D01*
X158623000Y-85471000D02*
X153797000Y-80645000D01*
X152645000Y-84455000D02*
X154305000Y-84455000D01*
X154305000Y-84455000D02*
X154940000Y-85090000D01*
X154940000Y-78740000D02*
X154940000Y-77470000D01*
X156830000Y-75580000D02*
X158944000Y-75580000D01*
X154940000Y-77470000D02*
X156830000Y-75580000D01*
X154940000Y-87877202D02*
X154940000Y-85413289D01*
X152552399Y-90264803D02*
X154940000Y-87877202D01*
X152552399Y-92941649D02*
X152552399Y-90264803D01*
X153535399Y-93192601D02*
X152803351Y-93192601D01*
X155146000Y-91582000D02*
X153535399Y-93192601D01*
X154940000Y-85413289D02*
X154940000Y-85090000D01*
X152803351Y-93192601D02*
X152552399Y-92941649D01*
X156150000Y-91582000D02*
X155146000Y-91582000D01*
D28*
X159512000Y-73712000D02*
X158944000Y-74280000D01*
X159512000Y-72644000D02*
X159512000Y-73712000D01*
D27*
X126285000Y-106760000D02*
X129540000Y-103505000D01*
X125095000Y-106760000D02*
X126285000Y-106760000D01*
X125095000Y-106660000D02*
X125095000Y-106760000D01*
X124190999Y-102091001D02*
X124191000Y-105756000D01*
X124191000Y-105756000D02*
X125095000Y-106660000D01*
X124968000Y-101314000D02*
X124190999Y-102091001D01*
X124968000Y-100310000D02*
X124968000Y-101314000D01*
X129540000Y-103505000D02*
X136040000Y-103505000D01*
X136040000Y-103505000D02*
X140335000Y-99210000D01*
X140335000Y-99210000D02*
X140335000Y-92710000D01*
X140335000Y-85725000D02*
X140335000Y-76835000D01*
X140335000Y-76835000D02*
X138430000Y-74930000D01*
X133233002Y-76835000D02*
X133350000Y-76835000D01*
X133350000Y-76835000D02*
X133350000Y-76040000D01*
X135095000Y-74295000D02*
X135645000Y-74295000D01*
X133350000Y-76040000D02*
X135095000Y-74295000D01*
X150179000Y-104140000D02*
X149225000Y-104140000D01*
X151280990Y-103038010D02*
X150179000Y-104140000D01*
X154614932Y-103038010D02*
X151280990Y-103038010D01*
X156662923Y-105086001D02*
X154614932Y-103038010D01*
X160761999Y-105086001D02*
X156662923Y-105086001D01*
X161241000Y-104607000D02*
X160761999Y-105086001D01*
X162220000Y-104607000D02*
X161241000Y-104607000D01*
X143510000Y-102589949D02*
X143510000Y-101600000D01*
X143510000Y-103011922D02*
X143510000Y-102589949D01*
X146507921Y-105094001D02*
X145592079Y-105094001D01*
X147461922Y-104140000D02*
X146507921Y-105094001D01*
X145592079Y-105094001D02*
X143510000Y-103011922D01*
X149225000Y-104140000D02*
X147461922Y-104140000D01*
X152822000Y-102657000D02*
X151765000Y-101600000D01*
X157820000Y-102657000D02*
X152822000Y-102657000D01*
X152076711Y-78105000D02*
X152645000Y-78105000D01*
X162220000Y-102657000D02*
X162220000Y-101940000D01*
X162220000Y-101940000D02*
X162560000Y-101600000D01*
X153012787Y-77835585D02*
X152914414Y-77835585D01*
X154457399Y-79280197D02*
X153012787Y-77835585D01*
X154457399Y-80766571D02*
X154457399Y-79280197D01*
X164172001Y-86000921D02*
X164172001Y-84941079D01*
X162796912Y-87376010D02*
X164172001Y-86000921D01*
X164172001Y-84941079D02*
X163597921Y-84366999D01*
X158057827Y-84366999D02*
X154457399Y-80766571D01*
X163597921Y-84366999D02*
X158057827Y-84366999D01*
X162796922Y-87376000D02*
X164172001Y-86000921D01*
X156149308Y-88875490D02*
X161297433Y-88875490D01*
X161297433Y-88875490D02*
X162932461Y-87240462D01*
X155145999Y-89878799D02*
X156149308Y-88875490D01*
X155145999Y-90922290D02*
X155145999Y-89878799D01*
X153358289Y-92710000D02*
X155145999Y-90922290D01*
X153035000Y-92710000D02*
X153358289Y-92710000D01*
X158799000Y-103307000D02*
X159385000Y-102721000D01*
X157820000Y-103307000D02*
X158799000Y-103307000D01*
X159385000Y-100330000D02*
X163830000Y-95885000D01*
X159385000Y-102721000D02*
X159385000Y-100330000D01*
X162980001Y-99830749D02*
X162980001Y-99274999D01*
X162980001Y-99274999D02*
X163830000Y-98425000D01*
X158853750Y-103957000D02*
X162980001Y-99830749D01*
X157820000Y-103957000D02*
X158853750Y-103957000D01*
D28*
X157535000Y-89447000D02*
X156700000Y-90282000D01*
X161534159Y-89447000D02*
X157535000Y-89447000D01*
X164743511Y-86237648D02*
X161534159Y-89447000D01*
X156700000Y-90282000D02*
X156150000Y-90282000D01*
X164743511Y-84606511D02*
X164743511Y-86237648D01*
X163068000Y-82931000D02*
X164743511Y-84606511D01*
D27*
X163199000Y-103957000D02*
X162220000Y-103957000D01*
X161554202Y-106680000D02*
X163199001Y-105035201D01*
X163199001Y-105035201D02*
X163199000Y-103957000D01*
X156845000Y-106680000D02*
X161554202Y-106680000D01*
X154305000Y-104140000D02*
X156845000Y-106680000D01*
X135645000Y-78105000D02*
X133985000Y-78105000D01*
X133985000Y-78105000D02*
X133350000Y-77470000D01*
X140255750Y-86360000D02*
X142240000Y-86360000D01*
X138430000Y-82550000D02*
X138430000Y-84534250D01*
X138430000Y-84534250D02*
X140255750Y-86360000D01*
X142875000Y-93345000D02*
X142875000Y-99695000D01*
X153605001Y-104839999D02*
X154305000Y-104140000D01*
X152969989Y-105475011D02*
X153605001Y-104839999D01*
X145434260Y-105475011D02*
X152969989Y-105475011D01*
X142555999Y-100014001D02*
X142555999Y-102596749D01*
X142555999Y-102596749D02*
X145434260Y-105475011D01*
X142875000Y-99695000D02*
X142555999Y-100014001D01*
G36*
X129686820Y-70562498D02*
G01*
X129576506Y-70621463D01*
X129479815Y-70700815D01*
X129400463Y-70797506D01*
X129341498Y-70907820D01*
X129305188Y-71027518D01*
X129292928Y-71152000D01*
X129296000Y-71616250D01*
X129454750Y-71775000D01*
X130429000Y-71775000D01*
X130429000Y-71755000D01*
X130683000Y-71755000D01*
X130683000Y-71775000D01*
X132461000Y-71775000D01*
X132461000Y-71755000D01*
X132715000Y-71755000D01*
X132715000Y-71775000D01*
X132735000Y-71775000D01*
X132735000Y-72029000D01*
X132715000Y-72029000D01*
X132715000Y-72049000D01*
X132461000Y-72049000D01*
X132461000Y-72029000D01*
X130683000Y-72029000D01*
X130683000Y-72049000D01*
X130429000Y-72049000D01*
X130429000Y-72029000D01*
X129454750Y-72029000D01*
X129296000Y-72187750D01*
X129292928Y-72652000D01*
X129305188Y-72776482D01*
X129341498Y-72896180D01*
X129400463Y-73006494D01*
X129479815Y-73103185D01*
X129539296Y-73152000D01*
X129479815Y-73200815D01*
X129400463Y-73297506D01*
X129341498Y-73407820D01*
X129305188Y-73527518D01*
X129292928Y-73652000D01*
X129292928Y-75152000D01*
X129299815Y-75221928D01*
X127005000Y-75221928D01*
X126880518Y-75234188D01*
X126760820Y-75270498D01*
X126650506Y-75329463D01*
X126553815Y-75408815D01*
X126474463Y-75505506D01*
X126415498Y-75615820D01*
X126379188Y-75735518D01*
X126366928Y-75860000D01*
X126366928Y-77860000D01*
X126379188Y-77984482D01*
X126415498Y-78104180D01*
X126474463Y-78214494D01*
X126553815Y-78311185D01*
X126650506Y-78390537D01*
X126760820Y-78449502D01*
X126880518Y-78485812D01*
X127005000Y-78498072D01*
X130805000Y-78498072D01*
X130929482Y-78485812D01*
X131049180Y-78449502D01*
X131159494Y-78390537D01*
X131256185Y-78311185D01*
X131335537Y-78214494D01*
X131394502Y-78104180D01*
X131430812Y-77984482D01*
X131443072Y-77860000D01*
X131443072Y-75860000D01*
X131431090Y-75738343D01*
X131535494Y-75682537D01*
X131572000Y-75652577D01*
X131608506Y-75682537D01*
X131718820Y-75741502D01*
X131838518Y-75777812D01*
X131963000Y-75790072D01*
X132629528Y-75790072D01*
X132599026Y-75890622D01*
X132588000Y-76002574D01*
X132584314Y-76040000D01*
X132588000Y-76077423D01*
X132588000Y-76420974D01*
X132584687Y-76425932D01*
X132574548Y-76450410D01*
X132525600Y-76541985D01*
X132482028Y-76685622D01*
X132467316Y-76835000D01*
X132482028Y-76984378D01*
X132525600Y-77128015D01*
X132543235Y-77161007D01*
X132519587Y-77218097D01*
X132486400Y-77384943D01*
X132486400Y-77555057D01*
X132519587Y-77721903D01*
X132584687Y-77879068D01*
X132679198Y-78020513D01*
X132799487Y-78140802D01*
X132940932Y-78235313D01*
X133098097Y-78300413D01*
X133103947Y-78301577D01*
X133223000Y-78420630D01*
X133223000Y-82804000D01*
X132593072Y-82804000D01*
X132593072Y-82160000D01*
X132580812Y-82035518D01*
X132544502Y-81915820D01*
X132485537Y-81805506D01*
X132406185Y-81708815D01*
X132309494Y-81629463D01*
X132199180Y-81570498D01*
X132079482Y-81534188D01*
X131955000Y-81521928D01*
X130455000Y-81521928D01*
X130330518Y-81534188D01*
X130210820Y-81570498D01*
X130100506Y-81629463D01*
X130055000Y-81666809D01*
X130009494Y-81629463D01*
X129899180Y-81570498D01*
X129779482Y-81534188D01*
X129655000Y-81521928D01*
X128155000Y-81521928D01*
X128030518Y-81534188D01*
X127910820Y-81570498D01*
X127800506Y-81629463D01*
X127755000Y-81666809D01*
X127709494Y-81629463D01*
X127599180Y-81570498D01*
X127479482Y-81534188D01*
X127355000Y-81521928D01*
X126890750Y-81525000D01*
X126732000Y-81683750D01*
X126732000Y-83033000D01*
X126752000Y-83033000D01*
X126752000Y-83287000D01*
X126732000Y-83287000D01*
X126732000Y-83307000D01*
X126478000Y-83307000D01*
X126478000Y-83287000D01*
X125378750Y-83287000D01*
X125220000Y-83445750D01*
X125216928Y-84160000D01*
X125229188Y-84284482D01*
X125242389Y-84328000D01*
X123900000Y-84328000D01*
X123900000Y-82160000D01*
X125216928Y-82160000D01*
X125220000Y-82874250D01*
X125378750Y-83033000D01*
X126478000Y-83033000D01*
X126478000Y-81683750D01*
X126319250Y-81525000D01*
X125855000Y-81521928D01*
X125730518Y-81534188D01*
X125610820Y-81570498D01*
X125500506Y-81629463D01*
X125403815Y-81708815D01*
X125324463Y-81805506D01*
X125265498Y-81915820D01*
X125229188Y-82035518D01*
X125216928Y-82160000D01*
X123900000Y-82160000D01*
X123900000Y-71154720D01*
X123914005Y-71011891D01*
X123945402Y-70907899D01*
X123996399Y-70811986D01*
X124065055Y-70727806D01*
X124148758Y-70658560D01*
X124244311Y-70606895D01*
X124348078Y-70574773D01*
X124488641Y-70560000D01*
X129695055Y-70560000D01*
X129686820Y-70562498D01*
X129686820Y-70562498D01*
G37*
X129686820Y-70562498D02*
X129576506Y-70621463D01*
X129479815Y-70700815D01*
X129400463Y-70797506D01*
X129341498Y-70907820D01*
X129305188Y-71027518D01*
X129292928Y-71152000D01*
X129296000Y-71616250D01*
X129454750Y-71775000D01*
X130429000Y-71775000D01*
X130429000Y-71755000D01*
X130683000Y-71755000D01*
X130683000Y-71775000D01*
X132461000Y-71775000D01*
X132461000Y-71755000D01*
X132715000Y-71755000D01*
X132715000Y-71775000D01*
X132735000Y-71775000D01*
X132735000Y-72029000D01*
X132715000Y-72029000D01*
X132715000Y-72049000D01*
X132461000Y-72049000D01*
X132461000Y-72029000D01*
X130683000Y-72029000D01*
X130683000Y-72049000D01*
X130429000Y-72049000D01*
X130429000Y-72029000D01*
X129454750Y-72029000D01*
X129296000Y-72187750D01*
X129292928Y-72652000D01*
X129305188Y-72776482D01*
X129341498Y-72896180D01*
X129400463Y-73006494D01*
X129479815Y-73103185D01*
X129539296Y-73152000D01*
X129479815Y-73200815D01*
X129400463Y-73297506D01*
X129341498Y-73407820D01*
X129305188Y-73527518D01*
X129292928Y-73652000D01*
X129292928Y-75152000D01*
X129299815Y-75221928D01*
X127005000Y-75221928D01*
X126880518Y-75234188D01*
X126760820Y-75270498D01*
X126650506Y-75329463D01*
X126553815Y-75408815D01*
X126474463Y-75505506D01*
X126415498Y-75615820D01*
X126379188Y-75735518D01*
X126366928Y-75860000D01*
X126366928Y-77860000D01*
X126379188Y-77984482D01*
X126415498Y-78104180D01*
X126474463Y-78214494D01*
X126553815Y-78311185D01*
X126650506Y-78390537D01*
X126760820Y-78449502D01*
X126880518Y-78485812D01*
X127005000Y-78498072D01*
X130805000Y-78498072D01*
X130929482Y-78485812D01*
X131049180Y-78449502D01*
X131159494Y-78390537D01*
X131256185Y-78311185D01*
X131335537Y-78214494D01*
X131394502Y-78104180D01*
X131430812Y-77984482D01*
X131443072Y-77860000D01*
X131443072Y-75860000D01*
X131431090Y-75738343D01*
X131535494Y-75682537D01*
X131572000Y-75652577D01*
X131608506Y-75682537D01*
X131718820Y-75741502D01*
X131838518Y-75777812D01*
X131963000Y-75790072D01*
X132629528Y-75790072D01*
X132599026Y-75890622D01*
X132588000Y-76002574D01*
X132584314Y-76040000D01*
X132588000Y-76077423D01*
X132588000Y-76420974D01*
X132584687Y-76425932D01*
X132574548Y-76450410D01*
X132525600Y-76541985D01*
X132482028Y-76685622D01*
X132467316Y-76835000D01*
X132482028Y-76984378D01*
X132525600Y-77128015D01*
X132543235Y-77161007D01*
X132519587Y-77218097D01*
X132486400Y-77384943D01*
X132486400Y-77555057D01*
X132519587Y-77721903D01*
X132584687Y-77879068D01*
X132679198Y-78020513D01*
X132799487Y-78140802D01*
X132940932Y-78235313D01*
X133098097Y-78300413D01*
X133103947Y-78301577D01*
X133223000Y-78420630D01*
X133223000Y-82804000D01*
X132593072Y-82804000D01*
X132593072Y-82160000D01*
X132580812Y-82035518D01*
X132544502Y-81915820D01*
X132485537Y-81805506D01*
X132406185Y-81708815D01*
X132309494Y-81629463D01*
X132199180Y-81570498D01*
X132079482Y-81534188D01*
X131955000Y-81521928D01*
X130455000Y-81521928D01*
X130330518Y-81534188D01*
X130210820Y-81570498D01*
X130100506Y-81629463D01*
X130055000Y-81666809D01*
X130009494Y-81629463D01*
X129899180Y-81570498D01*
X129779482Y-81534188D01*
X129655000Y-81521928D01*
X128155000Y-81521928D01*
X128030518Y-81534188D01*
X127910820Y-81570498D01*
X127800506Y-81629463D01*
X127755000Y-81666809D01*
X127709494Y-81629463D01*
X127599180Y-81570498D01*
X127479482Y-81534188D01*
X127355000Y-81521928D01*
X126890750Y-81525000D01*
X126732000Y-81683750D01*
X126732000Y-83033000D01*
X126752000Y-83033000D01*
X126752000Y-83287000D01*
X126732000Y-83287000D01*
X126732000Y-83307000D01*
X126478000Y-83307000D01*
X126478000Y-83287000D01*
X125378750Y-83287000D01*
X125220000Y-83445750D01*
X125216928Y-84160000D01*
X125229188Y-84284482D01*
X125242389Y-84328000D01*
X123900000Y-84328000D01*
X123900000Y-82160000D01*
X125216928Y-82160000D01*
X125220000Y-82874250D01*
X125378750Y-83033000D01*
X126478000Y-83033000D01*
X126478000Y-81683750D01*
X126319250Y-81525000D01*
X125855000Y-81521928D01*
X125730518Y-81534188D01*
X125610820Y-81570498D01*
X125500506Y-81629463D01*
X125403815Y-81708815D01*
X125324463Y-81805506D01*
X125265498Y-81915820D01*
X125229188Y-82035518D01*
X125216928Y-82160000D01*
X123900000Y-82160000D01*
X123900000Y-71154720D01*
X123914005Y-71011891D01*
X123945402Y-70907899D01*
X123996399Y-70811986D01*
X124065055Y-70727806D01*
X124148758Y-70658560D01*
X124244311Y-70606895D01*
X124348078Y-70574773D01*
X124488641Y-70560000D01*
X129695055Y-70560000D01*
X129686820Y-70562498D01*
M02*
