%TF.GenerationSoftware,KiCad,Pcbnew,5.1.4*%
%TF.CreationDate,2019-10-29T20:04:43-05:00*%
%TF.ProjectId,pet_feeder,7065745f-6665-4656-9465-722e6b696361,rev?*%
%TF.SameCoordinates,Original*%
%TF.FileFunction,Legend,Top*%
%TF.FilePolarity,Positive*%
%FSLAX46Y46*%
G04 Gerber Fmt 4.6, Leading zero omitted, Abs format (unit mm)*
G04 Created by KiCad (PCBNEW 5.1.4) date 2019-10-29 20:04:43*
%MOMM*%
%LPD*%
G04 APERTURE LIST*
%ADD10C,0.300000*%
%ADD11C,0.125000*%
%ADD12C,0.120000*%
%ADD13C,0.381000*%
%ADD14C,0.150000*%
%ADD15C,0.152400*%
G04 APERTURE END LIST*
D10*
X124142571Y-86975142D02*
X125285428Y-86975142D01*
X124714000Y-87546571D02*
X124714000Y-86403714D01*
D11*
X160305809Y-79736190D02*
X160472476Y-80236190D01*
X160639142Y-79736190D01*
X160805809Y-80045714D02*
X161186761Y-80045714D01*
X164623809Y-79736190D02*
X164790476Y-80236190D01*
X164957142Y-79736190D01*
X165123809Y-80045714D02*
X165504761Y-80045714D01*
D12*
X135025000Y-89110000D02*
X135025000Y-89890000D01*
X135025000Y-89890000D02*
X136025000Y-89890000D01*
X153265000Y-89110000D02*
X153265000Y-89890000D01*
X153265000Y-89890000D02*
X152265000Y-89890000D01*
X135025000Y-64145000D02*
X153265000Y-64145000D01*
X153265000Y-64145000D02*
X153265000Y-70565000D01*
X135025000Y-64145000D02*
X135025000Y-70565000D01*
X135025000Y-70565000D02*
X134645000Y-70565000D01*
X132072000Y-85002000D02*
X131072000Y-85002000D01*
X131072000Y-86702000D02*
X132072000Y-86702000D01*
X131092000Y-88734000D02*
X132092000Y-88734000D01*
X132092000Y-87034000D02*
X131092000Y-87034000D01*
X133596000Y-91606000D02*
X132596000Y-91606000D01*
X132596000Y-93306000D02*
X133596000Y-93306000D01*
X133438000Y-73652000D02*
X133438000Y-72652000D01*
X131738000Y-72652000D02*
X131738000Y-73652000D01*
X131406000Y-73652000D02*
X131406000Y-72652000D01*
X129706000Y-72652000D02*
X129706000Y-73652000D01*
X161738000Y-86801000D02*
X164398000Y-86801000D01*
X161738000Y-81661000D02*
X161738000Y-86801000D01*
X164398000Y-81661000D02*
X164398000Y-86801000D01*
X161738000Y-81661000D02*
X164398000Y-81661000D01*
X161738000Y-80391000D02*
X161738000Y-79061000D01*
X161738000Y-79061000D02*
X163068000Y-79061000D01*
X157293000Y-79061000D02*
X158623000Y-79061000D01*
X157293000Y-80391000D02*
X157293000Y-79061000D01*
X157293000Y-81661000D02*
X159953000Y-81661000D01*
X159953000Y-81661000D02*
X159953000Y-86801000D01*
X157293000Y-81661000D02*
X157293000Y-86801000D01*
X157293000Y-86801000D02*
X159953000Y-86801000D01*
X160974000Y-73770000D02*
X159074000Y-73770000D01*
X159574000Y-76090000D02*
X160974000Y-76090000D01*
X156780000Y-92092000D02*
X158180000Y-92092000D01*
X158180000Y-89772000D02*
X156280000Y-89772000D01*
X132315000Y-78100000D02*
X131055000Y-78100000D01*
X125495000Y-78100000D02*
X126755000Y-78100000D01*
X132315000Y-81860000D02*
X132315000Y-78100000D01*
X125495000Y-84110000D02*
X125495000Y-78100000D01*
X125670000Y-91500000D02*
X128330000Y-91500000D01*
X125670000Y-88900000D02*
X125670000Y-91500000D01*
X128330000Y-88900000D02*
X128330000Y-91500000D01*
X125670000Y-88900000D02*
X128330000Y-88900000D01*
X125670000Y-87630000D02*
X125670000Y-86300000D01*
X125670000Y-86300000D02*
X127000000Y-86300000D01*
X130540000Y-100750000D02*
X135040000Y-100750000D01*
X129290000Y-96750000D02*
X129290000Y-98250000D01*
X135040000Y-94250000D02*
X130540000Y-94250000D01*
X136290000Y-98250000D02*
X136290000Y-96750000D01*
X124118000Y-98560000D02*
X124118000Y-99560000D01*
X125818000Y-99560000D02*
X125818000Y-98560000D01*
X150555000Y-97215000D02*
X150555000Y-94555000D01*
X142875000Y-97215000D02*
X150555000Y-97215000D01*
X142875000Y-94555000D02*
X150555000Y-94555000D01*
X142875000Y-97215000D02*
X142875000Y-94555000D01*
X141605000Y-97215000D02*
X140275000Y-97215000D01*
X140275000Y-97215000D02*
X140275000Y-95885000D01*
X125975000Y-104810000D02*
X125975000Y-106010000D01*
X124215000Y-106010000D02*
X124215000Y-104810000D01*
D13*
X147010000Y-100640000D02*
X147010000Y-107640000D01*
X140010000Y-100640000D02*
X147010000Y-100640000D01*
X141010000Y-107140000D02*
G75*
G03X141010000Y-107140000I-500000J0D01*
G01*
X140010000Y-105640000D02*
X142010000Y-107640000D01*
X142010000Y-107640000D02*
X147010000Y-107640000D01*
X140010000Y-105640000D02*
X140010000Y-100640000D01*
X148265000Y-105640000D02*
X148265000Y-100640000D01*
X150265000Y-107640000D02*
X155265000Y-107640000D01*
X148265000Y-105640000D02*
X150265000Y-107640000D01*
X149265000Y-107140000D02*
G75*
G03X149265000Y-107140000I-500000J0D01*
G01*
X148265000Y-100640000D02*
X155265000Y-100640000D01*
X155265000Y-100640000D02*
X155265000Y-107640000D01*
D12*
X136290000Y-106505000D02*
X136290000Y-105005000D01*
X135040000Y-102505000D02*
X130540000Y-102505000D01*
X129290000Y-105005000D02*
X129290000Y-106505000D01*
X130540000Y-109005000D02*
X135040000Y-109005000D01*
D14*
X158345000Y-101957000D02*
X158345000Y-102132000D01*
X161695000Y-101957000D02*
X161695000Y-102207000D01*
X161695000Y-105307000D02*
X161695000Y-105057000D01*
X158345000Y-105307000D02*
X158345000Y-105057000D01*
X158345000Y-101957000D02*
X161695000Y-101957000D01*
X158345000Y-105307000D02*
X161695000Y-105307000D01*
X158345000Y-102132000D02*
X157095000Y-102132000D01*
D12*
X162500000Y-89475000D02*
X163830000Y-89475000D01*
X162500000Y-90805000D02*
X162500000Y-89475000D01*
X162500000Y-92075000D02*
X165160000Y-92075000D01*
X165160000Y-92075000D02*
X165160000Y-99755000D01*
X162500000Y-92075000D02*
X162500000Y-99755000D01*
X162500000Y-99755000D02*
X165160000Y-99755000D01*
D14*
X133564380Y-90677904D02*
X134373904Y-90677904D01*
X134469142Y-90630285D01*
X134516761Y-90582666D01*
X134564380Y-90487428D01*
X134564380Y-90296952D01*
X134516761Y-90201714D01*
X134469142Y-90154095D01*
X134373904Y-90106476D01*
X133564380Y-90106476D01*
X133897714Y-89201714D02*
X134564380Y-89201714D01*
X133516761Y-89439809D02*
X134231047Y-89677904D01*
X134231047Y-89058857D01*
X128357333Y-85447142D02*
X128309714Y-85494761D01*
X128166857Y-85542380D01*
X128071619Y-85542380D01*
X127928761Y-85494761D01*
X127833523Y-85399523D01*
X127785904Y-85304285D01*
X127738285Y-85113809D01*
X127738285Y-84970952D01*
X127785904Y-84780476D01*
X127833523Y-84685238D01*
X127928761Y-84590000D01*
X128071619Y-84542380D01*
X128166857Y-84542380D01*
X128309714Y-84590000D01*
X128357333Y-84637619D01*
X129309714Y-85542380D02*
X128738285Y-85542380D01*
X129024000Y-85542380D02*
X129024000Y-84542380D01*
X128928761Y-84685238D01*
X128833523Y-84780476D01*
X128738285Y-84828095D01*
X130389333Y-89991142D02*
X130341714Y-90038761D01*
X130198857Y-90086380D01*
X130103619Y-90086380D01*
X129960761Y-90038761D01*
X129865523Y-89943523D01*
X129817904Y-89848285D01*
X129770285Y-89657809D01*
X129770285Y-89514952D01*
X129817904Y-89324476D01*
X129865523Y-89229238D01*
X129960761Y-89134000D01*
X130103619Y-89086380D01*
X130198857Y-89086380D01*
X130341714Y-89134000D01*
X130389333Y-89181619D01*
X130770285Y-89181619D02*
X130817904Y-89134000D01*
X130913142Y-89086380D01*
X131151238Y-89086380D01*
X131246476Y-89134000D01*
X131294095Y-89181619D01*
X131341714Y-89276857D01*
X131341714Y-89372095D01*
X131294095Y-89514952D01*
X130722666Y-90086380D01*
X131341714Y-90086380D01*
X136231333Y-93067142D02*
X136183714Y-93114761D01*
X136040857Y-93162380D01*
X135945619Y-93162380D01*
X135802761Y-93114761D01*
X135707523Y-93019523D01*
X135659904Y-92924285D01*
X135612285Y-92733809D01*
X135612285Y-92590952D01*
X135659904Y-92400476D01*
X135707523Y-92305238D01*
X135802761Y-92210000D01*
X135945619Y-92162380D01*
X136040857Y-92162380D01*
X136183714Y-92210000D01*
X136231333Y-92257619D01*
X137136095Y-92162380D02*
X136659904Y-92162380D01*
X136612285Y-92638571D01*
X136659904Y-92590952D01*
X136755142Y-92543333D01*
X136993238Y-92543333D01*
X137088476Y-92590952D01*
X137136095Y-92638571D01*
X137183714Y-92733809D01*
X137183714Y-92971904D01*
X137136095Y-93067142D01*
X137088476Y-93114761D01*
X136993238Y-93162380D01*
X136755142Y-93162380D01*
X136659904Y-93114761D01*
X136612285Y-93067142D01*
X132945142Y-76874666D02*
X132992761Y-76922285D01*
X133040380Y-77065142D01*
X133040380Y-77160380D01*
X132992761Y-77303238D01*
X132897523Y-77398476D01*
X132802285Y-77446095D01*
X132611809Y-77493714D01*
X132468952Y-77493714D01*
X132278476Y-77446095D01*
X132183238Y-77398476D01*
X132088000Y-77303238D01*
X132040380Y-77160380D01*
X132040380Y-77065142D01*
X132088000Y-76922285D01*
X132135619Y-76874666D01*
X132373714Y-76017523D02*
X133040380Y-76017523D01*
X131992761Y-76255619D02*
X132707047Y-76493714D01*
X132707047Y-75874666D01*
X129389142Y-72810666D02*
X129436761Y-72858285D01*
X129484380Y-73001142D01*
X129484380Y-73096380D01*
X129436761Y-73239238D01*
X129341523Y-73334476D01*
X129246285Y-73382095D01*
X129055809Y-73429714D01*
X128912952Y-73429714D01*
X128722476Y-73382095D01*
X128627238Y-73334476D01*
X128532000Y-73239238D01*
X128484380Y-73096380D01*
X128484380Y-73001142D01*
X128532000Y-72858285D01*
X128579619Y-72810666D01*
X128484380Y-72477333D02*
X128484380Y-71858285D01*
X128865333Y-72191619D01*
X128865333Y-72048761D01*
X128912952Y-71953523D01*
X128960571Y-71905904D01*
X129055809Y-71858285D01*
X129293904Y-71858285D01*
X129389142Y-71905904D01*
X129436761Y-71953523D01*
X129484380Y-72048761D01*
X129484380Y-72334476D01*
X129436761Y-72429714D01*
X129389142Y-72477333D01*
X162258476Y-78513380D02*
X162258476Y-77513380D01*
X162591809Y-78227666D01*
X162925142Y-77513380D01*
X162925142Y-78513380D01*
X163925142Y-78513380D02*
X163353714Y-78513380D01*
X163639428Y-78513380D02*
X163639428Y-77513380D01*
X163544190Y-77656238D01*
X163448952Y-77751476D01*
X163353714Y-77799095D01*
X157813476Y-78513380D02*
X157813476Y-77513380D01*
X158146809Y-78227666D01*
X158480142Y-77513380D01*
X158480142Y-78513380D01*
X159146809Y-77513380D02*
X159242047Y-77513380D01*
X159337285Y-77561000D01*
X159384904Y-77608619D01*
X159432523Y-77703857D01*
X159480142Y-77894333D01*
X159480142Y-78132428D01*
X159432523Y-78322904D01*
X159384904Y-78418142D01*
X159337285Y-78465761D01*
X159242047Y-78513380D01*
X159146809Y-78513380D01*
X159051571Y-78465761D01*
X159003952Y-78418142D01*
X158956333Y-78322904D01*
X158908714Y-78132428D01*
X158908714Y-77894333D01*
X158956333Y-77703857D01*
X159003952Y-77608619D01*
X159051571Y-77561000D01*
X159146809Y-77513380D01*
X159512095Y-72382380D02*
X159512095Y-73191904D01*
X159559714Y-73287142D01*
X159607333Y-73334761D01*
X159702571Y-73382380D01*
X159893047Y-73382380D01*
X159988285Y-73334761D01*
X160035904Y-73287142D01*
X160083523Y-73191904D01*
X160083523Y-72382380D01*
X161083523Y-73382380D02*
X160512095Y-73382380D01*
X160797809Y-73382380D02*
X160797809Y-72382380D01*
X160702571Y-72525238D01*
X160607333Y-72620476D01*
X160512095Y-72668095D01*
X156718095Y-88384380D02*
X156718095Y-89193904D01*
X156765714Y-89289142D01*
X156813333Y-89336761D01*
X156908571Y-89384380D01*
X157099047Y-89384380D01*
X157194285Y-89336761D01*
X157241904Y-89289142D01*
X157289523Y-89193904D01*
X157289523Y-88384380D01*
X157718095Y-88479619D02*
X157765714Y-88432000D01*
X157860952Y-88384380D01*
X158099047Y-88384380D01*
X158194285Y-88432000D01*
X158241904Y-88479619D01*
X158289523Y-88574857D01*
X158289523Y-88670095D01*
X158241904Y-88812952D01*
X157670476Y-89384380D01*
X158289523Y-89384380D01*
X123857380Y-80771904D02*
X124666904Y-80771904D01*
X124762142Y-80724285D01*
X124809761Y-80676666D01*
X124857380Y-80581428D01*
X124857380Y-80390952D01*
X124809761Y-80295714D01*
X124762142Y-80248095D01*
X124666904Y-80200476D01*
X123857380Y-80200476D01*
X123857380Y-79819523D02*
X123857380Y-79200476D01*
X124238333Y-79533809D01*
X124238333Y-79390952D01*
X124285952Y-79295714D01*
X124333571Y-79248095D01*
X124428809Y-79200476D01*
X124666904Y-79200476D01*
X124762142Y-79248095D01*
X124809761Y-79295714D01*
X124857380Y-79390952D01*
X124857380Y-79676666D01*
X124809761Y-79771904D01*
X124762142Y-79819523D01*
X124896571Y-91003238D02*
X124944190Y-90860380D01*
X124991809Y-90812761D01*
X125087047Y-90765142D01*
X125229904Y-90765142D01*
X125325142Y-90812761D01*
X125372761Y-90860380D01*
X125420380Y-90955619D01*
X125420380Y-91336571D01*
X124420380Y-91336571D01*
X124420380Y-91003238D01*
X124468000Y-90908000D01*
X124515619Y-90860380D01*
X124610857Y-90812761D01*
X124706095Y-90812761D01*
X124801333Y-90860380D01*
X124848952Y-90908000D01*
X124896571Y-91003238D01*
X124896571Y-91336571D01*
X125134666Y-90384190D02*
X125134666Y-89908000D01*
X125420380Y-90479428D02*
X124420380Y-90146095D01*
X125420380Y-89812761D01*
X124420380Y-89622285D02*
X124420380Y-89050857D01*
X125420380Y-89336571D02*
X124420380Y-89336571D01*
X124420380Y-88860380D02*
X124420380Y-88288952D01*
X125420380Y-88574666D02*
X124420380Y-88574666D01*
X125420380Y-87431809D02*
X125420380Y-88003238D01*
X125420380Y-87717523D02*
X124420380Y-87717523D01*
X124563238Y-87812761D01*
X124658476Y-87908000D01*
X124706095Y-88003238D01*
X126928571Y-98988333D02*
X126976190Y-98845476D01*
X127023809Y-98797857D01*
X127119047Y-98750238D01*
X127261904Y-98750238D01*
X127357142Y-98797857D01*
X127404761Y-98845476D01*
X127452380Y-98940714D01*
X127452380Y-99321666D01*
X126452380Y-99321666D01*
X126452380Y-98988333D01*
X126500000Y-98893095D01*
X126547619Y-98845476D01*
X126642857Y-98797857D01*
X126738095Y-98797857D01*
X126833333Y-98845476D01*
X126880952Y-98893095D01*
X126928571Y-98988333D01*
X126928571Y-99321666D01*
X126452380Y-98131190D02*
X126452380Y-97940714D01*
X126500000Y-97845476D01*
X126595238Y-97750238D01*
X126785714Y-97702619D01*
X127119047Y-97702619D01*
X127309523Y-97750238D01*
X127404761Y-97845476D01*
X127452380Y-97940714D01*
X127452380Y-98131190D01*
X127404761Y-98226428D01*
X127309523Y-98321666D01*
X127119047Y-98369285D01*
X126785714Y-98369285D01*
X126595238Y-98321666D01*
X126500000Y-98226428D01*
X126452380Y-98131190D01*
X126452380Y-97083571D02*
X126452380Y-96893095D01*
X126500000Y-96797857D01*
X126595238Y-96702619D01*
X126785714Y-96655000D01*
X127119047Y-96655000D01*
X127309523Y-96702619D01*
X127404761Y-96797857D01*
X127452380Y-96893095D01*
X127452380Y-97083571D01*
X127404761Y-97178809D01*
X127309523Y-97274047D01*
X127119047Y-97321666D01*
X126785714Y-97321666D01*
X126595238Y-97274047D01*
X126500000Y-97178809D01*
X126452380Y-97083571D01*
X126452380Y-96369285D02*
X126452380Y-95797857D01*
X127452380Y-96083571D02*
X126452380Y-96083571D01*
X127452380Y-94940714D02*
X127452380Y-95512142D01*
X127452380Y-95226428D02*
X126452380Y-95226428D01*
X126595238Y-95321666D01*
X126690476Y-95416904D01*
X126738095Y-95512142D01*
X124801333Y-96369142D02*
X124753714Y-96416761D01*
X124610857Y-96464380D01*
X124515619Y-96464380D01*
X124372761Y-96416761D01*
X124277523Y-96321523D01*
X124229904Y-96226285D01*
X124182285Y-96035809D01*
X124182285Y-95892952D01*
X124229904Y-95702476D01*
X124277523Y-95607238D01*
X124372761Y-95512000D01*
X124515619Y-95464380D01*
X124610857Y-95464380D01*
X124753714Y-95512000D01*
X124801333Y-95559619D01*
X125658476Y-95464380D02*
X125468000Y-95464380D01*
X125372761Y-95512000D01*
X125325142Y-95559619D01*
X125229904Y-95702476D01*
X125182285Y-95892952D01*
X125182285Y-96273904D01*
X125229904Y-96369142D01*
X125277523Y-96416761D01*
X125372761Y-96464380D01*
X125563238Y-96464380D01*
X125658476Y-96416761D01*
X125706095Y-96369142D01*
X125753714Y-96273904D01*
X125753714Y-96035809D01*
X125706095Y-95940571D01*
X125658476Y-95892952D01*
X125563238Y-95845333D01*
X125372761Y-95845333D01*
X125277523Y-95892952D01*
X125229904Y-95940571D01*
X125182285Y-96035809D01*
X139727380Y-98146904D02*
X138727380Y-98146904D01*
X138727380Y-97765952D01*
X138775000Y-97670714D01*
X138822619Y-97623095D01*
X138917857Y-97575476D01*
X139060714Y-97575476D01*
X139155952Y-97623095D01*
X139203571Y-97670714D01*
X139251190Y-97765952D01*
X139251190Y-98146904D01*
X139727380Y-96575476D02*
X139251190Y-96908809D01*
X139727380Y-97146904D02*
X138727380Y-97146904D01*
X138727380Y-96765952D01*
X138775000Y-96670714D01*
X138822619Y-96623095D01*
X138917857Y-96575476D01*
X139060714Y-96575476D01*
X139155952Y-96623095D01*
X139203571Y-96670714D01*
X139251190Y-96765952D01*
X139251190Y-97146904D01*
X138727380Y-95956428D02*
X138727380Y-95765952D01*
X138775000Y-95670714D01*
X138870238Y-95575476D01*
X139060714Y-95527857D01*
X139394047Y-95527857D01*
X139584523Y-95575476D01*
X139679761Y-95670714D01*
X139727380Y-95765952D01*
X139727380Y-95956428D01*
X139679761Y-96051666D01*
X139584523Y-96146904D01*
X139394047Y-96194523D01*
X139060714Y-96194523D01*
X138870238Y-96146904D01*
X138775000Y-96051666D01*
X138727380Y-95956428D01*
X138775000Y-94575476D02*
X138727380Y-94670714D01*
X138727380Y-94813571D01*
X138775000Y-94956428D01*
X138870238Y-95051666D01*
X138965476Y-95099285D01*
X139155952Y-95146904D01*
X139298809Y-95146904D01*
X139489285Y-95099285D01*
X139584523Y-95051666D01*
X139679761Y-94956428D01*
X139727380Y-94813571D01*
X139727380Y-94718333D01*
X139679761Y-94575476D01*
X139632142Y-94527857D01*
X139298809Y-94527857D01*
X139298809Y-94718333D01*
X139727380Y-93575476D02*
X139727380Y-94146904D01*
X139727380Y-93861190D02*
X138727380Y-93861190D01*
X138870238Y-93956428D01*
X138965476Y-94051666D01*
X139013095Y-94146904D01*
X124928333Y-102687380D02*
X124595000Y-102211190D01*
X124356904Y-102687380D02*
X124356904Y-101687380D01*
X124737857Y-101687380D01*
X124833095Y-101735000D01*
X124880714Y-101782619D01*
X124928333Y-101877857D01*
X124928333Y-102020714D01*
X124880714Y-102115952D01*
X124833095Y-102163571D01*
X124737857Y-102211190D01*
X124356904Y-102211190D01*
X125880714Y-102687380D02*
X125309285Y-102687380D01*
X125595000Y-102687380D02*
X125595000Y-101687380D01*
X125499761Y-101830238D01*
X125404523Y-101925476D01*
X125309285Y-101973095D01*
D15*
X142711714Y-109564714D02*
X142457714Y-109201857D01*
X142276285Y-109564714D02*
X142276285Y-108802714D01*
X142566571Y-108802714D01*
X142639142Y-108839000D01*
X142675428Y-108875285D01*
X142711714Y-108947857D01*
X142711714Y-109056714D01*
X142675428Y-109129285D01*
X142639142Y-109165571D01*
X142566571Y-109201857D01*
X142276285Y-109201857D01*
X143038285Y-109165571D02*
X143292285Y-109165571D01*
X143401142Y-109564714D02*
X143038285Y-109564714D01*
X143038285Y-108802714D01*
X143401142Y-108802714D01*
X143981714Y-109165571D02*
X143727714Y-109165571D01*
X143727714Y-109564714D02*
X143727714Y-108802714D01*
X144090571Y-108802714D01*
X144780000Y-109564714D02*
X144344571Y-109564714D01*
X144562285Y-109564714D02*
X144562285Y-108802714D01*
X144489714Y-108911571D01*
X144417142Y-108984142D01*
X144344571Y-109020428D01*
X151257000Y-109564714D02*
X151003000Y-109201857D01*
X150821571Y-109564714D02*
X150821571Y-108802714D01*
X151111857Y-108802714D01*
X151184428Y-108839000D01*
X151220714Y-108875285D01*
X151257000Y-108947857D01*
X151257000Y-109056714D01*
X151220714Y-109129285D01*
X151184428Y-109165571D01*
X151111857Y-109201857D01*
X150821571Y-109201857D01*
X151982714Y-108839000D02*
X151910142Y-108802714D01*
X151801285Y-108802714D01*
X151692428Y-108839000D01*
X151619857Y-108911571D01*
X151583571Y-108984142D01*
X151547285Y-109129285D01*
X151547285Y-109238142D01*
X151583571Y-109383285D01*
X151619857Y-109455857D01*
X151692428Y-109528428D01*
X151801285Y-109564714D01*
X151873857Y-109564714D01*
X151982714Y-109528428D01*
X152019000Y-109492142D01*
X152019000Y-109238142D01*
X151873857Y-109238142D01*
X152744714Y-109564714D02*
X152309285Y-109564714D01*
X152527000Y-109564714D02*
X152527000Y-108802714D01*
X152454428Y-108911571D01*
X152381857Y-108984142D01*
X152309285Y-109020428D01*
D14*
X127452380Y-106433809D02*
X126976190Y-106767142D01*
X127452380Y-107005238D02*
X126452380Y-107005238D01*
X126452380Y-106624285D01*
X126500000Y-106529047D01*
X126547619Y-106481428D01*
X126642857Y-106433809D01*
X126785714Y-106433809D01*
X126880952Y-106481428D01*
X126928571Y-106529047D01*
X126976190Y-106624285D01*
X126976190Y-107005238D01*
X127404761Y-106052857D02*
X127452380Y-105910000D01*
X127452380Y-105671904D01*
X127404761Y-105576666D01*
X127357142Y-105529047D01*
X127261904Y-105481428D01*
X127166666Y-105481428D01*
X127071428Y-105529047D01*
X127023809Y-105576666D01*
X126976190Y-105671904D01*
X126928571Y-105862380D01*
X126880952Y-105957619D01*
X126833333Y-106005238D01*
X126738095Y-106052857D01*
X126642857Y-106052857D01*
X126547619Y-106005238D01*
X126500000Y-105957619D01*
X126452380Y-105862380D01*
X126452380Y-105624285D01*
X126500000Y-105481428D01*
X126452380Y-105195714D02*
X126452380Y-104624285D01*
X127452380Y-104910000D02*
X126452380Y-104910000D01*
X127452380Y-103767142D02*
X127452380Y-104338571D01*
X127452380Y-104052857D02*
X126452380Y-104052857D01*
X126595238Y-104148095D01*
X126690476Y-104243333D01*
X126738095Y-104338571D01*
X159258095Y-100484380D02*
X159258095Y-101293904D01*
X159305714Y-101389142D01*
X159353333Y-101436761D01*
X159448571Y-101484380D01*
X159639047Y-101484380D01*
X159734285Y-101436761D01*
X159781904Y-101389142D01*
X159829523Y-101293904D01*
X159829523Y-100484380D01*
X160781904Y-100484380D02*
X160305714Y-100484380D01*
X160258095Y-100960571D01*
X160305714Y-100912952D01*
X160400952Y-100865333D01*
X160639047Y-100865333D01*
X160734285Y-100912952D01*
X160781904Y-100960571D01*
X160829523Y-101055809D01*
X160829523Y-101293904D01*
X160781904Y-101389142D01*
X160734285Y-101436761D01*
X160639047Y-101484380D01*
X160400952Y-101484380D01*
X160305714Y-101436761D01*
X160258095Y-101389142D01*
X160068000Y-87927380D02*
X160306095Y-88927380D01*
X160496571Y-88213095D01*
X160687047Y-88927380D01*
X160925142Y-87927380D01*
X161306095Y-88403571D02*
X161639428Y-88403571D01*
X161782285Y-88927380D02*
X161306095Y-88927380D01*
X161306095Y-87927380D01*
X161782285Y-87927380D01*
X162210857Y-88927380D02*
X162210857Y-87927380D01*
X163210857Y-87975000D02*
X163115619Y-87927380D01*
X162972761Y-87927380D01*
X162829904Y-87975000D01*
X162734666Y-88070238D01*
X162687047Y-88165476D01*
X162639428Y-88355952D01*
X162639428Y-88498809D01*
X162687047Y-88689285D01*
X162734666Y-88784523D01*
X162829904Y-88879761D01*
X162972761Y-88927380D01*
X163068000Y-88927380D01*
X163210857Y-88879761D01*
X163258476Y-88832142D01*
X163258476Y-88498809D01*
X163068000Y-88498809D01*
X163687047Y-88927380D02*
X163687047Y-87927380D01*
X163687047Y-88403571D02*
X164258476Y-88403571D01*
X164258476Y-88927380D02*
X164258476Y-87927380D01*
X164591809Y-87927380D02*
X165163238Y-87927380D01*
X164877523Y-88927380D02*
X164877523Y-87927380D01*
X166020380Y-88927380D02*
X165448952Y-88927380D01*
X165734666Y-88927380D02*
X165734666Y-87927380D01*
X165639428Y-88070238D01*
X165544190Y-88165476D01*
X165448952Y-88213095D01*
M02*
