M48
; DRILL file {KiCad 5.1.4} date Tue 29 Oct 2019 08:04:56 PM CDT
; FORMAT={-:-/ absolute / inch / decimal}
; #@! TF.CreationDate,2019-10-29T20:04:56-05:00
; #@! TF.GenerationSoftware,Kicad,Pcbnew,5.1.4
; #@! TF.FileFunction,Plated,1,2,PTH
FMAT,2
INCH
T1C0.0080
T2C0.0276
T3C0.0394
T4C0.0433
%
G90
G05
T1
X4.9Y-2.82
X4.9Y-2.86
X4.9Y-2.9
X4.9Y-2.94
X4.9Y-2.98
X4.9Y-3.02
X4.9Y-3.06
X4.9Y-3.1
X4.9Y-3.14
X4.9Y-3.18
X4.9Y-3.22
X4.9Y-3.26
X4.92Y-2.8
X4.92Y-2.84
X4.92Y-2.88
X4.92Y-2.92
X4.92Y-2.96
X4.92Y-3.0
X4.92Y-3.04
X4.92Y-3.08
X4.92Y-3.12
X4.92Y-3.16
X4.92Y-3.2
X4.92Y-3.24
X4.94Y-2.82
X4.94Y-2.86
X4.94Y-2.9
X4.94Y-2.94
X4.94Y-2.98
X4.94Y-3.02
X4.94Y-3.06
X4.94Y-3.1
X4.94Y-3.14
X4.94Y-3.18
X4.96Y-2.8
X4.96Y-2.84
X4.96Y-2.88
X4.96Y-2.92
X4.96Y-3.12
X4.96Y-3.16
X4.96Y-3.2
X4.98Y-2.82
X4.98Y-2.86
X4.98Y-2.9
X4.98Y-2.94
X4.98Y-3.1
X4.98Y-3.14
X4.98Y-3.18
X5.0Y-2.8
X5.0Y-2.84
X5.0Y-2.88
X5.0Y-2.92
X5.0Y-3.12
X5.0Y-3.16
X5.0Y-3.2
X5.02Y-2.82
X5.02Y-2.86
X5.02Y-2.9
X5.02Y-2.94
X5.02Y-3.1
X5.02Y-3.14
X5.02Y-3.18
X5.04Y-2.8
X5.04Y-2.84
X5.04Y-2.88
X5.04Y-2.92
X5.04Y-3.12
X5.04Y-3.16
X5.04Y-3.2
X5.06Y-2.82
X5.06Y-2.86
X5.06Y-2.9
X5.06Y-2.94
X5.06Y-3.1
X5.06Y-3.14
X5.06Y-3.18
X5.08Y-2.8
X5.08Y-2.84
X5.08Y-2.88
X5.08Y-2.92
X5.08Y-3.12
X5.08Y-3.16
X5.08Y-3.2
X5.1Y-3.1
X5.1Y-3.14
X5.1Y-3.18
X5.12Y-3.12
X5.12Y-3.16
X5.12Y-3.2
X5.14Y-3.1
X5.14Y-3.14
X5.14Y-3.18
X5.16Y-3.12
X5.16Y-3.16
X5.16Y-3.2
X5.18Y-3.1
X5.18Y-3.14
X5.18Y-3.18
X5.2Y-3.12
X5.2Y-3.16
X5.2Y-3.2
X5.22Y-3.1
X5.22Y-3.14
X5.22Y-3.18
X5.25Y-3.025
X5.25Y-3.05
X5.25Y-3.3
X5.3997Y-3.5177
X5.45Y-2.95
X5.45Y-3.25
X5.48Y-3.42
X5.525Y-3.375
X5.525Y-3.65
X5.56Y-3.04
X5.56Y-3.08
X5.56Y-3.12
X5.56Y-3.16
X5.56Y-3.2
X5.6Y-3.04
X5.6Y-3.08
X5.6Y-3.12
X5.6Y-3.16
X5.6Y-3.2
X5.6Y-3.4
X5.625Y-3.675
X5.64Y-3.04
X5.64Y-3.08
X5.64Y-3.12
X5.64Y-3.16
X5.64Y-3.2
X5.68Y-3.04
X5.68Y-3.08
X5.68Y-3.12
X5.68Y-3.16
X5.68Y-3.2
X5.72Y-3.04
X5.72Y-3.08
X5.72Y-3.12
X5.72Y-3.16
X5.72Y-3.2
X5.75Y-3.4
X5.775Y-3.425
X6.025Y-3.65
X6.1Y-3.1
X6.1Y-3.35
X6.1431Y-2.875
X6.275Y-4.1
X6.28Y-2.86
X6.34Y-3.62
X6.35Y-3.05
X6.4Y-4.0
T2
X5.55Y-4.1
X5.65Y-4.0
X5.75Y-4.1
X5.875Y-4.1
X5.975Y-4.0
X6.075Y-4.1
T3
X5.575Y-3.775
X5.675Y-3.775
X5.775Y-3.775
X5.875Y-3.775
X5.0Y-3.45
X5.0Y-3.55
X6.45Y-3.575
X6.45Y-3.675
X6.45Y-3.775
X6.45Y-3.875
X6.42Y-3.165
X6.42Y-3.265
X6.42Y-3.365
X6.245Y-3.165
X6.245Y-3.265
X6.245Y-3.365
T4
X5.1Y-3.75
X5.1Y-3.9272
X5.3559Y-3.75
X5.3559Y-3.9272
X5.1Y-4.075
X5.1Y-4.2522
X5.3559Y-4.075
X5.3559Y-4.2522
T0
M30
