%TF.GenerationSoftware,KiCad,Pcbnew,5.1.4*%
%TF.CreationDate,2019-10-29T20:04:43-05:00*%
%TF.ProjectId,pet_feeder,7065745f-6665-4656-9465-722e6b696361,rev?*%
%TF.SameCoordinates,Original*%
%TF.FileFunction,Paste,Top*%
%TF.FilePolarity,Positive*%
%FSLAX46Y46*%
G04 Gerber Fmt 4.6, Leading zero omitted, Abs format (unit mm)*
G04 Created by KiCad (PCBNEW 5.1.4) date 2019-10-29 20:04:43*
%MOMM*%
%LPD*%
G04 APERTURE LIST*
%ADD10R,5.000000X5.000000*%
%ADD11R,2.000000X0.900000*%
%ADD12R,0.900000X2.000000*%
%ADD13R,1.500000X1.250000*%
%ADD14R,1.250000X1.500000*%
%ADD15R,1.500000X0.400000*%
%ADD16R,3.800000X2.000000*%
%ADD17R,1.500000X2.000000*%
%ADD18R,1.300000X1.500000*%
%ADD19R,1.450000X0.450000*%
G04 APERTURE END LIST*
D10*
X143145000Y-79255000D03*
D11*
X135645000Y-71755000D03*
X135645000Y-73025000D03*
X135645000Y-74295000D03*
X135645000Y-75565000D03*
X135645000Y-76835000D03*
X135645000Y-78105000D03*
X135645000Y-79375000D03*
X135645000Y-80645000D03*
X135645000Y-81915000D03*
X135645000Y-83185000D03*
X135645000Y-84455000D03*
X135645000Y-85725000D03*
X135645000Y-86995000D03*
X135645000Y-88265000D03*
D12*
X138430000Y-89265000D03*
X139700000Y-89265000D03*
X140970000Y-89265000D03*
X142240000Y-89265000D03*
X143510000Y-89265000D03*
X144780000Y-89265000D03*
X146050000Y-89265000D03*
X147320000Y-89265000D03*
X148590000Y-89265000D03*
X149860000Y-89265000D03*
D11*
X152645000Y-88265000D03*
X152645000Y-86995000D03*
X152645000Y-85725000D03*
X152645000Y-84455000D03*
X152645000Y-83185000D03*
X152645000Y-81915000D03*
X152645000Y-80645000D03*
X152645000Y-79375000D03*
X152645000Y-78105000D03*
X152645000Y-76835000D03*
X152645000Y-75565000D03*
X152645000Y-74295000D03*
X152645000Y-73025000D03*
X152645000Y-71755000D03*
D13*
X130322000Y-85852000D03*
X132822000Y-85852000D03*
X132842000Y-87884000D03*
X130342000Y-87884000D03*
X131846000Y-92456000D03*
X134346000Y-92456000D03*
D14*
X132588000Y-71902000D03*
X132588000Y-74402000D03*
X130556000Y-71902000D03*
X130556000Y-74402000D03*
D15*
X158944000Y-74280000D03*
X158944000Y-74930000D03*
X158944000Y-75580000D03*
X161604000Y-75580000D03*
X161604000Y-74930000D03*
X161604000Y-74280000D03*
X158810000Y-90282000D03*
X158810000Y-90932000D03*
X158810000Y-91582000D03*
X156150000Y-91582000D03*
X156150000Y-90932000D03*
X156150000Y-90282000D03*
D16*
X128905000Y-76860000D03*
D17*
X128905000Y-83160000D03*
X131205000Y-83160000D03*
X126605000Y-83160000D03*
D14*
X124968000Y-100310000D03*
X124968000Y-97810000D03*
D18*
X125095000Y-106760000D03*
X125095000Y-104060000D03*
D19*
X157820000Y-102657000D03*
X157820000Y-103307000D03*
X157820000Y-103957000D03*
X157820000Y-104607000D03*
X162220000Y-104607000D03*
X162220000Y-103957000D03*
X162220000Y-103307000D03*
X162220000Y-102657000D03*
M02*
