%TF.GenerationSoftware,KiCad,Pcbnew,(5.0.1)-3*%
%TF.CreationDate,2019-10-12T21:06:36-05:00*%
%TF.ProjectId,pet_feeder,7065745F6665656465722E6B69636164,rev?*%
%TF.SameCoordinates,Original*%
%TF.FileFunction,Copper,L1,Top,Signal*%
%TF.FilePolarity,Positive*%
%FSLAX46Y46*%
G04 Gerber Fmt 4.6, Leading zero omitted, Abs format (unit mm)*
G04 Created by KiCad (PCBNEW (5.0.1)-3) date 10/12/2019 9:06:36 PM*
%MOMM*%
%LPD*%
G01*
G04 APERTURE LIST*
%ADD10C,0.700000*%
%ADD11R,1.500000X1.250000*%
%ADD12R,1.250000X1.500000*%
%ADD13R,1.700000X1.700000*%
%ADD14O,1.700000X1.700000*%
%ADD15C,2.000000*%
%ADD16R,1.500000X0.400000*%
%ADD17R,3.800000X2.000000*%
%ADD18R,1.500000X2.000000*%
%ADD19R,5.000000X5.000000*%
%ADD20R,2.000000X0.900000*%
%ADD21R,0.900000X2.000000*%
%ADD22C,0.457200*%
%ADD23C,0.762000*%
%ADD24C,0.254000*%
%ADD25C,0.635000*%
G04 APERTURE END LIST*
D10*
X124587000Y-77978000D03*
X125857000Y-75438000D03*
X125857000Y-76708000D03*
X124587000Y-79248000D03*
X125857000Y-77978000D03*
X124587000Y-75438000D03*
X124587000Y-76708000D03*
X125857000Y-79248000D03*
X125095000Y-74168000D03*
X126365000Y-71628000D03*
X127635000Y-74168000D03*
X127635000Y-71628000D03*
X126365000Y-72898000D03*
X126365000Y-74168000D03*
X125095000Y-71628000D03*
X125095000Y-72898000D03*
X127635000Y-72898000D03*
X144399000Y-81280000D03*
X143129000Y-81280000D03*
X141859000Y-81280000D03*
X141859000Y-80010000D03*
X143129000Y-80010000D03*
X144399000Y-80010000D03*
X144399000Y-78740000D03*
X143129000Y-78740000D03*
X141859000Y-78740000D03*
X144399000Y-77470000D03*
X143129000Y-77470000D03*
D11*
X130322000Y-85852000D03*
X132822000Y-85852000D03*
X132842000Y-87884000D03*
X130342000Y-87884000D03*
X131846000Y-92456000D03*
X134346000Y-92456000D03*
D12*
X132588000Y-71902000D03*
X132588000Y-74402000D03*
X130556000Y-71902000D03*
X130556000Y-74402000D03*
D13*
X127000000Y-87630000D03*
D14*
X127000000Y-90170000D03*
D13*
X163068000Y-80391000D03*
D14*
X163068000Y-82931000D03*
X163068000Y-85471000D03*
D13*
X141605000Y-95885000D03*
D14*
X144145000Y-95885000D03*
X146685000Y-95885000D03*
X149225000Y-95885000D03*
D13*
X162052000Y-94488000D03*
D14*
X159512000Y-94488000D03*
X156972000Y-94488000D03*
X154432000Y-94488000D03*
X158623000Y-85471000D03*
X158623000Y-82931000D03*
D13*
X158623000Y-80391000D03*
D15*
X129540000Y-99750000D03*
X129540000Y-95250000D03*
X136040000Y-99750000D03*
X136040000Y-95250000D03*
D16*
X158944000Y-74280000D03*
X158944000Y-74930000D03*
X158944000Y-75580000D03*
X161604000Y-75580000D03*
X161604000Y-74930000D03*
X161604000Y-74280000D03*
X158810000Y-90282000D03*
X158810000Y-90932000D03*
X158810000Y-91582000D03*
X156150000Y-91582000D03*
X156150000Y-90932000D03*
X156150000Y-90282000D03*
D17*
X128905000Y-76860000D03*
D18*
X128905000Y-83160000D03*
X131205000Y-83160000D03*
X126605000Y-83160000D03*
D19*
X143145000Y-79255000D03*
D20*
X135645000Y-71755000D03*
X135645000Y-73025000D03*
X135645000Y-74295000D03*
X135645000Y-75565000D03*
X135645000Y-76835000D03*
X135645000Y-78105000D03*
X135645000Y-79375000D03*
X135645000Y-80645000D03*
X135645000Y-81915000D03*
X135645000Y-83185000D03*
X135645000Y-84455000D03*
X135645000Y-85725000D03*
X135645000Y-86995000D03*
X135645000Y-88265000D03*
D21*
X138430000Y-89265000D03*
X139700000Y-89265000D03*
X140970000Y-89265000D03*
X142240000Y-89265000D03*
X143510000Y-89265000D03*
X144780000Y-89265000D03*
X146050000Y-89265000D03*
X147320000Y-89265000D03*
X148590000Y-89265000D03*
X149860000Y-89265000D03*
D20*
X152645000Y-88265000D03*
X152645000Y-86995000D03*
X152645000Y-85725000D03*
X152645000Y-84455000D03*
X152645000Y-83185000D03*
X152645000Y-81915000D03*
X152645000Y-80645000D03*
X152645000Y-79375000D03*
X152645000Y-78105000D03*
X152645000Y-76835000D03*
X152645000Y-75565000D03*
X152645000Y-74295000D03*
X152645000Y-73025000D03*
X152645000Y-71755000D03*
D10*
X141859000Y-77470000D03*
D22*
X156035000Y-73025000D03*
X133350000Y-83820000D03*
X161290000Y-77470000D03*
X139065000Y-86995000D03*
X160655000Y-91440000D03*
X137153001Y-89350001D03*
X146050000Y-86360000D03*
X146685000Y-86995000D03*
X147955000Y-91440000D03*
X149225000Y-91440000D03*
X154940000Y-86995000D03*
X149225000Y-81280000D03*
X154940000Y-85090000D03*
X154940000Y-78740000D03*
D23*
X128905000Y-84435000D02*
X130322000Y-85852000D01*
X128905000Y-83160000D02*
X128905000Y-84435000D01*
X130342000Y-85872000D02*
X130322000Y-85852000D01*
X130342000Y-87884000D02*
X130342000Y-85872000D01*
X128056000Y-90170000D02*
X127000000Y-90170000D01*
X130342000Y-87884000D02*
X128056000Y-90170000D01*
X134346000Y-94944000D02*
X129540000Y-99750000D01*
X134346000Y-92456000D02*
X134346000Y-94944000D01*
D24*
X157480000Y-91659202D02*
X158530798Y-92710000D01*
X157480000Y-90932000D02*
X157480000Y-91659202D01*
X157480000Y-90932000D02*
X158810000Y-90932000D01*
X156150000Y-90932000D02*
X157480000Y-90932000D01*
X162052000Y-93384000D02*
X162052000Y-94488000D01*
X161378000Y-92710000D02*
X162052000Y-93384000D01*
X158530798Y-92710000D02*
X161378000Y-92710000D01*
X158944000Y-74930000D02*
X161604000Y-74930000D01*
X163068000Y-79287000D02*
X163068000Y-80391000D01*
X163068000Y-75390000D02*
X163068000Y-79287000D01*
X162608000Y-74930000D02*
X163068000Y-75390000D01*
X161604000Y-74930000D02*
X162608000Y-74930000D01*
X153899000Y-71755000D02*
X152645000Y-71755000D01*
X154765000Y-71755000D02*
X153899000Y-71755000D01*
X158944000Y-74930000D02*
X157940000Y-74930000D01*
X155575000Y-72565000D02*
X156035000Y-73025000D01*
X155575000Y-72565000D02*
X154765000Y-71755000D01*
X157940000Y-74930000D02*
X155575000Y-72565000D01*
D23*
X127000000Y-83555000D02*
X126605000Y-83160000D01*
X127000000Y-87630000D02*
X127000000Y-83555000D01*
X126605000Y-82566998D02*
X126605000Y-83160000D01*
X132822000Y-85852000D02*
X132822000Y-84348000D01*
X132822000Y-84348000D02*
X133350000Y-83820000D01*
D24*
X161604000Y-75580000D02*
X161604000Y-77156000D01*
X161604000Y-77156000D02*
X161290000Y-77470000D01*
D23*
X136968002Y-74295000D02*
X135645000Y-74295000D01*
X137280001Y-74606999D02*
X136968002Y-74295000D01*
X137280001Y-89223001D02*
X137280001Y-74606999D01*
X137153001Y-89350001D02*
X137280001Y-89223001D01*
X132921001Y-89350001D02*
X137153001Y-89350001D01*
X132842000Y-89271000D02*
X132921001Y-89350001D01*
X132842000Y-87884000D02*
X132842000Y-89271000D01*
X135645000Y-74295000D02*
X135645000Y-73025000D01*
X132695000Y-74295000D02*
X132588000Y-74402000D01*
X135645000Y-74295000D02*
X132695000Y-74295000D01*
X130556000Y-74402000D02*
X132588000Y-74402000D01*
X132588000Y-75914000D02*
X132588000Y-74402000D01*
X132588000Y-80015000D02*
X132588000Y-75914000D01*
X131205000Y-81398000D02*
X132588000Y-80015000D01*
X131205000Y-83160000D02*
X131205000Y-81398000D01*
D24*
X135498000Y-71902000D02*
X135645000Y-71755000D01*
D23*
X132588000Y-71902000D02*
X135498000Y-71902000D01*
D24*
X138430000Y-89265000D02*
X138430000Y-87630000D01*
X138430000Y-87630000D02*
X139065000Y-86995000D01*
X160513000Y-91582000D02*
X160655000Y-91440000D01*
X158810000Y-91582000D02*
X160513000Y-91582000D01*
X136040000Y-92089198D02*
X135400801Y-91449999D01*
X136040000Y-95250000D02*
X136040000Y-92089198D01*
X152645000Y-88969000D02*
X152645000Y-88265000D01*
X149524802Y-92089198D02*
X152645000Y-88969000D01*
X136040000Y-92089198D02*
X149524802Y-92089198D01*
X131846000Y-92944000D02*
X131846000Y-92456000D01*
X129540000Y-95250000D02*
X131846000Y-92944000D01*
X131971000Y-92456000D02*
X131846000Y-92456000D01*
X132977001Y-91449999D02*
X131971000Y-92456000D01*
X135400801Y-91449999D02*
X132977001Y-91449999D01*
X153195000Y-81915000D02*
X152645000Y-81915000D01*
X158275000Y-86995000D02*
X153195000Y-81915000D01*
X161544000Y-86995000D02*
X158275000Y-86995000D01*
X163068000Y-85471000D02*
X161544000Y-86995000D01*
X146050000Y-81610000D02*
X146050000Y-86360000D01*
X152645000Y-75565000D02*
X152095000Y-75565000D01*
X152095000Y-75565000D02*
X146050000Y-81610000D01*
X146685000Y-82245000D02*
X146685000Y-86995000D01*
X152645000Y-76835000D02*
X152095000Y-76835000D01*
X152095000Y-76835000D02*
X146685000Y-82245000D01*
X148590000Y-89265000D02*
X148590000Y-90805000D01*
X148590000Y-90805000D02*
X147955000Y-91440000D01*
X149860000Y-89265000D02*
X149860000Y-90805000D01*
X149860000Y-90805000D02*
X149225000Y-91440000D01*
X156150000Y-89828000D02*
X156150000Y-90282000D01*
X156150000Y-87490750D02*
X156150000Y-89828000D01*
X155171649Y-86512399D02*
X156150000Y-87490750D01*
X154708351Y-86512399D02*
X155171649Y-86512399D01*
X154432000Y-86788750D02*
X154708351Y-86512399D01*
X154432000Y-94488000D02*
X154432000Y-86788750D01*
X153797000Y-80645000D02*
X152645000Y-80645000D01*
X158623000Y-85471000D02*
X153797000Y-80645000D01*
X154940000Y-91376000D02*
X154940000Y-86995000D01*
X156150000Y-91582000D02*
X155146000Y-91582000D01*
X155146000Y-91582000D02*
X154940000Y-91376000D01*
X152076711Y-78105000D02*
X152645000Y-78105000D01*
X149225000Y-80956711D02*
X152076711Y-78105000D01*
X149225000Y-81280000D02*
X149225000Y-80956711D01*
X152645000Y-84455000D02*
X154305000Y-84455000D01*
X154305000Y-84455000D02*
X154940000Y-85090000D01*
X154940000Y-78740000D02*
X154940000Y-77470000D01*
X156830000Y-75580000D02*
X158944000Y-75580000D01*
X154940000Y-77470000D02*
X156830000Y-75580000D01*
D23*
X158623000Y-82931000D02*
X163068000Y-82931000D01*
D25*
X159652001Y-73571999D02*
X159002001Y-74221999D01*
D23*
X162760401Y-73571999D02*
X159652001Y-73571999D01*
X164426001Y-75237599D02*
X162760401Y-73571999D01*
X164426001Y-81572999D02*
X164426001Y-75237599D01*
X163068000Y-82931000D02*
X164426001Y-81572999D01*
D24*
G36*
X129571301Y-70613673D02*
X129392673Y-70792302D01*
X129296000Y-71025691D01*
X129296000Y-71616250D01*
X129454750Y-71775000D01*
X130429000Y-71775000D01*
X130429000Y-71755000D01*
X130683000Y-71755000D01*
X130683000Y-71775000D01*
X132461000Y-71775000D01*
X132461000Y-71755000D01*
X132715000Y-71755000D01*
X132715000Y-71775000D01*
X132735000Y-71775000D01*
X132735000Y-72029000D01*
X132715000Y-72029000D01*
X132715000Y-72049000D01*
X132461000Y-72049000D01*
X132461000Y-72029000D01*
X130683000Y-72029000D01*
X130683000Y-72049000D01*
X130429000Y-72049000D01*
X130429000Y-72029000D01*
X129454750Y-72029000D01*
X129296000Y-72187750D01*
X129296000Y-72778309D01*
X129392673Y-73011698D01*
X129534320Y-73153346D01*
X129473191Y-73194191D01*
X129332843Y-73404235D01*
X129283560Y-73652000D01*
X129283560Y-75152000D01*
X129298080Y-75225000D01*
X129190750Y-75225000D01*
X129032000Y-75383750D01*
X129032000Y-76733000D01*
X131281250Y-76733000D01*
X131440000Y-76574250D01*
X131440000Y-75742650D01*
X131572000Y-75654450D01*
X131572000Y-76014064D01*
X131572001Y-76014069D01*
X131572000Y-79594159D01*
X131283159Y-79883000D01*
X123900000Y-79883000D01*
X123900000Y-77145750D01*
X126370000Y-77145750D01*
X126370000Y-77986309D01*
X126466673Y-78219698D01*
X126645301Y-78398327D01*
X126878690Y-78495000D01*
X128619250Y-78495000D01*
X128778000Y-78336250D01*
X128778000Y-76987000D01*
X129032000Y-76987000D01*
X129032000Y-78336250D01*
X129190750Y-78495000D01*
X130931310Y-78495000D01*
X131164699Y-78398327D01*
X131343327Y-78219698D01*
X131440000Y-77986309D01*
X131440000Y-77145750D01*
X131281250Y-76987000D01*
X129032000Y-76987000D01*
X128778000Y-76987000D01*
X126528750Y-76987000D01*
X126370000Y-77145750D01*
X123900000Y-77145750D01*
X123900000Y-75733691D01*
X126370000Y-75733691D01*
X126370000Y-76574250D01*
X126528750Y-76733000D01*
X128778000Y-76733000D01*
X128778000Y-75383750D01*
X128619250Y-75225000D01*
X126878690Y-75225000D01*
X126645301Y-75321673D01*
X126466673Y-75500302D01*
X126370000Y-75733691D01*
X123900000Y-75733691D01*
X123900000Y-70560000D01*
X129700879Y-70560000D01*
X129571301Y-70613673D01*
X129571301Y-70613673D01*
G37*
X129571301Y-70613673D02*
X129392673Y-70792302D01*
X129296000Y-71025691D01*
X129296000Y-71616250D01*
X129454750Y-71775000D01*
X130429000Y-71775000D01*
X130429000Y-71755000D01*
X130683000Y-71755000D01*
X130683000Y-71775000D01*
X132461000Y-71775000D01*
X132461000Y-71755000D01*
X132715000Y-71755000D01*
X132715000Y-71775000D01*
X132735000Y-71775000D01*
X132735000Y-72029000D01*
X132715000Y-72029000D01*
X132715000Y-72049000D01*
X132461000Y-72049000D01*
X132461000Y-72029000D01*
X130683000Y-72029000D01*
X130683000Y-72049000D01*
X130429000Y-72049000D01*
X130429000Y-72029000D01*
X129454750Y-72029000D01*
X129296000Y-72187750D01*
X129296000Y-72778309D01*
X129392673Y-73011698D01*
X129534320Y-73153346D01*
X129473191Y-73194191D01*
X129332843Y-73404235D01*
X129283560Y-73652000D01*
X129283560Y-75152000D01*
X129298080Y-75225000D01*
X129190750Y-75225000D01*
X129032000Y-75383750D01*
X129032000Y-76733000D01*
X131281250Y-76733000D01*
X131440000Y-76574250D01*
X131440000Y-75742650D01*
X131572000Y-75654450D01*
X131572000Y-76014064D01*
X131572001Y-76014069D01*
X131572000Y-79594159D01*
X131283159Y-79883000D01*
X123900000Y-79883000D01*
X123900000Y-77145750D01*
X126370000Y-77145750D01*
X126370000Y-77986309D01*
X126466673Y-78219698D01*
X126645301Y-78398327D01*
X126878690Y-78495000D01*
X128619250Y-78495000D01*
X128778000Y-78336250D01*
X128778000Y-76987000D01*
X129032000Y-76987000D01*
X129032000Y-78336250D01*
X129190750Y-78495000D01*
X130931310Y-78495000D01*
X131164699Y-78398327D01*
X131343327Y-78219698D01*
X131440000Y-77986309D01*
X131440000Y-77145750D01*
X131281250Y-76987000D01*
X129032000Y-76987000D01*
X128778000Y-76987000D01*
X126528750Y-76987000D01*
X126370000Y-77145750D01*
X123900000Y-77145750D01*
X123900000Y-75733691D01*
X126370000Y-75733691D01*
X126370000Y-76574250D01*
X126528750Y-76733000D01*
X128778000Y-76733000D01*
X128778000Y-75383750D01*
X128619250Y-75225000D01*
X126878690Y-75225000D01*
X126645301Y-75321673D01*
X126466673Y-75500302D01*
X126370000Y-75733691D01*
X123900000Y-75733691D01*
X123900000Y-70560000D01*
X129700879Y-70560000D01*
X129571301Y-70613673D01*
M02*
