%TF.GenerationSoftware,KiCad,Pcbnew,(5.0.1)-3*%
%TF.CreationDate,2019-10-12T21:06:36-05:00*%
%TF.ProjectId,pet_feeder,7065745F6665656465722E6B69636164,rev?*%
%TF.SameCoordinates,Original*%
%TF.FileFunction,Legend,Top*%
%TF.FilePolarity,Positive*%
%FSLAX46Y46*%
G04 Gerber Fmt 4.6, Leading zero omitted, Abs format (unit mm)*
G04 Created by KiCad (PCBNEW (5.0.1)-3) date 10/12/2019 9:06:36 PM*
%MOMM*%
%LPD*%
G01*
G04 APERTURE LIST*
%ADD10C,0.300000*%
%ADD11C,0.125000*%
%ADD12C,0.120000*%
%ADD13C,0.150000*%
G04 APERTURE END LIST*
D10*
X124142571Y-87991142D02*
X125285428Y-87991142D01*
X124714000Y-88562571D02*
X124714000Y-87419714D01*
D11*
X160305809Y-79736190D02*
X160472476Y-80236190D01*
X160639142Y-79736190D01*
X160805809Y-80045714D02*
X161186761Y-80045714D01*
X164623809Y-79736190D02*
X164790476Y-80236190D01*
X164957142Y-79736190D01*
X165123809Y-80045714D02*
X165504761Y-80045714D01*
D12*
X132072000Y-85002000D02*
X131072000Y-85002000D01*
X131072000Y-86702000D02*
X132072000Y-86702000D01*
X131092000Y-88734000D02*
X132092000Y-88734000D01*
X132092000Y-87034000D02*
X131092000Y-87034000D01*
X133596000Y-91606000D02*
X132596000Y-91606000D01*
X132596000Y-93306000D02*
X133596000Y-93306000D01*
X133438000Y-73652000D02*
X133438000Y-72652000D01*
X131738000Y-72652000D02*
X131738000Y-73652000D01*
X131406000Y-73652000D02*
X131406000Y-72652000D01*
X129706000Y-72652000D02*
X129706000Y-73652000D01*
X125670000Y-91500000D02*
X128330000Y-91500000D01*
X125670000Y-88900000D02*
X125670000Y-91500000D01*
X128330000Y-88900000D02*
X128330000Y-91500000D01*
X125670000Y-88900000D02*
X128330000Y-88900000D01*
X125670000Y-87630000D02*
X125670000Y-86300000D01*
X125670000Y-86300000D02*
X127000000Y-86300000D01*
X161738000Y-86801000D02*
X164398000Y-86801000D01*
X161738000Y-81661000D02*
X161738000Y-86801000D01*
X164398000Y-81661000D02*
X164398000Y-86801000D01*
X161738000Y-81661000D02*
X164398000Y-81661000D01*
X161738000Y-80391000D02*
X161738000Y-79061000D01*
X161738000Y-79061000D02*
X163068000Y-79061000D01*
X150555000Y-97215000D02*
X150555000Y-94555000D01*
X142875000Y-97215000D02*
X150555000Y-97215000D01*
X142875000Y-94555000D02*
X150555000Y-94555000D01*
X142875000Y-97215000D02*
X142875000Y-94555000D01*
X141605000Y-97215000D02*
X140275000Y-97215000D01*
X140275000Y-97215000D02*
X140275000Y-95885000D01*
X163382000Y-95928000D02*
X153102000Y-95928000D01*
X153102000Y-95928000D02*
X153102000Y-98588000D01*
X153102000Y-98588000D02*
X163382000Y-98588000D01*
X163382000Y-98588000D02*
X163382000Y-95928000D01*
X162432000Y-98588000D02*
X162432000Y-104588000D01*
X162432000Y-104588000D02*
X161672000Y-104588000D01*
X161672000Y-104588000D02*
X161672000Y-98588000D01*
X162372000Y-98588000D02*
X162372000Y-104588000D01*
X162252000Y-98588000D02*
X162252000Y-104588000D01*
X162132000Y-98588000D02*
X162132000Y-104588000D01*
X162012000Y-98588000D02*
X162012000Y-104588000D01*
X161892000Y-98588000D02*
X161892000Y-104588000D01*
X161772000Y-98588000D02*
X161772000Y-104588000D01*
X162432000Y-95598000D02*
X162432000Y-95928000D01*
X161672000Y-95598000D02*
X161672000Y-95928000D01*
X160782000Y-95928000D02*
X160782000Y-98588000D01*
X159892000Y-98588000D02*
X159892000Y-104588000D01*
X159892000Y-104588000D02*
X159132000Y-104588000D01*
X159132000Y-104588000D02*
X159132000Y-98588000D01*
X159892000Y-95530929D02*
X159892000Y-95928000D01*
X159132000Y-95530929D02*
X159132000Y-95928000D01*
X158242000Y-95928000D02*
X158242000Y-98588000D01*
X157352000Y-98588000D02*
X157352000Y-104588000D01*
X157352000Y-104588000D02*
X156592000Y-104588000D01*
X156592000Y-104588000D02*
X156592000Y-98588000D01*
X157352000Y-95530929D02*
X157352000Y-95928000D01*
X156592000Y-95530929D02*
X156592000Y-95928000D01*
X155702000Y-95928000D02*
X155702000Y-98588000D01*
X154812000Y-98588000D02*
X154812000Y-104588000D01*
X154812000Y-104588000D02*
X154052000Y-104588000D01*
X154052000Y-104588000D02*
X154052000Y-98588000D01*
X154812000Y-95530929D02*
X154812000Y-95928000D01*
X154052000Y-95530929D02*
X154052000Y-95928000D01*
X162052000Y-93218000D02*
X163322000Y-93218000D01*
X163322000Y-93218000D02*
X163322000Y-94488000D01*
X157293000Y-79061000D02*
X158623000Y-79061000D01*
X157293000Y-80391000D02*
X157293000Y-79061000D01*
X157293000Y-81661000D02*
X159953000Y-81661000D01*
X159953000Y-81661000D02*
X159953000Y-86801000D01*
X157293000Y-81661000D02*
X157293000Y-86801000D01*
X157293000Y-86801000D02*
X159953000Y-86801000D01*
X130540000Y-100750000D02*
X135040000Y-100750000D01*
X129290000Y-96750000D02*
X129290000Y-98250000D01*
X135040000Y-94250000D02*
X130540000Y-94250000D01*
X136290000Y-98250000D02*
X136290000Y-96750000D01*
X160974000Y-73770000D02*
X159074000Y-73770000D01*
X159574000Y-76090000D02*
X160974000Y-76090000D01*
X156780000Y-92092000D02*
X158180000Y-92092000D01*
X158180000Y-89772000D02*
X156280000Y-89772000D01*
X132315000Y-78100000D02*
X131055000Y-78100000D01*
X125495000Y-78100000D02*
X126755000Y-78100000D01*
X132315000Y-81860000D02*
X132315000Y-78100000D01*
X125495000Y-84110000D02*
X125495000Y-78100000D01*
X135025000Y-89110000D02*
X135025000Y-89890000D01*
X135025000Y-89890000D02*
X136025000Y-89890000D01*
X153265000Y-89110000D02*
X153265000Y-89890000D01*
X153265000Y-89890000D02*
X152265000Y-89890000D01*
X135025000Y-64145000D02*
X153265000Y-64145000D01*
X153265000Y-64145000D02*
X153265000Y-70565000D01*
X135025000Y-64145000D02*
X135025000Y-70565000D01*
X135025000Y-70565000D02*
X134645000Y-70565000D01*
D13*
X128357333Y-85447142D02*
X128309714Y-85494761D01*
X128166857Y-85542380D01*
X128071619Y-85542380D01*
X127928761Y-85494761D01*
X127833523Y-85399523D01*
X127785904Y-85304285D01*
X127738285Y-85113809D01*
X127738285Y-84970952D01*
X127785904Y-84780476D01*
X127833523Y-84685238D01*
X127928761Y-84590000D01*
X128071619Y-84542380D01*
X128166857Y-84542380D01*
X128309714Y-84590000D01*
X128357333Y-84637619D01*
X129309714Y-85542380D02*
X128738285Y-85542380D01*
X129024000Y-85542380D02*
X129024000Y-84542380D01*
X128928761Y-84685238D01*
X128833523Y-84780476D01*
X128738285Y-84828095D01*
X130389333Y-89991142D02*
X130341714Y-90038761D01*
X130198857Y-90086380D01*
X130103619Y-90086380D01*
X129960761Y-90038761D01*
X129865523Y-89943523D01*
X129817904Y-89848285D01*
X129770285Y-89657809D01*
X129770285Y-89514952D01*
X129817904Y-89324476D01*
X129865523Y-89229238D01*
X129960761Y-89134000D01*
X130103619Y-89086380D01*
X130198857Y-89086380D01*
X130341714Y-89134000D01*
X130389333Y-89181619D01*
X130770285Y-89181619D02*
X130817904Y-89134000D01*
X130913142Y-89086380D01*
X131151238Y-89086380D01*
X131246476Y-89134000D01*
X131294095Y-89181619D01*
X131341714Y-89276857D01*
X131341714Y-89372095D01*
X131294095Y-89514952D01*
X130722666Y-90086380D01*
X131341714Y-90086380D01*
X136231333Y-93067142D02*
X136183714Y-93114761D01*
X136040857Y-93162380D01*
X135945619Y-93162380D01*
X135802761Y-93114761D01*
X135707523Y-93019523D01*
X135659904Y-92924285D01*
X135612285Y-92733809D01*
X135612285Y-92590952D01*
X135659904Y-92400476D01*
X135707523Y-92305238D01*
X135802761Y-92210000D01*
X135945619Y-92162380D01*
X136040857Y-92162380D01*
X136183714Y-92210000D01*
X136231333Y-92257619D01*
X137136095Y-92162380D02*
X136659904Y-92162380D01*
X136612285Y-92638571D01*
X136659904Y-92590952D01*
X136755142Y-92543333D01*
X136993238Y-92543333D01*
X137088476Y-92590952D01*
X137136095Y-92638571D01*
X137183714Y-92733809D01*
X137183714Y-92971904D01*
X137136095Y-93067142D01*
X137088476Y-93114761D01*
X136993238Y-93162380D01*
X136755142Y-93162380D01*
X136659904Y-93114761D01*
X136612285Y-93067142D01*
X134695142Y-73318666D02*
X134742761Y-73366285D01*
X134790380Y-73509142D01*
X134790380Y-73604380D01*
X134742761Y-73747238D01*
X134647523Y-73842476D01*
X134552285Y-73890095D01*
X134361809Y-73937714D01*
X134218952Y-73937714D01*
X134028476Y-73890095D01*
X133933238Y-73842476D01*
X133838000Y-73747238D01*
X133790380Y-73604380D01*
X133790380Y-73509142D01*
X133838000Y-73366285D01*
X133885619Y-73318666D01*
X134123714Y-72461523D02*
X134790380Y-72461523D01*
X133742761Y-72699619D02*
X134457047Y-72937714D01*
X134457047Y-72318666D01*
X132663142Y-73318666D02*
X132710761Y-73366285D01*
X132758380Y-73509142D01*
X132758380Y-73604380D01*
X132710761Y-73747238D01*
X132615523Y-73842476D01*
X132520285Y-73890095D01*
X132329809Y-73937714D01*
X132186952Y-73937714D01*
X131996476Y-73890095D01*
X131901238Y-73842476D01*
X131806000Y-73747238D01*
X131758380Y-73604380D01*
X131758380Y-73509142D01*
X131806000Y-73366285D01*
X131853619Y-73318666D01*
X131758380Y-72985333D02*
X131758380Y-72366285D01*
X132139333Y-72699619D01*
X132139333Y-72556761D01*
X132186952Y-72461523D01*
X132234571Y-72413904D01*
X132329809Y-72366285D01*
X132567904Y-72366285D01*
X132663142Y-72413904D01*
X132710761Y-72461523D01*
X132758380Y-72556761D01*
X132758380Y-72842476D01*
X132710761Y-72937714D01*
X132663142Y-72985333D01*
X125880952Y-92384571D02*
X126023809Y-92432190D01*
X126071428Y-92479809D01*
X126119047Y-92575047D01*
X126119047Y-92717904D01*
X126071428Y-92813142D01*
X126023809Y-92860761D01*
X125928571Y-92908380D01*
X125547619Y-92908380D01*
X125547619Y-91908380D01*
X125880952Y-91908380D01*
X125976190Y-91956000D01*
X126023809Y-92003619D01*
X126071428Y-92098857D01*
X126071428Y-92194095D01*
X126023809Y-92289333D01*
X125976190Y-92336952D01*
X125880952Y-92384571D01*
X125547619Y-92384571D01*
X126500000Y-92622666D02*
X126976190Y-92622666D01*
X126404761Y-92908380D02*
X126738095Y-91908380D01*
X127071428Y-92908380D01*
X127261904Y-91908380D02*
X127833333Y-91908380D01*
X127547619Y-92908380D02*
X127547619Y-91908380D01*
X128023809Y-91908380D02*
X128595238Y-91908380D01*
X128309523Y-92908380D02*
X128309523Y-91908380D01*
X162258476Y-78513380D02*
X162258476Y-77513380D01*
X162591809Y-78227666D01*
X162925142Y-77513380D01*
X162925142Y-78513380D01*
X163925142Y-78513380D02*
X163353714Y-78513380D01*
X163639428Y-78513380D02*
X163639428Y-77513380D01*
X163544190Y-77656238D01*
X163448952Y-77751476D01*
X163353714Y-77799095D01*
X139727380Y-97670714D02*
X138727380Y-97670714D01*
X138727380Y-97289761D01*
X138775000Y-97194523D01*
X138822619Y-97146904D01*
X138917857Y-97099285D01*
X139060714Y-97099285D01*
X139155952Y-97146904D01*
X139203571Y-97194523D01*
X139251190Y-97289761D01*
X139251190Y-97670714D01*
X139727380Y-96099285D02*
X139251190Y-96432619D01*
X139727380Y-96670714D02*
X138727380Y-96670714D01*
X138727380Y-96289761D01*
X138775000Y-96194523D01*
X138822619Y-96146904D01*
X138917857Y-96099285D01*
X139060714Y-96099285D01*
X139155952Y-96146904D01*
X139203571Y-96194523D01*
X139251190Y-96289761D01*
X139251190Y-96670714D01*
X138727380Y-95480238D02*
X138727380Y-95289761D01*
X138775000Y-95194523D01*
X138870238Y-95099285D01*
X139060714Y-95051666D01*
X139394047Y-95051666D01*
X139584523Y-95099285D01*
X139679761Y-95194523D01*
X139727380Y-95289761D01*
X139727380Y-95480238D01*
X139679761Y-95575476D01*
X139584523Y-95670714D01*
X139394047Y-95718333D01*
X139060714Y-95718333D01*
X138870238Y-95670714D01*
X138775000Y-95575476D01*
X138727380Y-95480238D01*
X138775000Y-94099285D02*
X138727380Y-94194523D01*
X138727380Y-94337380D01*
X138775000Y-94480238D01*
X138870238Y-94575476D01*
X138965476Y-94623095D01*
X139155952Y-94670714D01*
X139298809Y-94670714D01*
X139489285Y-94623095D01*
X139584523Y-94575476D01*
X139679761Y-94480238D01*
X139727380Y-94337380D01*
X139727380Y-94242142D01*
X139679761Y-94099285D01*
X139632142Y-94051666D01*
X139298809Y-94051666D01*
X139298809Y-94242142D01*
X164552380Y-98408809D02*
X165552380Y-98170714D01*
X164838095Y-97980238D01*
X165552380Y-97789761D01*
X164552380Y-97551666D01*
X165028571Y-97170714D02*
X165028571Y-96837380D01*
X165552380Y-96694523D02*
X165552380Y-97170714D01*
X164552380Y-97170714D01*
X164552380Y-96694523D01*
X165552380Y-96265952D02*
X164552380Y-96265952D01*
X164600000Y-95265952D02*
X164552380Y-95361190D01*
X164552380Y-95504047D01*
X164600000Y-95646904D01*
X164695238Y-95742142D01*
X164790476Y-95789761D01*
X164980952Y-95837380D01*
X165123809Y-95837380D01*
X165314285Y-95789761D01*
X165409523Y-95742142D01*
X165504761Y-95646904D01*
X165552380Y-95504047D01*
X165552380Y-95408809D01*
X165504761Y-95265952D01*
X165457142Y-95218333D01*
X165123809Y-95218333D01*
X165123809Y-95408809D01*
X165552380Y-94789761D02*
X164552380Y-94789761D01*
X165028571Y-94789761D02*
X165028571Y-94218333D01*
X165552380Y-94218333D02*
X164552380Y-94218333D01*
X164552380Y-93885000D02*
X164552380Y-93313571D01*
X165552380Y-93599285D02*
X164552380Y-93599285D01*
X157813476Y-78513380D02*
X157813476Y-77513380D01*
X158146809Y-78227666D01*
X158480142Y-77513380D01*
X158480142Y-78513380D01*
X159146809Y-77513380D02*
X159242047Y-77513380D01*
X159337285Y-77561000D01*
X159384904Y-77608619D01*
X159432523Y-77703857D01*
X159480142Y-77894333D01*
X159480142Y-78132428D01*
X159432523Y-78322904D01*
X159384904Y-78418142D01*
X159337285Y-78465761D01*
X159242047Y-78513380D01*
X159146809Y-78513380D01*
X159051571Y-78465761D01*
X159003952Y-78418142D01*
X158956333Y-78322904D01*
X158908714Y-78132428D01*
X158908714Y-77894333D01*
X158956333Y-77703857D01*
X159003952Y-77608619D01*
X159051571Y-77561000D01*
X159146809Y-77513380D01*
X138342857Y-99496571D02*
X138485714Y-99544190D01*
X138533333Y-99591809D01*
X138580952Y-99687047D01*
X138580952Y-99829904D01*
X138533333Y-99925142D01*
X138485714Y-99972761D01*
X138390476Y-100020380D01*
X138009523Y-100020380D01*
X138009523Y-99020380D01*
X138342857Y-99020380D01*
X138438095Y-99068000D01*
X138485714Y-99115619D01*
X138533333Y-99210857D01*
X138533333Y-99306095D01*
X138485714Y-99401333D01*
X138438095Y-99448952D01*
X138342857Y-99496571D01*
X138009523Y-99496571D01*
X139200000Y-99020380D02*
X139390476Y-99020380D01*
X139485714Y-99068000D01*
X139580952Y-99163238D01*
X139628571Y-99353714D01*
X139628571Y-99687047D01*
X139580952Y-99877523D01*
X139485714Y-99972761D01*
X139390476Y-100020380D01*
X139200000Y-100020380D01*
X139104761Y-99972761D01*
X139009523Y-99877523D01*
X138961904Y-99687047D01*
X138961904Y-99353714D01*
X139009523Y-99163238D01*
X139104761Y-99068000D01*
X139200000Y-99020380D01*
X140247619Y-99020380D02*
X140438095Y-99020380D01*
X140533333Y-99068000D01*
X140628571Y-99163238D01*
X140676190Y-99353714D01*
X140676190Y-99687047D01*
X140628571Y-99877523D01*
X140533333Y-99972761D01*
X140438095Y-100020380D01*
X140247619Y-100020380D01*
X140152380Y-99972761D01*
X140057142Y-99877523D01*
X140009523Y-99687047D01*
X140009523Y-99353714D01*
X140057142Y-99163238D01*
X140152380Y-99068000D01*
X140247619Y-99020380D01*
X140961904Y-99020380D02*
X141533333Y-99020380D01*
X141247619Y-100020380D02*
X141247619Y-99020380D01*
X159512095Y-72382380D02*
X159512095Y-73191904D01*
X159559714Y-73287142D01*
X159607333Y-73334761D01*
X159702571Y-73382380D01*
X159893047Y-73382380D01*
X159988285Y-73334761D01*
X160035904Y-73287142D01*
X160083523Y-73191904D01*
X160083523Y-72382380D01*
X161083523Y-73382380D02*
X160512095Y-73382380D01*
X160797809Y-73382380D02*
X160797809Y-72382380D01*
X160702571Y-72525238D01*
X160607333Y-72620476D01*
X160512095Y-72668095D01*
X156718095Y-88384380D02*
X156718095Y-89193904D01*
X156765714Y-89289142D01*
X156813333Y-89336761D01*
X156908571Y-89384380D01*
X157099047Y-89384380D01*
X157194285Y-89336761D01*
X157241904Y-89289142D01*
X157289523Y-89193904D01*
X157289523Y-88384380D01*
X157718095Y-88479619D02*
X157765714Y-88432000D01*
X157860952Y-88384380D01*
X158099047Y-88384380D01*
X158194285Y-88432000D01*
X158241904Y-88479619D01*
X158289523Y-88574857D01*
X158289523Y-88670095D01*
X158241904Y-88812952D01*
X157670476Y-89384380D01*
X158289523Y-89384380D01*
X123857380Y-80771904D02*
X124666904Y-80771904D01*
X124762142Y-80724285D01*
X124809761Y-80676666D01*
X124857380Y-80581428D01*
X124857380Y-80390952D01*
X124809761Y-80295714D01*
X124762142Y-80248095D01*
X124666904Y-80200476D01*
X123857380Y-80200476D01*
X123857380Y-79819523D02*
X123857380Y-79200476D01*
X124238333Y-79533809D01*
X124238333Y-79390952D01*
X124285952Y-79295714D01*
X124333571Y-79248095D01*
X124428809Y-79200476D01*
X124666904Y-79200476D01*
X124762142Y-79248095D01*
X124809761Y-79295714D01*
X124857380Y-79390952D01*
X124857380Y-79676666D01*
X124809761Y-79771904D01*
X124762142Y-79819523D01*
X132987380Y-89201904D02*
X133796904Y-89201904D01*
X133892142Y-89154285D01*
X133939761Y-89106666D01*
X133987380Y-89011428D01*
X133987380Y-88820952D01*
X133939761Y-88725714D01*
X133892142Y-88678095D01*
X133796904Y-88630476D01*
X132987380Y-88630476D01*
X133320714Y-87725714D02*
X133987380Y-87725714D01*
X132939761Y-87963809D02*
X133654047Y-88201904D01*
X133654047Y-87582857D01*
M02*
